{"glyphs":{"0":{"ha":722,"x_min":60,"x_max":661,"o":"m 421 1069 q 540 1099 485 1107 q 628 1048 594 1092 q 661 931 661 1004 l 661 375 q 642 258 661 319 q 589 139 622 197 q 513 33 556 81 q 421 -42 469 -14 q 302 -71 357 -78 q 214 -20 247 -64 q 181 97 181 24 l 181 653 q 200 769 181 708 q 253 889 219 831 q 330 994 286 947 q 421 1069 374 1042 m 542 861 q 506 938 542 917 q 421 931 469 958 q 362 877 389 913 q 318 801 335 842 q 301 722 301 760 l 301 167 q 338 90 301 111 q 421 97 374 69 q 481 151 453 115 q 525 228 508 186 q 542 306 542 269 l 542 861 m 506 938 q 542 861 542 917 l 542 306 q 525 228 542 269 q 481 151 508 186 q 421 97 453 115 q 338 90 374 69 l 217 160 q 301 167 253 139 q 360 220 332 185 q 404 297 388 256 q 421 375 421 339 l 421 931 q 385 1007 421 986 l 506 938 m 589 1083 q 513 1099 556 1101 q 421 1069 469 1097 q 330 994 374 1042 q 253 889 286 947 q 200 769 219 831 q 181 653 181 708 l 181 97 q 200 3 181 42 q 253 -56 219 -36 l 132 14 q 80 72 100 33 q 60 167 60 111 l 60 722 q 79 839 60 778 q 133 958 99 900 q 210 1064 167 1017 q 301 1139 253 1111 q 392 1169 349 1167 q 469 1153 436 1171 l 589 1083 z "},"1":{"ha":614,"x_min":60,"x_max":553,"o":"m 313 146 l 313 910 l 181 833 l 181 972 l 193 979 q 276 986 240 1007 q 313 910 313 965 l 313 1049 l 433 1118 l 433 215 l 553 285 l 553 146 l 181 -69 l 181 69 l 313 146 m 313 146 l 181 69 l 60 139 l 193 215 l 313 146 m 181 69 l 181 -69 l 60 0 l 60 139 l 181 69 m 553 285 l 433 215 l 313 285 l 433 354 l 553 285 m 433 1118 l 313 1049 l 193 1118 l 313 1188 l 433 1118 m 313 1049 l 313 910 l 193 979 l 193 1118 l 313 1049 m 313 910 l 313 146 l 193 215 l 193 979 l 313 910 m 276 986 q 193 979 240 1007 l 181 972 l 60 1042 l 72 1049 q 156 1056 119 1076 l 276 986 m 181 972 l 181 833 l 60 903 l 60 1042 l 181 972 z "},"2":{"ha":722,"x_min":60,"x_max":661,"o":"m 301 389 l 301 139 l 661 347 l 661 208 l 181 -69 l 181 319 q 197 398 181 357 q 242 474 214 439 q 301 528 269 510 l 542 667 l 542 958 l 301 819 l 301 708 l 181 639 l 181 750 q 197 828 181 788 q 242 905 214 869 q 301 958 269 940 l 542 1097 q 625 1104 589 1125 q 661 1028 661 1083 l 661 736 q 644 658 661 700 q 601 581 628 617 q 542 528 574 546 l 301 389 m 542 958 l 542 667 l 421 736 l 421 1028 l 542 958 m 661 347 l 301 139 l 181 208 l 542 417 l 661 347 m 542 667 l 301 528 q 242 474 269 510 q 197 398 214 439 q 181 319 181 357 l 181 -69 l 60 0 l 60 389 q 76 467 60 426 q 121 544 93 508 q 181 597 149 579 l 421 736 l 542 667 m 625 1104 q 542 1097 589 1125 l 301 958 q 242 905 269 940 q 197 828 214 869 q 181 750 181 788 l 181 639 l 60 708 l 60 819 q 76 898 60 857 q 121 974 93 939 q 181 1028 149 1010 l 421 1167 q 506 1174 469 1194 l 625 1104 z "},"3":{"ha":722,"x_min":60,"x_max":661,"o":"m 542 528 l 301 389 l 301 528 l 542 667 l 542 958 l 301 819 l 301 708 l 181 639 l 181 750 q 197 828 181 788 q 242 905 214 869 q 301 958 269 940 l 542 1097 q 625 1104 589 1125 q 661 1028 661 1083 l 661 875 q 644 797 661 839 q 601 720 628 756 q 542 667 574 685 q 625 674 589 694 q 661 597 661 653 l 661 347 q 644 269 661 311 q 601 192 628 228 q 542 139 574 157 l 181 -69 l 181 69 l 542 278 l 542 528 m 542 528 l 542 278 l 421 347 l 421 597 l 542 528 m 542 278 l 181 69 l 60 139 l 421 347 l 542 278 m 181 69 l 181 -69 l 60 0 l 60 139 l 181 69 m 625 674 q 542 667 589 694 l 421 736 q 506 743 469 764 l 625 674 m 542 958 l 542 667 l 421 736 l 421 1028 l 542 958 m 542 667 l 301 528 l 181 597 l 421 736 l 542 667 m 301 528 l 301 389 l 181 458 l 181 597 l 301 528 m 625 1104 q 542 1097 589 1125 l 301 958 q 242 905 269 940 q 197 828 214 869 q 181 750 181 788 l 181 639 l 60 708 l 60 819 q 76 898 60 857 q 121 974 93 939 q 181 1028 149 1010 l 421 1167 q 506 1174 469 1194 l 625 1104 z "},"4":{"ha":722,"x_min":60,"x_max":661,"o":"m 301 903 l 301 347 l 542 486 l 542 1042 l 661 1111 l 661 0 l 542 -69 l 542 486 q 525 408 542 450 q 481 331 508 367 q 421 278 453 296 l 181 139 l 181 694 q 197 773 181 732 q 242 849 214 814 q 301 903 269 885 m 542 486 l 542 -69 l 421 0 l 421 556 l 542 486 m 661 1111 l 542 1042 l 421 1111 l 542 1181 l 661 1111 m 542 1042 l 542 486 l 421 556 l 421 1111 l 542 1042 m 542 486 l 301 347 l 181 417 l 421 556 l 542 486 m 301 903 q 242 849 269 885 q 197 773 214 814 q 181 694 181 732 l 181 139 l 60 208 l 60 764 q 76 842 60 801 q 121 919 93 883 q 181 972 149 954 l 301 903 z "},"5":{"ha":722,"x_min":60,"x_max":661,"o":"m 542 528 l 301 389 q 217 382 253 361 q 181 458 181 403 l 181 833 l 301 903 l 301 903 l 661 1111 l 661 972 l 421 833 q 338 826 374 806 q 301 903 301 847 l 301 528 l 542 667 q 625 674 589 694 q 661 597 661 653 l 661 347 q 644 269 661 311 q 601 192 628 228 q 542 139 574 157 l 181 -69 l 181 69 l 542 278 l 542 528 m 542 528 l 542 278 l 421 347 l 421 597 l 542 528 m 542 278 l 181 69 l 60 139 l 421 347 l 542 278 m 181 69 l 181 -69 l 60 0 l 60 139 l 181 69 m 661 1111 l 301 903 l 181 972 l 542 1181 l 661 1111 m 625 674 q 542 667 589 694 l 301 528 l 181 597 l 421 736 q 506 743 469 764 l 625 674 m 301 903 q 338 826 301 847 l 217 896 q 181 972 181 917 l 301 903 m 181 833 l 181 458 q 217 382 181 403 l 96 451 q 60 528 60 472 l 60 903 l 181 833 m 301 903 l 181 833 l 60 903 l 181 972 l 301 903 z "},"6":{"ha":722,"x_min":60,"x_max":661,"o":"m 421 597 l 542 667 q 625 674 589 694 q 661 597 661 653 l 661 292 q 644 214 661 256 q 601 137 628 172 q 542 83 574 101 l 301 -56 q 217 -62 253 -83 q 181 14 181 -42 l 181 694 q 197 773 181 732 q 242 849 214 814 q 301 903 269 885 l 661 1111 l 661 972 l 301 764 l 301 389 q 318 467 301 426 q 362 544 335 508 q 421 597 389 579 m 301 83 l 542 222 l 542 528 l 301 389 l 301 83 m 542 528 l 542 222 l 421 292 l 421 597 l 542 528 m 542 222 l 301 83 l 181 153 l 421 292 l 542 222 m 625 674 q 542 667 589 694 l 421 597 q 362 544 389 579 q 318 467 335 508 q 301 389 301 426 l 181 458 q 197 537 181 496 q 242 613 214 578 q 301 667 269 649 l 421 736 q 506 743 469 764 l 625 674 m 661 1111 l 301 903 q 242 849 269 885 q 197 773 214 814 q 181 694 181 732 l 181 14 q 217 -62 181 -42 l 96 7 q 60 83 60 28 l 60 764 q 76 842 60 801 q 121 919 93 883 q 181 972 149 954 l 542 1181 l 661 1111 z "},"7":{"ha":722,"x_min":60,"x_max":661,"o":"m 421 972 q 506 979 469 1000 q 542 903 542 958 l 542 1042 l 661 1111 l 661 694 q 644 617 661 658 q 601 540 628 575 q 542 486 574 504 l 421 417 l 421 0 l 301 -69 l 301 347 q 318 426 301 385 q 362 502 335 467 q 421 556 389 538 l 542 625 l 542 903 l 181 694 l 181 833 l 421 972 m 542 903 l 542 625 l 421 694 l 421 972 l 542 903 m 542 625 l 421 556 q 362 502 389 538 q 318 426 335 467 q 301 347 301 385 l 301 -69 l 181 0 l 181 417 q 197 495 181 454 q 242 572 214 536 q 301 625 269 607 l 421 694 l 542 625 m 661 1111 l 542 1042 l 421 1111 l 542 1181 l 661 1111 m 542 1042 l 542 903 l 421 972 l 421 1111 l 542 1042 m 506 979 q 421 972 469 1000 l 181 833 l 60 903 l 301 1042 q 385 1049 349 1069 l 506 979 m 181 833 l 181 694 l 60 764 l 60 903 l 181 833 z "},"8":{"ha":722,"x_min":60,"x_max":661,"o":"m 301 528 q 217 521 253 500 q 181 597 181 542 l 181 750 q 197 828 181 788 q 242 905 214 869 q 301 958 269 940 l 542 1097 q 625 1104 589 1125 q 661 1028 661 1083 l 661 875 q 644 797 661 839 q 601 720 628 756 q 542 667 574 685 q 625 674 589 694 q 661 597 661 653 l 661 292 q 644 214 661 256 q 601 137 628 172 q 542 83 574 101 l 301 -56 q 217 -62 253 -83 q 181 14 181 -42 l 181 319 q 197 398 181 357 q 242 474 214 439 q 301 528 269 510 m 301 83 l 542 222 l 542 528 l 301 389 l 301 83 m 301 528 l 542 667 l 542 958 l 301 819 l 301 528 m 625 674 q 542 667 589 694 l 421 736 q 506 743 469 764 l 625 674 m 542 528 l 542 222 l 421 292 l 421 597 l 542 528 m 542 222 l 301 83 l 181 153 l 421 292 l 542 222 m 301 528 q 242 474 269 510 q 197 398 214 439 q 181 319 181 357 l 181 14 q 217 -62 181 -42 l 96 7 q 60 83 60 28 l 60 389 q 76 467 60 426 q 121 544 93 508 q 181 597 149 579 l 301 528 m 542 958 l 542 667 l 421 736 l 421 1028 l 542 958 m 542 667 l 301 528 l 181 597 l 421 736 l 542 667 m 625 1104 q 542 1097 589 1125 l 301 958 q 242 905 269 940 q 197 828 214 869 q 181 750 181 788 l 181 597 q 217 521 181 542 l 96 590 q 60 667 60 611 l 60 819 q 76 898 60 857 q 121 974 93 939 q 181 1028 149 1010 l 421 1167 q 506 1174 469 1194 l 625 1104 z "},"9":{"ha":722,"x_min":60,"x_max":661,"o":"m 542 1097 q 625 1104 589 1125 q 661 1028 661 1083 l 661 347 q 644 269 661 311 q 601 192 628 228 q 542 139 574 157 l 181 -69 l 181 69 l 542 278 l 542 653 q 525 575 542 617 q 481 498 508 533 q 421 444 453 463 l 301 375 q 217 368 253 347 q 181 444 181 389 l 181 750 q 197 828 181 788 q 242 905 214 869 q 301 958 269 940 l 542 1097 m 301 514 l 542 653 l 542 958 l 301 819 l 301 514 m 542 653 l 542 278 l 421 347 l 421 722 l 542 653 m 542 278 l 181 69 l 60 139 l 421 347 l 542 278 m 181 69 l 181 -69 l 60 0 l 60 139 l 181 69 m 542 958 l 542 653 l 421 722 l 421 1028 l 542 958 m 542 653 l 301 514 l 181 583 l 421 722 l 542 653 m 625 1104 q 542 1097 589 1125 l 301 958 q 242 905 269 940 q 197 828 214 869 q 181 750 181 788 l 181 444 q 217 368 181 389 l 96 438 q 60 514 60 458 l 60 819 q 76 898 60 857 q 121 974 93 939 q 181 1028 149 1010 l 421 1167 q 506 1174 469 1194 l 625 1104 z "}," ":{"ha":361,"x_min":0,"x_max":0,"o":"z "},"A":{"ha":782,"x_min":60,"x_max":722,"o":"m 301 1028 l 601 1201 q 685 1208 649 1229 q 722 1132 722 1188 l 722 243 l 601 174 l 601 451 l 301 278 l 301 0 l 181 -69 l 181 819 q 197 898 181 857 q 242 974 214 939 q 301 1028 269 1010 m 601 590 l 601 1063 l 301 889 l 301 417 l 601 590 m 601 451 l 601 174 l 481 243 l 481 521 l 601 451 m 601 1063 l 601 590 l 481 660 l 481 1132 l 601 1063 m 601 590 l 301 417 l 181 486 l 481 660 l 601 590 m 686 1208 q 601 1201 649 1229 l 301 1028 q 242 974 269 1010 q 197 898 214 939 q 181 819 181 857 l 181 -69 l 60 0 l 60 889 q 76 967 60 926 q 121 1044 93 1008 q 181 1097 149 1079 l 481 1271 q 565 1278 529 1299 l 686 1208 z "},"Æ":{"ha":999,"x_min":60,"x_max":938,"o":"m 301 972 l 938 1340 l 938 1201 l 674 1049 l 674 771 l 938 924 l 938 785 l 674 632 l 674 354 l 938 507 l 938 368 l 674 215 q 590 208 626 188 q 553 285 553 229 l 553 424 l 301 278 l 301 0 l 181 -69 l 181 764 q 197 842 181 801 q 242 919 214 883 q 301 972 269 954 m 553 563 l 553 979 l 301 833 l 301 417 l 553 563 m 553 424 l 553 285 q 589 208 553 229 l 469 278 q 433 354 433 299 l 433 493 l 553 424 m 938 507 l 674 354 l 553 424 l 818 576 l 938 507 m 938 924 l 674 771 l 553 840 l 818 993 l 938 924 m 553 979 l 553 563 l 433 632 l 433 1049 l 553 979 m 553 563 l 301 417 l 181 486 l 433 632 l 553 563 m 938 1340 l 301 972 q 242 919 269 954 q 197 842 214 883 q 181 764 181 801 l 181 -69 l 60 0 l 60 833 q 76 912 60 871 q 121 988 93 953 q 181 1042 149 1024 l 818 1410 l 938 1340 z "},"Á":{"ha":782,"x_min":60,"x_max":722,"o":"m 301 1028 l 601 1201 q 685 1208 649 1229 q 722 1132 722 1188 l 722 243 l 601 174 l 601 451 l 301 278 l 301 0 l 181 -69 l 181 819 q 197 898 181 857 q 242 974 214 939 q 301 1028 269 1010 m 601 590 l 601 1063 l 301 889 l 301 417 l 601 590 m 264 1279 l 551 1629 l 615 1544 l 328 1194 l 264 1279 m 601 451 l 601 174 l 481 243 l 481 521 l 601 451 m 601 1063 l 601 590 l 481 660 l 481 1132 l 601 1063 m 601 590 l 301 417 l 181 486 l 481 660 l 601 590 m 686 1208 q 601 1201 649 1229 l 301 1028 q 242 974 269 1010 q 197 898 214 939 q 181 819 181 857 l 181 -69 l 60 0 l 60 889 q 76 967 60 926 q 121 1044 93 1008 q 181 1097 149 1079 l 481 1271 q 565 1278 529 1299 l 686 1208 m 551 1629 l 264 1279 l 143 1349 l 431 1699 l 551 1629 m 264 1279 l 328 1194 l 207 1264 l 143 1349 l 264 1279 z "},"Ă":{"ha":782,"x_min":60,"x_max":722,"o":"m 301 1028 l 601 1201 q 685 1208 649 1229 q 722 1132 722 1188 l 722 243 l 601 174 l 601 451 l 301 278 l 301 0 l 181 -69 l 181 819 q 197 898 181 857 q 242 974 214 939 q 301 1028 269 1010 m 601 590 l 601 1063 l 301 889 l 301 417 l 601 590 m 451 1268 q 333 1238 388 1231 q 244 1289 278 1244 q 211 1407 211 1333 l 331 1476 q 367 1400 331 1421 q 451 1407 403 1379 q 510 1460 483 1425 q 554 1536 538 1494 q 571 1615 571 1578 l 692 1685 q 672 1568 692 1629 q 619 1449 653 1507 q 542 1342 586 1390 q 451 1268 499 1294 m 601 451 l 601 174 l 481 243 l 481 521 l 601 451 m 601 1063 l 601 590 l 481 660 l 481 1132 l 601 1063 m 692 1685 l 571 1615 l 451 1685 l 571 1754 l 692 1685 m 571 1615 q 554 1536 571 1578 q 510 1460 538 1494 q 451 1407 483 1425 q 367 1400 403 1379 l 247 1469 q 331 1476 283 1449 q 390 1529 363 1494 q 435 1606 418 1564 q 451 1685 451 1647 l 571 1615 m 601 590 l 301 417 l 181 486 l 481 660 l 601 590 m 686 1208 q 601 1201 649 1229 l 301 1028 q 242 974 269 1010 q 197 898 214 939 q 181 819 181 857 l 181 -69 l 60 0 l 60 889 q 76 967 60 926 q 121 1044 93 1008 q 181 1097 149 1079 l 481 1271 q 565 1278 529 1299 l 686 1208 m 331 1476 l 211 1407 l 90 1476 l 211 1546 l 331 1476 m 211 1407 q 231 1313 211 1351 q 283 1254 250 1274 l 163 1324 q 110 1382 129 1343 q 90 1476 90 1421 l 211 1407 z "},"Â":{"ha":782,"x_min":60,"x_max":722,"o":"m 301 1028 l 601 1201 q 685 1208 649 1229 q 722 1132 722 1188 l 722 243 l 601 174 l 601 451 l 301 278 l 301 0 l 181 -69 l 181 819 q 197 898 181 857 q 242 974 214 939 q 301 1028 269 1010 m 601 590 l 601 1063 l 301 889 l 301 417 l 601 590 m 468 1435 l 286 1185 l 219 1257 l 451 1574 l 682 1524 l 625 1399 l 468 1435 m 601 451 l 601 174 l 481 243 l 481 521 l 601 451 m 601 1063 l 601 590 l 481 660 l 481 1132 l 601 1063 m 682 1524 l 451 1574 l 331 1643 l 561 1593 l 682 1524 m 601 590 l 301 417 l 181 486 l 481 660 l 601 590 m 686 1208 q 601 1201 649 1229 l 301 1028 q 242 974 269 1010 q 197 898 214 939 q 181 819 181 857 l 181 -69 l 60 0 l 60 889 q 76 967 60 926 q 121 1044 93 1008 q 181 1097 149 1079 l 481 1271 q 565 1278 529 1299 l 686 1208 m 451 1574 l 219 1257 l 100 1326 l 331 1643 l 451 1574 m 219 1257 l 286 1185 l 167 1254 l 100 1326 l 219 1257 z "},"Ä":{"ha":782,"x_min":60,"x_max":722,"o":"m 301 1028 l 601 1201 q 685 1208 649 1229 q 722 1132 722 1188 l 722 243 l 601 174 l 601 451 l 301 278 l 301 0 l 181 -69 l 181 819 q 197 898 181 857 q 242 974 214 939 q 301 1028 269 1010 m 601 590 l 601 1063 l 301 889 l 301 417 l 601 590 m 301 1181 q 240 1174 264 1160 q 217 1229 217 1188 q 240 1313 217 1271 q 301 1375 264 1354 q 361 1382 338 1396 q 385 1326 385 1368 q 361 1243 385 1285 q 301 1181 338 1201 m 601 1354 q 541 1347 565 1333 q 517 1403 517 1361 q 541 1486 517 1444 q 601 1549 565 1528 q 662 1556 638 1569 q 686 1500 686 1542 q 662 1417 686 1458 q 601 1354 638 1375 m 601 451 l 601 174 l 481 243 l 481 521 l 601 451 m 601 1063 l 601 590 l 481 660 l 481 1132 l 601 1063 m 663 1556 q 601 1549 638 1569 q 541 1486 565 1528 q 517 1403 517 1444 q 542 1347 517 1361 l 421 1417 q 397 1472 397 1431 q 421 1556 397 1514 q 481 1618 444 1597 q 542 1625 518 1639 l 663 1556 m 601 590 l 301 417 l 181 486 l 481 660 l 601 590 m 686 1208 q 601 1201 649 1229 l 301 1028 q 242 974 269 1010 q 197 898 214 939 q 181 819 181 857 l 181 -69 l 60 0 l 60 889 q 76 967 60 926 q 121 1044 93 1008 q 181 1097 149 1079 l 481 1271 q 565 1278 529 1299 l 686 1208 m 361 1382 q 301 1375 338 1396 q 240 1313 264 1354 q 217 1229 217 1271 q 240 1174 217 1188 l 119 1243 q 96 1299 96 1257 q 120 1382 96 1340 q 181 1444 144 1424 q 240 1451 217 1465 l 361 1382 z "},"À":{"ha":782,"x_min":60,"x_max":722,"o":"m 301 1028 l 601 1201 q 685 1208 649 1229 q 722 1132 722 1188 l 722 243 l 601 174 l 601 451 l 301 278 l 301 0 l 181 -69 l 181 819 q 197 898 181 857 q 242 974 214 939 q 301 1028 269 1010 m 601 590 l 601 1063 l 301 889 l 301 417 l 601 590 m 293 1547 l 628 1468 l 560 1325 l 225 1403 l 293 1547 m 601 451 l 601 174 l 481 243 l 481 521 l 601 451 m 601 1063 l 601 590 l 481 660 l 481 1132 l 601 1063 m 628 1468 l 293 1547 l 174 1617 l 507 1538 l 628 1468 m 601 590 l 301 417 l 181 486 l 481 660 l 601 590 m 686 1208 q 601 1201 649 1229 l 301 1028 q 242 974 269 1010 q 197 898 214 939 q 181 819 181 857 l 181 -69 l 60 0 l 60 889 q 76 967 60 926 q 121 1044 93 1008 q 181 1097 149 1079 l 481 1271 q 565 1278 529 1299 l 686 1208 m 293 1547 l 225 1403 l 104 1472 l 174 1617 l 293 1547 z "},"Ā":{"ha":782,"x_min":60,"x_max":722,"o":"m 301 1028 l 601 1201 q 685 1208 649 1229 q 722 1132 722 1188 l 722 243 l 601 174 l 601 451 l 301 278 l 301 0 l 181 -69 l 181 819 q 197 898 181 857 q 242 974 214 939 q 301 1028 269 1010 m 601 590 l 601 1063 l 301 889 l 301 417 l 601 590 m 217 1299 l 638 1542 l 638 1403 l 217 1160 l 217 1299 m 601 451 l 601 174 l 481 243 l 481 521 l 601 451 m 601 1063 l 601 590 l 481 660 l 481 1132 l 601 1063 m 601 590 l 301 417 l 181 486 l 481 660 l 601 590 m 686 1208 q 601 1201 649 1229 l 301 1028 q 242 974 269 1010 q 197 898 214 939 q 181 819 181 857 l 181 -69 l 60 0 l 60 889 q 76 967 60 926 q 121 1044 93 1008 q 181 1097 149 1079 l 481 1271 q 565 1278 529 1299 l 686 1208 m 638 1542 l 217 1299 l 96 1368 l 517 1611 l 638 1542 m 217 1299 l 217 1160 l 96 1229 l 96 1368 l 217 1299 z "},"Ą":{"ha":782,"x_min":60,"x_max":722,"o":"m 601 174 l 601 35 l 722 104 l 722 -35 l 601 -104 q 517 -111 554 -132 q 481 -35 481 -90 q 498 44 481 3 q 542 120 515 85 q 601 174 569 156 l 601 451 l 301 278 l 301 0 l 181 -69 l 181 819 q 197 898 181 857 q 242 974 214 939 q 301 1028 269 1010 l 601 1201 q 685 1208 649 1229 q 722 1132 722 1188 l 722 243 l 601 174 m 601 590 l 601 1063 l 301 889 l 301 417 l 601 590 m 722 104 l 601 35 l 481 104 l 601 174 l 722 104 m 601 1063 l 601 590 l 481 660 l 481 1132 l 601 1063 m 601 451 l 601 174 l 481 243 l 481 521 l 601 451 m 601 174 q 542 120 569 156 q 498 44 515 85 q 481 -35 481 3 q 517 -111 481 -90 l 397 -42 q 361 35 361 -21 q 378 113 361 72 q 422 190 394 154 q 481 243 449 225 l 601 174 m 601 590 l 301 417 l 181 486 l 481 660 l 601 590 m 686 1208 q 601 1201 649 1229 l 301 1028 q 242 974 269 1010 q 197 898 214 939 q 181 819 181 857 l 181 -69 l 60 0 l 60 889 q 76 967 60 926 q 121 1044 93 1008 q 181 1097 149 1079 l 481 1271 q 565 1278 529 1299 l 686 1208 z "},"Å":{"ha":782,"x_min":60,"x_max":722,"o":"m 301 1028 l 601 1201 q 685 1208 649 1229 q 722 1132 722 1188 l 722 243 l 601 174 l 601 451 l 301 278 l 301 0 l 181 -69 l 181 819 q 197 898 181 857 q 242 974 214 939 q 301 1028 269 1010 m 601 590 l 601 1063 l 301 889 l 301 417 l 601 590 m 451 1496 q 537 1505 503 1525 q 571 1426 571 1485 q 537 1307 571 1367 q 451 1218 503 1247 q 365 1208 400 1188 q 331 1288 331 1228 q 365 1406 331 1346 q 451 1496 400 1465 m 451 1401 q 424 1372 436 1393 q 413 1333 413 1351 q 424 1309 413 1315 q 451 1311 436 1303 q 478 1340 467 1319 q 490 1379 490 1361 q 478 1403 490 1397 q 451 1401 467 1410 m 601 451 l 601 174 l 481 243 l 481 521 l 601 451 m 601 1063 l 601 590 l 481 660 l 481 1132 l 601 1063 m 601 590 l 301 417 l 181 486 l 481 660 l 601 590 m 686 1208 q 601 1201 649 1229 l 301 1028 q 242 974 269 1010 q 197 898 214 939 q 181 819 181 857 l 181 -69 l 60 0 l 60 889 q 76 967 60 926 q 121 1044 93 1008 q 181 1097 149 1079 l 481 1271 q 565 1278 529 1299 l 686 1208 m 478 1404 q 490 1379 490 1397 q 478 1340 490 1361 q 451 1311 467 1319 q 424 1308 436 1303 l 303 1378 q 331 1381 315 1372 q 358 1410 346 1389 q 369 1449 369 1431 q 358 1474 369 1467 l 478 1404 m 538 1506 q 451 1496 503 1525 q 365 1406 400 1465 q 331 1288 331 1346 q 365 1207 331 1228 l 244 1276 q 211 1357 211 1297 q 245 1475 211 1415 q 331 1565 279 1535 q 417 1575 382 1594 l 538 1506 z "},"Ã":{"ha":782,"x_min":44,"x_max":722,"o":"m 301 1028 l 601 1201 q 685 1208 649 1229 q 722 1132 722 1188 l 722 243 l 601 174 l 601 451 l 301 278 l 301 0 l 181 -69 l 181 819 q 197 898 181 857 q 242 974 214 939 q 301 1028 269 1010 m 601 590 l 601 1063 l 301 889 l 301 417 l 601 590 m 260 1158 l 165 1193 l 275 1414 q 345 1499 304 1475 q 433 1506 386 1522 l 528 1474 l 617 1654 l 713 1619 l 603 1399 q 533 1315 574 1339 q 444 1307 492 1292 l 350 1340 l 260 1158 m 601 451 l 601 174 l 481 243 l 481 521 l 601 451 m 601 1063 l 601 590 l 481 660 l 481 1132 l 601 1063 m 713 1619 l 617 1654 l 497 1724 l 592 1689 l 713 1619 m 617 1654 l 528 1474 l 407 1543 l 497 1724 l 617 1654 m 601 590 l 301 417 l 181 486 l 481 660 l 601 590 m 686 1208 q 601 1201 649 1229 l 301 1028 q 242 974 269 1010 q 197 898 214 939 q 181 819 181 857 l 181 -69 l 60 0 l 60 889 q 76 967 60 926 q 121 1044 93 1008 q 181 1097 149 1079 l 481 1271 q 565 1278 529 1299 l 686 1208 m 528 1474 l 433 1506 q 345 1499 386 1522 q 275 1414 304 1475 l 165 1193 l 44 1263 l 154 1483 q 225 1568 183 1544 q 313 1575 267 1592 l 407 1543 l 528 1474 z "},"B":{"ha":794,"x_min":60,"x_max":733,"o":"m 614 1208 q 697 1215 661 1236 q 733 1139 733 1194 l 733 944 q 717 867 733 908 q 673 790 700 825 q 614 736 646 754 q 697 743 661 764 q 733 667 733 722 l 733 389 q 717 310 733 351 q 673 234 700 269 q 614 181 646 199 l 421 69 q 338 63 374 42 q 301 139 301 83 l 301 0 l 181 -69 l 181 958 l 614 1208 m 614 736 l 614 1069 l 301 889 l 301 556 l 614 736 m 614 597 l 301 417 l 301 139 l 614 319 l 614 597 m 301 139 q 338 63 301 83 l 217 132 q 181 208 181 153 l 301 139 m 697 743 q 614 736 661 764 l 493 806 q 578 813 540 833 l 697 743 m 614 597 l 614 319 l 493 389 l 493 667 l 614 597 m 614 319 l 301 139 l 181 208 l 493 389 l 614 319 m 614 1069 l 614 736 l 493 806 l 493 1139 l 614 1069 m 614 736 l 301 556 l 181 625 l 493 806 l 614 736 m 697 1215 q 614 1208 661 1236 l 181 958 l 60 1028 l 493 1278 q 578 1285 540 1306 l 697 1215 m 181 958 l 181 -69 l 60 0 l 60 1028 l 181 958 z "},"C":{"ha":782,"x_min":60,"x_max":722,"o":"m 301 1028 l 601 1201 q 685 1208 649 1229 q 722 1132 722 1188 l 722 993 l 601 924 l 601 1063 l 301 889 l 301 83 l 601 257 l 601 396 l 722 465 l 722 326 q 705 249 722 290 q 660 172 688 207 q 601 118 633 136 l 301 -56 q 217 -62 253 -83 q 181 14 181 -42 l 181 819 q 197 898 181 857 q 242 974 214 939 q 301 1028 269 1010 m 722 465 l 601 396 l 481 465 l 601 535 l 722 465 m 601 396 l 601 257 l 481 326 l 481 465 l 601 396 m 601 257 l 301 83 l 181 153 l 481 326 l 601 257 m 601 1063 l 601 924 l 481 993 l 481 1132 l 601 1063 m 686 1208 q 601 1201 649 1229 l 301 1028 q 242 974 269 1010 q 197 898 214 939 q 181 819 181 857 l 181 14 q 217 -62 181 -42 l 96 7 q 60 83 60 28 l 60 889 q 76 967 60 926 q 121 1044 93 1008 q 181 1097 149 1079 l 481 1271 q 565 1278 529 1299 l 686 1208 z "},"Ć":{"ha":782,"x_min":60,"x_max":722,"o":"m 301 1028 l 601 1201 q 685 1208 649 1229 q 722 1132 722 1188 l 722 993 l 601 924 l 601 1063 l 301 889 l 301 83 l 601 257 l 601 396 l 722 465 l 722 326 q 705 249 722 290 q 660 172 688 207 q 601 118 633 136 l 301 -56 q 217 -62 253 -83 q 181 14 181 -42 l 181 819 q 197 898 181 857 q 242 974 214 939 q 301 1028 269 1010 m 264 1279 l 551 1629 l 615 1544 l 328 1194 l 264 1279 m 722 465 l 601 396 l 481 465 l 601 535 l 722 465 m 601 396 l 601 257 l 481 326 l 481 465 l 601 396 m 601 257 l 301 83 l 181 153 l 481 326 l 601 257 m 601 1063 l 601 924 l 481 993 l 481 1132 l 601 1063 m 686 1208 q 601 1201 649 1229 l 301 1028 q 242 974 269 1010 q 197 898 214 939 q 181 819 181 857 l 181 14 q 217 -62 181 -42 l 96 7 q 60 83 60 28 l 60 889 q 76 967 60 926 q 121 1044 93 1008 q 181 1097 149 1079 l 481 1271 q 565 1278 529 1299 l 686 1208 m 551 1629 l 264 1279 l 143 1349 l 431 1699 l 551 1629 m 264 1279 l 328 1194 l 207 1264 l 143 1349 l 264 1279 z "},"Č":{"ha":782,"x_min":60,"x_max":722,"o":"m 301 1028 l 601 1201 q 685 1208 649 1229 q 722 1132 722 1188 l 722 993 l 601 924 l 601 1063 l 301 889 l 301 83 l 601 257 l 601 396 l 722 465 l 722 326 q 705 249 722 290 q 660 172 688 207 q 601 118 633 136 l 301 -56 q 217 -62 253 -83 q 181 14 181 -42 l 181 819 q 197 898 181 857 q 242 974 214 939 q 301 1028 269 1010 m 485 1307 l 229 1344 l 292 1478 l 456 1442 l 621 1668 l 692 1588 l 485 1307 m 722 465 l 601 396 l 481 465 l 601 535 l 722 465 m 601 396 l 601 257 l 481 326 l 481 465 l 601 396 m 601 257 l 301 83 l 181 153 l 481 326 l 601 257 m 601 1063 l 601 924 l 481 993 l 481 1132 l 601 1063 m 621 1668 l 456 1442 l 336 1511 l 500 1738 l 621 1668 m 456 1442 l 292 1478 l 171 1547 l 336 1511 l 456 1442 m 686 1208 q 601 1201 649 1229 l 301 1028 q 242 974 269 1010 q 197 898 214 939 q 181 819 181 857 l 181 14 q 217 -62 181 -42 l 96 7 q 60 83 60 28 l 60 889 q 76 967 60 926 q 121 1044 93 1008 q 181 1097 149 1079 l 481 1271 q 565 1278 529 1299 l 686 1208 m 292 1478 l 229 1344 l 108 1414 l 171 1547 l 292 1478 z "},"Ç":{"ha":782,"x_min":60,"x_max":722,"o":"m 301 1028 l 601 1201 q 685 1208 649 1229 q 722 1132 722 1188 l 722 993 l 601 924 l 601 1063 l 301 889 l 301 83 l 601 257 l 601 396 l 722 465 l 722 326 q 705 249 722 290 q 660 172 688 207 q 601 118 633 136 l 301 -56 q 217 -62 253 -83 q 181 14 181 -42 l 181 819 q 197 898 181 857 q 242 974 214 939 q 301 1028 269 1010 m 457 35 q 542 42 506 63 q 578 -35 578 21 q 561 -112 578 -71 q 517 -190 544 -154 q 457 -243 489 -225 l 336 -312 l 336 -174 l 457 -104 l 457 35 m 722 465 l 601 396 l 481 465 l 601 535 l 722 465 m 601 396 l 601 257 l 481 326 l 481 465 l 601 396 m 601 1063 l 601 924 l 481 993 l 481 1132 l 601 1063 m 542 42 q 457 35 506 63 l 336 104 q 421 111 385 132 l 542 42 m 457 35 l 457 -104 l 336 -35 l 336 104 l 457 35 m 457 -104 l 336 -174 l 217 -104 l 336 -35 l 457 -104 m 336 -174 l 336 -312 l 217 -243 l 217 -104 l 336 -174 m 601 257 l 301 83 l 181 153 l 481 326 l 601 257 m 686 1208 q 601 1201 649 1229 l 301 1028 q 242 974 269 1010 q 197 898 214 939 q 181 819 181 857 l 181 14 q 217 -62 181 -42 l 96 7 q 60 83 60 28 l 60 889 q 76 967 60 926 q 121 1044 93 1008 q 181 1097 149 1079 l 481 1271 q 565 1278 529 1299 l 686 1208 z "},"Ĉ":{"ha":782,"x_min":60,"x_max":722,"o":"m 301 1028 l 601 1201 q 685 1208 649 1229 q 722 1132 722 1188 l 722 993 l 601 924 l 601 1063 l 301 889 l 301 83 l 601 257 l 601 396 l 722 465 l 722 326 q 705 249 722 290 q 660 172 688 207 q 601 118 633 136 l 301 -56 q 217 -62 253 -83 q 181 14 181 -42 l 181 819 q 197 898 181 857 q 242 974 214 939 q 301 1028 269 1010 m 468 1435 l 286 1185 l 219 1257 l 451 1574 l 682 1524 l 625 1399 l 468 1435 m 722 465 l 601 396 l 481 465 l 601 535 l 722 465 m 601 396 l 601 257 l 481 326 l 481 465 l 601 396 m 601 257 l 301 83 l 181 153 l 481 326 l 601 257 m 601 1063 l 601 924 l 481 993 l 481 1132 l 601 1063 m 682 1524 l 451 1574 l 331 1643 l 561 1593 l 682 1524 m 686 1208 q 601 1201 649 1229 l 301 1028 q 242 974 269 1010 q 197 898 214 939 q 181 819 181 857 l 181 14 q 217 -62 181 -42 l 96 7 q 60 83 60 28 l 60 889 q 76 967 60 926 q 121 1044 93 1008 q 181 1097 149 1079 l 481 1271 q 565 1278 529 1299 l 686 1208 m 451 1574 l 219 1257 l 100 1326 l 331 1643 l 451 1574 m 219 1257 l 286 1185 l 167 1254 l 100 1326 l 219 1257 z "},"Ċ":{"ha":782,"x_min":60,"x_max":722,"o":"m 301 1028 l 601 1201 q 685 1208 649 1229 q 722 1132 722 1188 l 722 993 l 601 924 l 601 1063 l 301 889 l 301 83 l 601 257 l 601 396 l 722 465 l 722 326 q 705 249 722 290 q 660 172 688 207 q 601 118 633 136 l 301 -56 q 217 -62 253 -83 q 181 14 181 -42 l 181 819 q 197 898 181 857 q 242 974 214 939 q 301 1028 269 1010 m 463 1275 q 403 1267 426 1253 q 379 1324 379 1281 q 403 1406 379 1365 q 463 1469 426 1447 q 524 1476 500 1490 q 547 1421 547 1463 q 524 1337 547 1378 q 463 1275 500 1296 m 722 465 l 601 396 l 481 465 l 601 535 l 722 465 m 601 396 l 601 257 l 481 326 l 481 465 l 601 396 m 601 257 l 301 83 l 181 153 l 481 326 l 601 257 m 601 1063 l 601 924 l 481 993 l 481 1132 l 601 1063 m 686 1208 q 601 1201 649 1229 l 301 1028 q 242 974 269 1010 q 197 898 214 939 q 181 819 181 857 l 181 14 q 217 -62 181 -42 l 96 7 q 60 83 60 28 l 60 889 q 76 967 60 926 q 121 1044 93 1008 q 181 1097 149 1079 l 481 1271 q 565 1278 529 1299 l 686 1208 m 524 1476 q 463 1469 500 1490 q 403 1406 426 1447 q 379 1324 379 1365 q 403 1267 379 1281 l 282 1336 q 258 1393 258 1350 q 282 1476 258 1435 q 343 1539 306 1517 q 403 1546 379 1560 l 524 1476 z "},"D":{"ha":794,"x_min":60,"x_max":733,"o":"m 614 1208 q 697 1215 661 1236 q 733 1139 733 1194 l 733 389 q 717 310 733 351 q 673 234 700 269 q 614 181 646 199 l 421 69 q 338 63 374 42 q 301 139 301 83 l 614 319 l 614 1069 l 301 889 l 301 0 l 181 -69 l 181 958 l 614 1208 m 614 1069 l 614 319 l 493 389 l 493 1139 l 614 1069 m 614 319 l 301 139 l 181 208 l 493 389 l 614 319 m 301 139 q 338 63 301 83 l 217 132 q 181 208 181 153 l 301 139 m 697 1215 q 614 1208 661 1236 l 181 958 l 60 1028 l 493 1278 q 578 1285 540 1306 l 697 1215 m 181 958 l 181 -69 l 60 0 l 60 1028 l 181 958 z "},"Ď":{"ha":794,"x_min":60,"x_max":733,"o":"m 614 1208 q 697 1215 661 1236 q 733 1139 733 1194 l 733 389 q 717 310 733 351 q 673 234 700 269 q 614 181 646 199 l 421 69 q 338 63 374 42 q 301 139 301 83 l 301 0 l 181 -69 l 181 958 l 614 1208 m 301 889 l 301 139 l 614 319 l 614 1069 l 301 889 m 472 1286 l 217 1324 l 279 1457 l 444 1421 l 608 1647 l 679 1567 l 472 1286 m 301 139 q 338 63 301 83 l 217 132 q 181 208 181 153 l 301 139 m 614 1069 l 614 319 l 493 389 l 493 1139 l 614 1069 m 614 319 l 301 139 l 181 208 l 493 389 l 614 319 m 608 1647 l 444 1421 l 324 1490 l 489 1717 l 608 1647 m 444 1421 l 279 1457 l 158 1526 l 324 1490 l 444 1421 m 697 1215 q 614 1208 661 1236 l 181 958 l 60 1028 l 493 1278 q 578 1285 540 1306 l 697 1215 m 181 958 l 181 -69 l 60 0 l 60 1028 l 181 958 m 279 1457 l 217 1324 l 96 1393 l 158 1526 l 279 1457 z "},"Đ":{"ha":854,"x_min":0,"x_max":794,"o":"m 121 451 l 240 521 l 240 993 l 674 1243 q 758 1250 721 1271 q 794 1174 794 1229 l 794 424 q 777 346 794 388 q 733 269 760 304 q 674 215 706 233 l 481 104 q 397 97 433 76 q 361 174 361 118 l 361 35 l 240 -35 l 240 382 l 121 313 l 121 451 m 361 590 l 481 660 l 481 521 l 361 451 l 361 174 l 674 354 l 674 1104 l 361 924 l 361 590 m 361 174 q 397 97 361 118 l 276 167 q 240 243 240 188 l 361 174 m 674 1104 l 674 354 l 553 424 l 553 1174 l 674 1104 m 674 354 l 361 174 l 240 243 l 553 424 l 674 354 m 757 1250 q 674 1243 721 1271 l 240 993 l 121 1063 l 553 1313 q 638 1319 601 1340 l 757 1250 m 240 521 l 121 451 l 0 521 l 121 590 l 240 521 m 240 382 l 240 -35 l 121 35 l 121 451 l 240 382 m 481 660 l 361 590 l 240 660 l 361 729 l 481 660 m 240 993 l 240 521 l 121 590 l 121 1063 l 240 993 m 121 451 l 121 313 l 0 382 l 0 521 l 121 451 z "},"E":{"ha":782,"x_min":60,"x_max":722,"o":"m 181 764 q 197 842 181 801 q 242 919 214 883 q 301 972 269 954 l 722 1215 l 722 1076 l 301 833 l 301 528 l 722 771 l 722 632 l 301 389 l 301 83 l 722 326 l 722 188 l 301 -56 q 217 -62 253 -83 q 181 14 181 -42 l 181 764 m 722 326 l 301 83 l 181 153 l 601 396 l 722 326 m 722 771 l 301 528 l 181 597 l 601 840 l 722 771 m 722 1215 l 301 972 q 242 919 269 954 q 197 842 214 883 q 181 764 181 801 l 181 14 q 217 -62 181 -42 l 96 7 q 60 83 60 28 l 60 833 q 76 912 60 871 q 121 988 93 953 q 181 1042 149 1024 l 601 1285 l 722 1215 z "},"É":{"ha":782,"x_min":60,"x_max":722,"o":"m 181 764 q 197 842 181 801 q 242 919 214 883 q 301 972 269 954 l 722 1215 l 722 1076 l 301 833 l 301 528 l 722 771 l 722 632 l 301 389 l 301 83 l 722 326 l 722 188 l 301 -56 q 217 -62 253 -83 q 181 14 181 -42 l 181 764 m 264 1224 l 551 1574 l 615 1489 l 328 1139 l 264 1224 m 722 326 l 301 83 l 181 153 l 601 396 l 722 326 m 722 771 l 301 528 l 181 597 l 601 840 l 722 771 m 722 1215 l 301 972 q 242 919 269 954 q 197 842 214 883 q 181 764 181 801 l 181 14 q 217 -62 181 -42 l 96 7 q 60 83 60 28 l 60 833 q 76 912 60 871 q 121 988 93 953 q 181 1042 149 1024 l 601 1285 l 722 1215 m 551 1574 l 264 1224 l 143 1293 l 431 1643 l 551 1574 m 264 1224 l 328 1139 l 207 1208 l 143 1293 l 264 1224 z "},"Ě":{"ha":782,"x_min":60,"x_max":722,"o":"m 181 764 q 197 842 181 801 q 242 919 214 883 q 301 972 269 954 l 722 1215 l 722 1076 l 301 833 l 301 528 l 722 771 l 722 632 l 301 389 l 301 83 l 722 326 l 722 188 l 301 -56 q 217 -62 253 -83 q 181 14 181 -42 l 181 764 m 479 1233 l 222 1271 l 285 1406 l 450 1369 l 614 1596 l 685 1514 l 479 1233 m 722 326 l 301 83 l 181 153 l 601 396 l 722 326 m 722 771 l 301 528 l 181 597 l 601 840 l 722 771 m 722 1215 l 301 972 q 242 919 269 954 q 197 842 214 883 q 181 764 181 801 l 181 14 q 217 -62 181 -42 l 96 7 q 60 83 60 28 l 60 833 q 76 912 60 871 q 121 988 93 953 q 181 1042 149 1024 l 601 1285 l 722 1215 m 614 1596 l 450 1369 l 329 1439 l 494 1665 l 614 1596 m 450 1369 l 285 1406 l 165 1475 l 329 1439 l 450 1369 m 285 1406 l 222 1271 l 103 1340 l 165 1475 l 285 1406 z "},"Ê":{"ha":782,"x_min":60,"x_max":722,"o":"m 181 764 q 197 842 181 801 q 242 919 214 883 q 301 972 269 954 l 722 1215 l 722 1076 l 301 833 l 301 528 l 722 771 l 722 632 l 301 389 l 301 83 l 722 326 l 722 188 l 301 -56 q 217 -62 253 -83 q 181 14 181 -42 l 181 764 m 481 1386 l 299 1136 l 232 1208 l 463 1525 l 694 1475 l 636 1350 l 481 1386 m 722 326 l 301 83 l 181 153 l 601 396 l 722 326 m 694 1475 l 463 1525 l 343 1594 l 574 1544 l 694 1475 m 722 771 l 301 528 l 181 597 l 601 840 l 722 771 m 722 1215 l 301 972 q 242 919 269 954 q 197 842 214 883 q 181 764 181 801 l 181 14 q 217 -62 181 -42 l 96 7 q 60 83 60 28 l 60 833 q 76 912 60 871 q 121 988 93 953 q 181 1042 149 1024 l 601 1285 l 722 1215 m 463 1525 l 232 1208 l 113 1278 l 343 1594 l 463 1525 m 232 1208 l 299 1136 l 178 1206 l 113 1278 l 232 1208 z "},"Ë":{"ha":782,"x_min":60,"x_max":722,"o":"m 181 764 q 197 842 181 801 q 242 919 214 883 q 301 972 269 954 l 722 1215 l 722 1076 l 301 833 l 301 528 l 722 771 l 722 632 l 301 389 l 301 83 l 722 326 l 722 188 l 301 -56 q 217 -62 253 -83 q 181 14 181 -42 l 181 764 m 301 1125 q 240 1118 264 1104 q 217 1174 217 1132 q 240 1257 217 1215 q 301 1319 264 1299 q 361 1326 338 1340 q 385 1271 385 1313 q 361 1188 385 1229 q 301 1125 338 1146 m 601 1299 q 541 1292 565 1278 q 517 1347 517 1306 q 541 1431 517 1389 q 601 1493 565 1472 q 662 1500 638 1514 q 686 1444 686 1486 q 662 1361 686 1403 q 601 1299 638 1319 m 722 326 l 301 83 l 181 153 l 601 396 l 722 326 m 722 771 l 301 528 l 181 597 l 601 840 l 722 771 m 722 1215 l 301 972 q 242 919 269 954 q 197 842 214 883 q 181 764 181 801 l 181 14 q 217 -62 181 -42 l 96 7 q 60 83 60 28 l 60 833 q 76 912 60 871 q 121 988 93 953 q 181 1042 149 1024 l 601 1285 l 722 1215 m 361 1326 q 301 1319 338 1340 q 240 1257 264 1299 q 217 1174 217 1215 q 240 1118 217 1132 l 119 1188 q 96 1243 96 1201 q 120 1326 96 1285 q 181 1389 144 1368 q 240 1396 217 1410 l 361 1326 m 663 1500 q 601 1493 638 1514 q 541 1431 565 1472 q 517 1347 517 1389 q 542 1292 517 1306 l 421 1361 q 397 1417 397 1375 q 421 1500 397 1458 q 481 1563 444 1542 q 542 1569 518 1583 l 663 1500 z "},"Ė":{"ha":782,"x_min":60,"x_max":722,"o":"m 181 764 q 197 842 181 801 q 242 919 214 883 q 301 972 269 954 l 722 1215 l 722 1076 l 301 833 l 301 528 l 722 771 l 722 632 l 301 389 l 301 83 l 722 326 l 722 188 l 301 -56 q 217 -62 253 -83 q 181 14 181 -42 l 181 764 m 463 1219 q 403 1211 426 1197 q 379 1268 379 1225 q 403 1351 379 1310 q 463 1414 426 1392 q 524 1421 500 1435 q 547 1365 547 1407 q 524 1281 547 1322 q 463 1219 500 1240 m 722 326 l 301 83 l 181 153 l 601 396 l 722 326 m 722 771 l 301 528 l 181 597 l 601 840 l 722 771 m 722 1215 l 301 972 q 242 919 269 954 q 197 842 214 883 q 181 764 181 801 l 181 14 q 217 -62 181 -42 l 96 7 q 60 83 60 28 l 60 833 q 76 912 60 871 q 121 988 93 953 q 181 1042 149 1024 l 601 1285 l 722 1215 m 524 1421 q 463 1414 500 1435 q 403 1351 426 1392 q 379 1268 379 1310 q 403 1211 379 1225 l 282 1281 q 258 1338 258 1294 q 282 1420 258 1379 q 343 1483 306 1461 q 403 1490 379 1504 l 524 1421 z "},"È":{"ha":782,"x_min":60,"x_max":722,"o":"m 181 764 q 197 842 181 801 q 242 919 214 883 q 301 972 269 954 l 722 1215 l 722 1076 l 301 833 l 301 528 l 722 771 l 722 632 l 301 389 l 301 83 l 722 326 l 722 188 l 301 -56 q 217 -62 253 -83 q 181 14 181 -42 l 181 764 m 293 1492 l 628 1413 l 560 1269 l 225 1347 l 293 1492 m 722 326 l 301 83 l 181 153 l 601 396 l 722 326 m 628 1413 l 293 1492 l 174 1561 l 507 1482 l 628 1413 m 722 771 l 301 528 l 181 597 l 601 840 l 722 771 m 722 1215 l 301 972 q 242 919 269 954 q 197 842 214 883 q 181 764 181 801 l 181 14 q 217 -62 181 -42 l 96 7 q 60 83 60 28 l 60 833 q 76 912 60 871 q 121 988 93 953 q 181 1042 149 1024 l 601 1285 l 722 1215 m 293 1492 l 225 1347 l 104 1417 l 174 1561 l 293 1492 z "},"Ē":{"ha":782,"x_min":60,"x_max":722,"o":"m 181 764 q 197 842 181 801 q 242 919 214 883 q 301 972 269 954 l 722 1215 l 722 1076 l 301 833 l 301 528 l 722 771 l 722 632 l 301 389 l 301 83 l 722 326 l 722 188 l 301 -56 q 217 -62 253 -83 q 181 14 181 -42 l 181 764 m 217 1243 l 638 1486 l 638 1347 l 217 1104 l 217 1243 m 722 326 l 301 83 l 181 153 l 601 396 l 722 326 m 722 771 l 301 528 l 181 597 l 601 840 l 722 771 m 722 1215 l 301 972 q 242 919 269 954 q 197 842 214 883 q 181 764 181 801 l 181 14 q 217 -62 181 -42 l 96 7 q 60 83 60 28 l 60 833 q 76 912 60 871 q 121 988 93 953 q 181 1042 149 1024 l 601 1285 l 722 1215 m 638 1486 l 217 1243 l 96 1313 l 517 1556 l 638 1486 m 217 1243 l 217 1104 l 96 1174 l 96 1313 l 217 1243 z "},"Ŋ":{"ha":963,"x_min":60,"x_max":903,"o":"m 782 278 l 601 174 q 517 167 554 146 q 481 243 481 188 l 481 938 l 301 833 l 301 0 l 181 -69 l 181 903 l 481 1076 q 565 1083 529 1104 q 601 1007 601 1063 l 601 313 l 782 417 l 782 1250 l 903 1319 l 903 208 q 885 131 903 172 q 841 53 868 89 q 782 0 814 18 l 661 -69 l 661 69 l 782 139 l 782 278 m 782 278 l 782 139 l 661 208 l 661 347 l 782 278 m 782 139 l 661 69 l 542 139 l 661 208 l 782 139 m 661 69 l 661 -69 l 542 0 l 542 139 l 661 69 m 903 1319 l 782 1250 l 661 1319 l 782 1389 l 903 1319 m 782 1250 l 782 417 l 661 486 l 661 1319 l 782 1250 m 782 417 l 601 313 l 481 382 l 661 486 l 782 417 m 481 938 l 481 243 q 517 167 481 188 l 397 236 q 361 313 361 257 l 361 1007 l 481 938 m 565 1083 q 481 1076 529 1104 l 181 903 l 60 972 l 361 1146 q 444 1153 408 1174 l 565 1083 m 181 903 l 181 -69 l 60 0 l 60 972 l 181 903 z "},"Ę":{"ha":782,"x_min":60,"x_max":722,"o":"m 601 118 l 601 -21 l 722 49 l 722 -90 l 601 -160 q 517 -167 554 -187 q 481 -90 481 -146 q 498 -12 481 -53 q 542 65 515 29 q 601 118 569 100 l 301 -56 q 217 -62 253 -83 q 181 14 181 -42 l 181 764 q 197 842 181 801 q 242 919 214 883 q 301 972 269 954 l 722 1215 l 722 1076 l 301 833 l 301 528 l 722 771 l 722 632 l 301 389 l 301 83 l 722 326 l 722 188 l 601 118 m 722 49 l 601 -21 l 481 49 l 601 118 l 722 49 m 601 118 q 542 65 569 100 q 498 -12 515 29 q 481 -90 481 -53 q 517 -167 481 -146 l 397 -97 q 361 -21 361 -76 q 378 57 361 15 q 422 134 394 99 q 481 188 449 169 l 601 118 m 722 326 l 301 83 l 181 153 l 601 396 l 722 326 m 722 771 l 301 528 l 181 597 l 601 840 l 722 771 m 722 1215 l 301 972 q 242 919 269 954 q 197 842 214 883 q 181 764 181 801 l 181 14 q 217 -62 181 -42 l 96 7 q 60 83 60 28 l 60 833 q 76 912 60 871 q 121 988 93 953 q 181 1042 149 1024 l 601 1285 l 722 1215 z "},"Ð":{"ha":854,"x_min":0,"x_max":794,"o":"m 121 451 l 240 521 l 240 993 l 674 1243 q 758 1250 721 1271 q 794 1174 794 1229 l 794 424 q 777 346 794 388 q 733 269 760 304 q 674 215 706 233 l 481 104 q 397 97 433 76 q 361 174 361 118 l 361 35 l 240 -35 l 240 382 l 121 313 l 121 451 m 361 590 l 481 660 l 481 521 l 361 451 l 361 174 l 674 354 l 674 1104 l 361 924 l 361 590 m 361 174 q 397 97 361 118 l 276 167 q 240 243 240 188 l 361 174 m 674 1104 l 674 354 l 553 424 l 553 1174 l 674 1104 m 674 354 l 361 174 l 240 243 l 553 424 l 674 354 m 757 1250 q 674 1243 721 1271 l 240 993 l 121 1063 l 553 1313 q 638 1319 601 1340 l 757 1250 m 240 521 l 121 451 l 0 521 l 121 590 l 240 521 m 240 382 l 240 -35 l 121 35 l 121 451 l 240 382 m 481 660 l 361 590 l 240 660 l 361 729 l 481 660 m 240 993 l 240 521 l 121 590 l 121 1063 l 240 993 m 121 451 l 121 313 l 0 382 l 0 521 l 121 451 z "},"€":{"ha":938,"x_min":0,"x_max":878,"o":"m 361 868 l 758 1097 q 842 1104 806 1125 q 878 1028 878 1083 l 878 889 l 758 819 l 758 958 l 361 729 l 361 563 l 614 708 l 614 569 l 361 424 l 361 368 l 614 514 l 614 375 l 361 229 l 361 63 l 758 292 l 758 431 l 878 500 l 878 361 q 861 283 878 325 q 817 206 844 242 q 758 153 790 171 l 361 -76 q 276 -83 313 -104 q 240 -7 240 -62 l 240 160 l 121 90 l 121 229 l 240 299 l 240 354 l 121 285 l 121 424 l 240 493 l 240 660 q 257 738 240 697 q 301 815 274 779 q 361 868 329 850 m 878 500 l 758 431 l 638 500 l 758 569 l 878 500 m 758 431 l 758 292 l 638 361 l 638 500 l 758 431 m 758 292 l 361 63 l 240 132 l 638 361 l 758 292 m 758 958 l 758 819 l 638 889 l 638 1028 l 758 958 m 240 354 l 240 299 l 121 368 l 121 424 l 240 354 m 240 299 l 121 229 l 0 299 l 121 368 l 240 299 m 240 160 l 240 -7 q 276 -83 240 -62 l 157 -14 q 121 63 121 7 l 121 229 l 240 160 m 614 514 l 361 368 l 240 438 l 493 583 l 614 514 m 240 493 l 121 424 l 0 493 l 121 563 l 240 493 m 121 424 l 121 285 l 0 354 l 0 493 l 121 424 m 121 229 l 121 90 l 0 160 l 0 299 l 121 229 m 614 708 l 361 563 l 240 632 l 493 778 l 614 708 m 842 1104 q 758 1097 806 1125 l 361 868 q 301 815 329 850 q 257 738 274 779 q 240 660 240 697 l 240 493 l 121 563 l 121 729 q 138 808 121 767 q 181 884 154 849 q 240 938 208 919 l 638 1167 q 722 1174 685 1194 l 842 1104 z "},"G":{"ha":782,"x_min":60,"x_max":722,"o":"m 301 1028 l 601 1201 q 685 1208 649 1229 q 722 1132 722 1188 l 722 993 l 601 924 l 601 1063 l 301 889 l 301 83 l 601 257 l 601 590 l 421 486 l 421 625 l 722 799 l 722 188 l 601 118 l 601 257 q 585 179 601 221 q 540 102 568 138 q 481 49 513 67 l 301 -56 q 217 -62 253 -83 q 181 14 181 -42 l 181 819 q 197 898 181 857 q 242 974 214 939 q 301 1028 269 1010 m 601 257 l 601 118 l 481 188 l 481 326 l 601 257 m 601 590 l 601 257 l 481 326 l 481 660 l 601 590 m 601 1063 l 601 924 l 481 993 l 481 1132 l 601 1063 m 722 799 l 421 625 l 301 694 l 601 868 l 722 799 m 421 625 l 421 486 l 301 556 l 301 694 l 421 625 m 601 257 l 301 83 l 181 153 l 481 326 l 601 257 m 686 1208 q 601 1201 649 1229 l 301 1028 q 242 974 269 1010 q 197 898 214 939 q 181 819 181 857 l 181 14 q 217 -62 181 -42 l 96 7 q 60 83 60 28 l 60 889 q 76 967 60 926 q 121 1044 93 1008 q 181 1097 149 1079 l 481 1271 q 565 1278 529 1299 l 686 1208 z "},"Ğ":{"ha":782,"x_min":60,"x_max":722,"o":"m 301 1028 l 601 1201 q 685 1208 649 1229 q 722 1132 722 1188 l 722 993 l 601 924 l 601 1063 l 301 889 l 301 83 l 601 257 l 601 590 l 421 486 l 421 625 l 722 799 l 722 188 l 601 118 l 601 257 q 585 179 601 221 q 540 102 568 138 q 481 49 513 67 l 301 -56 q 217 -62 253 -83 q 181 14 181 -42 l 181 819 q 197 898 181 857 q 242 974 214 939 q 301 1028 269 1010 m 451 1268 q 333 1238 388 1231 q 244 1289 278 1244 q 211 1407 211 1333 l 331 1476 q 367 1400 331 1421 q 451 1407 403 1379 q 510 1460 483 1425 q 554 1536 538 1494 q 571 1615 571 1578 l 692 1685 q 672 1568 692 1629 q 619 1449 653 1507 q 542 1342 586 1390 q 451 1268 499 1294 m 601 257 l 601 118 l 481 188 l 481 326 l 601 257 m 601 590 l 601 257 l 481 326 l 481 660 l 601 590 m 601 1063 l 601 924 l 481 993 l 481 1132 l 601 1063 m 692 1685 l 571 1615 l 451 1685 l 571 1754 l 692 1685 m 571 1615 q 554 1536 571 1578 q 510 1460 538 1494 q 451 1407 483 1425 q 367 1400 403 1379 l 247 1469 q 331 1476 283 1449 q 390 1529 363 1494 q 435 1606 418 1564 q 451 1685 451 1647 l 571 1615 m 722 799 l 421 625 l 301 694 l 601 868 l 722 799 m 421 625 l 421 486 l 301 556 l 301 694 l 421 625 m 601 257 l 301 83 l 181 153 l 481 326 l 601 257 m 686 1208 q 601 1201 649 1229 l 301 1028 q 242 974 269 1010 q 197 898 214 939 q 181 819 181 857 l 181 14 q 217 -62 181 -42 l 96 7 q 60 83 60 28 l 60 889 q 76 967 60 926 q 121 1044 93 1008 q 181 1097 149 1079 l 481 1271 q 565 1278 529 1299 l 686 1208 m 331 1476 l 211 1407 l 90 1476 l 211 1546 l 331 1476 m 211 1407 q 231 1313 211 1351 q 283 1254 250 1274 l 163 1324 q 110 1382 129 1343 q 90 1476 90 1421 l 211 1407 z "},"Ǧ":{"ha":782,"x_min":60,"x_max":722,"o":"m 301 1028 l 601 1201 q 685 1208 649 1229 q 722 1132 722 1188 l 722 993 l 601 924 l 601 1063 l 301 889 l 301 83 l 601 257 l 601 590 l 421 486 l 421 625 l 722 799 l 722 188 l 601 118 l 601 257 q 585 179 601 221 q 540 102 568 138 q 481 49 513 67 l 301 -56 q 217 -62 253 -83 q 181 14 181 -42 l 181 819 q 197 898 181 857 q 242 974 214 939 q 301 1028 269 1010 m 485 1293 l 229 1331 l 292 1464 l 456 1428 l 621 1654 l 692 1574 l 485 1293 m 601 257 l 601 118 l 481 188 l 481 326 l 601 257 m 601 590 l 601 257 l 481 326 l 481 660 l 601 590 m 601 1063 l 601 924 l 481 993 l 481 1132 l 601 1063 m 621 1654 l 456 1428 l 336 1497 l 500 1724 l 621 1654 m 456 1428 l 292 1464 l 171 1533 l 336 1497 l 456 1428 m 722 799 l 421 625 l 301 694 l 601 868 l 722 799 m 421 625 l 421 486 l 301 556 l 301 694 l 421 625 m 601 257 l 301 83 l 181 153 l 481 326 l 601 257 m 686 1208 q 601 1201 649 1229 l 301 1028 q 242 974 269 1010 q 197 898 214 939 q 181 819 181 857 l 181 14 q 217 -62 181 -42 l 96 7 q 60 83 60 28 l 60 889 q 76 967 60 926 q 121 1044 93 1008 q 181 1097 149 1079 l 481 1271 q 565 1278 529 1299 l 686 1208 m 292 1464 l 229 1331 l 108 1400 l 171 1533 l 292 1464 z "},"Ĝ":{"ha":782,"x_min":60,"x_max":722,"o":"m 301 1028 l 601 1201 q 685 1208 649 1229 q 722 1132 722 1188 l 722 993 l 601 924 l 601 1063 l 301 889 l 301 83 l 601 257 l 601 590 l 421 486 l 421 625 l 722 799 l 722 188 l 601 118 l 601 257 q 585 179 601 221 q 540 102 568 138 q 481 49 513 67 l 301 -56 q 217 -62 253 -83 q 181 14 181 -42 l 181 819 q 197 898 181 857 q 242 974 214 939 q 301 1028 269 1010 m 468 1435 l 286 1185 l 219 1257 l 451 1574 l 682 1524 l 625 1399 l 468 1435 m 601 257 l 601 118 l 481 188 l 481 326 l 601 257 m 601 590 l 601 257 l 481 326 l 481 660 l 601 590 m 601 1063 l 601 924 l 481 993 l 481 1132 l 601 1063 m 682 1524 l 451 1574 l 331 1643 l 561 1593 l 682 1524 m 722 799 l 421 625 l 301 694 l 601 868 l 722 799 m 421 625 l 421 486 l 301 556 l 301 694 l 421 625 m 601 257 l 301 83 l 181 153 l 481 326 l 601 257 m 686 1208 q 601 1201 649 1229 l 301 1028 q 242 974 269 1010 q 197 898 214 939 q 181 819 181 857 l 181 14 q 217 -62 181 -42 l 96 7 q 60 83 60 28 l 60 889 q 76 967 60 926 q 121 1044 93 1008 q 181 1097 149 1079 l 481 1271 q 565 1278 529 1299 l 686 1208 m 451 1574 l 219 1257 l 100 1326 l 331 1643 l 451 1574 m 219 1257 l 286 1185 l 167 1254 l 100 1326 l 219 1257 z "},"Ġ":{"ha":782,"x_min":60,"x_max":722,"o":"m 301 1028 l 601 1201 q 685 1208 649 1229 q 722 1132 722 1188 l 722 993 l 601 924 l 601 1063 l 301 889 l 301 83 l 601 257 l 601 590 l 421 486 l 421 625 l 722 799 l 722 188 l 601 118 l 601 257 q 585 179 601 221 q 540 102 568 138 q 481 49 513 67 l 301 -56 q 217 -62 253 -83 q 181 14 181 -42 l 181 819 q 197 898 181 857 q 242 974 214 939 q 301 1028 269 1010 m 463 1275 q 403 1267 426 1253 q 379 1324 379 1281 q 403 1406 379 1365 q 463 1469 426 1447 q 524 1476 500 1490 q 547 1421 547 1463 q 524 1337 547 1378 q 463 1275 500 1296 m 601 257 l 601 118 l 481 188 l 481 326 l 601 257 m 601 590 l 601 257 l 481 326 l 481 660 l 601 590 m 601 1063 l 601 924 l 481 993 l 481 1132 l 601 1063 m 722 799 l 421 625 l 301 694 l 601 868 l 722 799 m 421 625 l 421 486 l 301 556 l 301 694 l 421 625 m 601 257 l 301 83 l 181 153 l 481 326 l 601 257 m 686 1208 q 601 1201 649 1229 l 301 1028 q 242 974 269 1010 q 197 898 214 939 q 181 819 181 857 l 181 14 q 217 -62 181 -42 l 96 7 q 60 83 60 28 l 60 889 q 76 967 60 926 q 121 1044 93 1008 q 181 1097 149 1079 l 481 1271 q 565 1278 529 1299 l 686 1208 m 524 1476 q 463 1469 500 1490 q 403 1406 426 1447 q 379 1324 379 1365 q 403 1267 379 1281 l 282 1336 q 258 1393 258 1350 q 282 1476 258 1435 q 343 1539 306 1517 q 403 1546 379 1560 l 524 1476 z "},"H":{"ha":782,"x_min":60,"x_max":722,"o":"m 301 972 l 301 556 l 601 729 l 601 1146 l 722 1215 l 722 243 l 601 174 l 601 590 l 301 417 l 301 0 l 181 -69 l 181 903 l 301 972 m 601 590 l 601 174 l 481 243 l 481 660 l 601 590 m 722 1215 l 601 1146 l 481 1215 l 601 1285 l 722 1215 m 601 1146 l 601 729 l 481 799 l 481 1215 l 601 1146 m 601 729 l 301 556 l 181 625 l 481 799 l 601 729 m 301 972 l 181 903 l 60 972 l 181 1042 l 301 972 m 181 903 l 181 -69 l 60 0 l 60 972 l 181 903 z "},"Ħ":{"ha":903,"x_min":0,"x_max":903,"o":"m 121 771 l 240 840 l 240 938 l 361 1007 l 361 910 l 661 1083 l 661 1181 l 782 1250 l 782 1153 l 903 1222 l 903 1083 l 782 1014 l 782 278 l 661 208 l 661 625 l 361 451 l 361 35 l 240 -35 l 240 701 l 121 632 l 121 771 m 661 764 l 661 944 l 361 771 l 361 590 l 661 764 m 661 625 l 661 208 l 542 278 l 542 694 l 661 625 m 903 1222 l 782 1153 l 661 1222 l 782 1292 l 903 1222 m 661 1181 l 661 1083 l 542 1153 l 542 1250 l 661 1181 m 661 944 l 661 764 l 542 833 l 542 1014 l 661 944 m 782 1250 l 661 1181 l 542 1250 l 661 1319 l 782 1250 m 661 764 l 361 590 l 240 660 l 542 833 l 661 764 m 240 938 l 240 840 l 121 910 l 121 1007 l 240 938 m 240 840 l 121 771 l 0 840 l 121 910 l 240 840 m 240 701 l 240 -35 l 121 35 l 121 771 l 240 701 m 661 1083 l 361 910 l 240 979 l 542 1153 l 661 1083 m 361 1007 l 240 938 l 121 1007 l 240 1076 l 361 1007 m 121 771 l 121 632 l 0 701 l 0 840 l 121 771 z "},"Ĥ":{"ha":782,"x_min":60,"x_max":722,"o":"m 301 972 l 301 556 l 601 729 l 601 1146 l 722 1215 l 722 243 l 601 174 l 601 590 l 301 417 l 301 0 l 181 -69 l 181 903 l 301 972 m 468 1379 l 286 1129 l 219 1201 l 451 1518 l 682 1468 l 625 1343 l 468 1379 m 601 590 l 601 174 l 481 243 l 481 660 l 601 590 m 722 1215 l 601 1146 l 481 1215 l 601 1285 l 722 1215 m 601 1146 l 601 729 l 481 799 l 481 1215 l 601 1146 m 682 1468 l 451 1518 l 331 1588 l 561 1538 l 682 1468 m 601 729 l 301 556 l 181 625 l 481 799 l 601 729 m 451 1518 l 219 1201 l 100 1271 l 331 1588 l 451 1518 m 219 1201 l 286 1129 l 167 1199 l 100 1271 l 219 1201 m 301 972 l 181 903 l 60 972 l 181 1042 l 301 972 m 181 903 l 181 -69 l 60 0 l 60 972 l 181 903 z "},"I":{"ha":794,"x_min":60,"x_max":733,"o":"m 397 194 l 397 889 l 181 764 l 181 903 l 733 1222 l 733 1083 l 517 958 l 517 264 l 733 389 l 733 250 l 181 -69 l 181 69 l 397 194 m 397 194 l 181 69 l 60 139 l 276 264 l 397 194 m 181 69 l 181 -69 l 60 0 l 60 139 l 181 69 m 733 389 l 517 264 l 397 333 l 614 458 l 733 389 m 397 889 l 397 194 l 276 264 l 276 958 l 397 889 m 733 1222 l 181 903 l 60 972 l 614 1292 l 733 1222 m 181 903 l 181 764 l 60 833 l 60 972 l 181 903 z "},"Ĳ":{"ha":782,"x_min":60,"x_max":722,"o":"m 421 1042 l 722 1215 l 722 326 q 705 249 722 290 q 660 172 688 207 q 601 118 633 136 l 301 -56 q 217 -62 253 -83 q 181 14 181 -42 l 181 208 l 301 278 l 301 83 l 601 257 l 601 1146 q 585 1068 601 1110 q 540 991 568 1026 q 481 938 513 956 l 421 903 l 421 1042 m 181 903 l 301 972 l 301 417 l 181 347 l 181 903 m 601 1146 l 601 257 l 481 326 l 481 1215 l 601 1146 m 601 257 l 301 83 l 181 153 l 481 326 l 601 257 m 722 1215 l 421 1042 l 301 1111 l 601 1285 l 722 1215 m 421 1042 l 421 903 l 301 972 l 301 1111 l 421 1042 m 301 278 l 181 208 l 60 278 l 181 347 l 301 278 m 181 208 l 181 14 q 217 -62 181 -42 l 96 7 q 60 83 60 28 l 60 278 l 181 208 m 301 972 l 181 903 l 60 972 l 181 1042 l 301 972 m 181 903 l 181 347 l 60 417 l 60 972 l 181 903 z "},"Í":{"ha":794,"x_min":60,"x_max":733,"o":"m 397 194 l 397 889 l 181 764 l 181 903 l 733 1222 l 733 1083 l 517 958 l 517 264 l 733 389 l 733 250 l 181 -69 l 181 69 l 397 194 m 275 1231 l 563 1581 l 626 1496 l 339 1146 l 275 1231 m 397 194 l 181 69 l 60 139 l 276 264 l 397 194 m 181 69 l 181 -69 l 60 0 l 60 139 l 181 69 m 733 389 l 517 264 l 397 333 l 614 458 l 733 389 m 397 889 l 397 194 l 276 264 l 276 958 l 397 889 m 733 1222 l 181 903 l 60 972 l 614 1292 l 733 1222 m 181 903 l 181 764 l 60 833 l 60 972 l 181 903 m 563 1581 l 275 1231 l 156 1300 l 443 1650 l 563 1581 m 275 1231 l 339 1146 l 219 1215 l 156 1300 l 275 1231 z "},"Î":{"ha":794,"x_min":60,"x_max":733,"o":"m 397 194 l 397 889 l 181 764 l 181 903 l 733 1222 l 733 1083 l 517 958 l 517 264 l 733 389 l 733 250 l 181 -69 l 181 69 l 397 194 m 475 1382 l 292 1133 l 226 1204 l 457 1521 l 688 1471 l 631 1346 l 475 1382 m 397 194 l 181 69 l 60 139 l 276 264 l 397 194 m 181 69 l 181 -69 l 60 0 l 60 139 l 181 69 m 733 389 l 517 264 l 397 333 l 614 458 l 733 389 m 688 1471 l 457 1521 l 336 1590 l 568 1540 l 688 1471 m 397 889 l 397 194 l 276 264 l 276 958 l 397 889 m 733 1222 l 181 903 l 60 972 l 614 1292 l 733 1222 m 181 903 l 181 764 l 60 833 l 60 972 l 181 903 m 457 1521 l 226 1204 l 106 1274 l 336 1590 l 457 1521 m 226 1204 l 292 1133 l 172 1203 l 106 1274 l 226 1204 z "},"Ï":{"ha":794,"x_min":60,"x_max":733,"o":"m 397 194 l 397 889 l 181 764 l 181 903 l 733 1222 l 733 1083 l 517 958 l 517 264 l 733 389 l 733 250 l 181 -69 l 181 69 l 397 194 m 301 1125 q 240 1118 264 1104 q 217 1174 217 1132 q 240 1257 217 1215 q 301 1319 264 1299 q 361 1326 338 1340 q 385 1271 385 1313 q 361 1188 385 1229 q 301 1125 338 1146 m 601 1299 q 541 1292 565 1278 q 517 1347 517 1306 q 541 1431 517 1389 q 601 1493 565 1472 q 662 1500 638 1514 q 686 1444 686 1486 q 662 1361 686 1403 q 601 1299 638 1319 m 397 194 l 181 69 l 60 139 l 276 264 l 397 194 m 181 69 l 181 -69 l 60 0 l 60 139 l 181 69 m 733 389 l 517 264 l 397 333 l 614 458 l 733 389 m 397 889 l 397 194 l 276 264 l 276 958 l 397 889 m 733 1222 l 181 903 l 60 972 l 614 1292 l 733 1222 m 181 903 l 181 764 l 60 833 l 60 972 l 181 903 m 361 1326 q 301 1319 338 1340 q 240 1257 264 1299 q 217 1174 217 1215 q 240 1118 217 1132 l 119 1188 q 96 1243 96 1201 q 120 1326 96 1285 q 181 1389 144 1368 q 240 1396 217 1410 l 361 1326 m 663 1500 q 601 1493 638 1514 q 541 1431 565 1472 q 517 1347 517 1389 q 542 1292 517 1306 l 421 1361 q 397 1417 397 1375 q 421 1500 397 1458 q 481 1563 444 1542 q 542 1569 518 1583 l 663 1500 z "},"İ":{"ha":794,"x_min":60,"x_max":733,"o":"m 397 194 l 397 889 l 181 764 l 181 903 l 733 1222 l 733 1083 l 517 958 l 517 264 l 733 389 l 733 250 l 181 -69 l 181 69 l 397 194 m 457 1215 q 397 1208 421 1194 q 372 1264 372 1222 q 397 1347 372 1306 q 457 1410 421 1389 q 517 1417 493 1431 q 542 1361 542 1403 q 517 1278 542 1319 q 457 1215 493 1236 m 397 194 l 181 69 l 60 139 l 276 264 l 397 194 m 181 69 l 181 -69 l 60 0 l 60 139 l 181 69 m 733 389 l 517 264 l 397 333 l 614 458 l 733 389 m 397 889 l 397 194 l 276 264 l 276 958 l 397 889 m 733 1222 l 181 903 l 60 972 l 614 1292 l 733 1222 m 181 903 l 181 764 l 60 833 l 60 972 l 181 903 m 518 1417 q 457 1410 493 1431 q 397 1347 421 1389 q 372 1264 372 1306 q 397 1208 372 1222 l 276 1278 q 253 1333 253 1292 q 276 1417 253 1375 q 336 1479 300 1458 q 397 1486 374 1500 l 518 1417 z "},"Ì":{"ha":794,"x_min":60,"x_max":733,"o":"m 397 194 l 397 889 l 181 764 l 181 903 l 733 1222 l 733 1083 l 517 958 l 517 264 l 733 389 l 733 250 l 181 -69 l 181 69 l 397 194 m 299 1494 l 633 1415 l 564 1272 l 229 1350 l 299 1494 m 397 194 l 181 69 l 60 139 l 276 264 l 397 194 m 181 69 l 181 -69 l 60 0 l 60 139 l 181 69 m 733 389 l 517 264 l 397 333 l 614 458 l 733 389 m 633 1415 l 299 1494 l 178 1564 l 513 1485 l 633 1415 m 397 889 l 397 194 l 276 264 l 276 958 l 397 889 m 733 1222 l 181 903 l 60 972 l 614 1292 l 733 1222 m 181 903 l 181 764 l 60 833 l 60 972 l 181 903 m 299 1494 l 229 1350 l 110 1419 l 178 1564 l 299 1494 z "},"Ī":{"ha":794,"x_min":60,"x_max":733,"o":"m 397 194 l 397 889 l 181 764 l 181 903 l 733 1222 l 733 1083 l 517 958 l 517 264 l 733 389 l 733 250 l 181 -69 l 181 69 l 397 194 m 217 1243 l 638 1486 l 638 1347 l 217 1104 l 217 1243 m 397 194 l 181 69 l 60 139 l 276 264 l 397 194 m 181 69 l 181 -69 l 60 0 l 60 139 l 181 69 m 733 389 l 517 264 l 397 333 l 614 458 l 733 389 m 397 889 l 397 194 l 276 264 l 276 958 l 397 889 m 733 1222 l 181 903 l 60 972 l 614 1292 l 733 1222 m 181 903 l 181 764 l 60 833 l 60 972 l 181 903 m 638 1486 l 217 1243 l 96 1313 l 517 1556 l 638 1486 m 217 1243 l 217 1104 l 96 1174 l 96 1313 l 217 1243 z "},"Į":{"ha":794,"x_min":60,"x_max":733,"o":"m 614 181 l 614 42 l 733 111 l 733 -28 l 614 -97 q 529 -104 565 -125 q 493 -28 493 -83 q 510 51 493 10 q 554 127 526 92 q 614 181 582 163 l 181 -69 l 181 69 l 397 194 l 397 889 l 181 764 l 181 903 l 733 1222 l 733 1083 l 517 958 l 517 264 l 733 389 l 733 250 l 614 181 m 733 389 l 517 264 l 397 333 l 614 458 l 733 389 m 181 69 l 181 -69 l 60 0 l 60 139 l 181 69 m 733 111 l 614 42 l 493 111 l 614 181 l 733 111 m 614 181 q 554 127 582 163 q 510 51 526 92 q 493 -28 493 10 q 529 -104 493 -83 l 410 -35 q 372 42 372 -14 q 390 120 372 79 q 434 197 407 161 q 493 250 461 232 l 614 181 m 397 889 l 397 194 l 276 264 l 276 958 l 397 889 m 397 194 l 181 69 l 60 139 l 276 264 l 397 194 m 733 1222 l 181 903 l 60 972 l 614 1292 l 733 1222 m 181 903 l 181 764 l 60 833 l 60 972 l 181 903 z "},"Ĩ":{"ha":794,"x_min":50,"x_max":733,"o":"m 397 194 l 397 889 l 181 764 l 181 903 l 733 1222 l 733 1083 l 517 958 l 517 264 l 733 389 l 733 250 l 181 -69 l 181 69 l 397 194 m 267 1107 l 171 1140 l 281 1363 q 351 1446 310 1422 q 439 1454 393 1469 l 533 1421 l 624 1603 l 718 1568 l 610 1347 q 538 1263 579 1286 q 450 1256 497 1239 l 357 1288 l 267 1107 m 397 194 l 181 69 l 60 139 l 276 264 l 397 194 m 181 69 l 181 -69 l 60 0 l 60 139 l 181 69 m 733 389 l 517 264 l 397 333 l 614 458 l 733 389 m 718 1568 l 624 1603 l 503 1672 l 597 1638 l 718 1568 m 624 1603 l 533 1421 l 413 1490 l 503 1672 l 624 1603 m 397 889 l 397 194 l 276 264 l 276 958 l 397 889 m 733 1222 l 181 903 l 60 972 l 614 1292 l 733 1222 m 181 903 l 181 764 l 60 833 l 60 972 l 181 903 m 533 1421 l 439 1454 q 351 1446 393 1469 q 281 1363 310 1422 l 171 1140 l 50 1210 l 160 1432 q 231 1515 190 1492 q 318 1524 272 1539 l 413 1490 l 533 1421 z "},"J":{"ha":782,"x_min":60,"x_max":722,"o":"m 301 972 l 722 1215 l 722 326 q 705 249 722 290 q 660 172 688 207 q 601 118 633 136 l 301 -56 q 217 -62 253 -83 q 181 14 181 -42 l 181 347 l 301 417 l 301 83 l 601 257 l 601 1146 q 585 1068 601 1110 q 540 991 568 1026 q 481 938 513 956 l 301 833 l 301 972 m 601 1146 l 601 257 l 481 326 l 481 1215 l 601 1146 m 601 257 l 301 83 l 181 153 l 481 326 l 601 257 m 722 1215 l 301 972 l 181 1042 l 601 1285 l 722 1215 m 301 972 l 301 833 l 181 903 l 181 1042 l 301 972 m 301 417 l 181 347 l 60 417 l 181 486 l 301 417 m 181 347 l 181 14 q 217 -62 181 -42 l 96 7 q 60 83 60 28 l 60 417 l 181 347 z "},"Ĵ":{"ha":782,"x_min":60,"x_max":742,"o":"m 301 972 l 722 1215 l 722 326 q 705 249 722 290 q 660 172 688 207 q 601 118 633 136 l 301 -56 q 217 -62 253 -83 q 181 14 181 -42 l 181 347 l 301 417 l 301 83 l 601 257 l 601 1146 q 585 1068 601 1110 q 540 991 568 1026 q 481 938 513 956 l 301 833 l 301 972 m 529 1414 l 346 1164 l 281 1236 l 511 1553 l 742 1503 l 685 1378 l 529 1414 m 601 1146 l 601 257 l 481 326 l 481 1215 l 601 1146 m 601 257 l 301 83 l 181 153 l 481 326 l 601 257 m 742 1503 l 511 1553 l 390 1622 l 622 1572 l 742 1503 m 722 1215 l 301 972 l 181 1042 l 601 1285 l 722 1215 m 301 972 l 301 833 l 181 903 l 181 1042 l 301 972 m 301 417 l 181 347 l 60 417 l 181 486 l 301 417 m 181 347 l 181 14 q 217 -62 181 -42 l 96 7 q 60 83 60 28 l 60 417 l 181 347 m 511 1553 l 281 1236 l 160 1306 l 390 1622 l 511 1553 m 281 1236 l 346 1164 l 226 1233 l 160 1306 l 281 1236 z "},"K":{"ha":782,"x_min":60,"x_max":722,"o":"m 181 903 l 301 972 l 301 556 l 601 729 l 601 1146 l 722 1215 l 722 938 q 705 860 722 901 q 660 783 688 818 q 601 729 633 747 q 685 736 649 757 q 722 660 722 715 l 722 243 l 601 174 l 601 590 l 301 417 l 301 0 l 181 -69 l 181 903 m 601 590 l 601 174 l 481 243 l 481 660 l 601 590 m 686 736 q 601 729 649 757 l 481 799 q 565 806 529 826 l 686 736 m 722 1215 l 601 1146 l 481 1215 l 601 1285 l 722 1215 m 601 1146 l 601 729 l 481 799 l 481 1215 l 601 1146 m 601 729 l 301 556 l 181 625 l 481 799 l 601 729 m 301 972 l 181 903 l 60 972 l 181 1042 l 301 972 m 181 903 l 181 -69 l 60 0 l 60 972 l 181 903 z "},"L":{"ha":661,"x_min":60,"x_max":601,"o":"m 301 83 l 601 257 l 601 118 l 301 -56 q 217 -62 253 -83 q 181 14 181 -42 l 181 1111 l 301 1181 l 301 83 m 301 1181 l 181 1111 l 60 1181 l 181 1250 l 301 1181 m 601 257 l 301 83 l 181 153 l 481 326 l 601 257 m 181 1111 l 181 14 q 217 -62 181 -42 l 96 7 q 60 83 60 28 l 60 1181 l 181 1111 z "},"Ĺ":{"ha":661,"x_min":22,"x_max":601,"o":"m 301 83 l 601 257 l 601 118 l 301 -56 q 217 -62 253 -83 q 181 14 181 -42 l 181 1111 l 301 1181 l 301 83 m 143 1293 l 431 1643 l 494 1558 l 207 1208 l 143 1293 m 301 1181 l 181 1111 l 60 1181 l 181 1250 l 301 1181 m 601 257 l 301 83 l 181 153 l 481 326 l 601 257 m 431 1643 l 143 1293 l 22 1363 l 310 1713 l 431 1643 m 181 1111 l 181 14 q 217 -62 181 -42 l 96 7 q 60 83 60 28 l 60 1181 l 181 1111 m 143 1293 l 207 1208 l 86 1278 l 22 1363 l 143 1293 z "},"Ľ":{"ha":661,"x_min":60,"x_max":601,"o":"m 301 83 l 601 257 l 601 118 l 301 -56 q 217 -62 253 -83 q 181 14 181 -42 l 181 1111 l 301 1181 l 301 83 m 542 903 q 457 896 493 875 q 421 972 421 917 l 421 1250 l 542 1319 l 542 903 m 601 257 l 301 83 l 181 153 l 481 326 l 601 257 m 542 1319 l 421 1250 l 301 1319 l 421 1389 l 542 1319 m 421 1250 l 421 972 q 457 896 421 917 l 338 965 q 301 1042 301 986 l 301 1319 l 421 1250 m 301 1181 l 181 1111 l 60 1181 l 181 1250 l 301 1181 m 181 1111 l 181 14 q 217 -62 181 -42 l 96 7 q 60 83 60 28 l 60 1181 l 181 1111 z "},"Ł":{"ha":722,"x_min":-22,"x_max":661,"o":"m 99 361 l 240 506 l 240 1146 l 361 1215 l 361 628 l 479 747 l 529 631 l 361 460 l 361 118 l 661 292 l 661 153 l 361 -21 q 276 -28 313 -49 q 240 49 240 -7 l 240 338 l 149 244 l 99 361 m 361 1215 l 240 1146 l 121 1215 l 240 1285 l 361 1215 m 661 292 l 361 118 l 240 188 l 542 361 l 661 292 m 479 747 l 361 628 l 240 697 l 358 817 l 479 747 m 240 1146 l 240 506 l 121 575 l 121 1215 l 240 1146 m 240 338 l 240 49 q 276 -28 240 -7 l 157 42 q 121 118 121 63 l 121 407 l 240 338 m 240 506 l 99 361 l -22 431 l 121 575 l 240 506 m 99 361 l 149 244 l 29 314 l -22 431 l 99 361 z "},"M":{"ha":963,"x_min":60,"x_max":903,"o":"m 301 1028 l 782 1306 q 866 1313 829 1333 q 903 1236 903 1292 l 903 347 l 782 278 l 782 1167 l 601 1063 l 601 174 l 481 104 l 481 993 l 301 889 l 301 0 l 181 -69 l 181 819 q 197 898 181 857 q 242 974 214 939 q 301 1028 269 1010 m 782 1167 l 782 278 l 661 347 l 661 1236 l 782 1167 m 481 993 l 481 104 l 361 174 l 361 1063 l 481 993 m 865 1313 q 782 1306 829 1333 l 301 1028 q 242 974 269 1010 q 197 898 214 939 q 181 819 181 857 l 181 -69 l 60 0 l 60 889 q 76 967 60 926 q 121 1044 93 1008 q 181 1097 149 1079 l 661 1375 q 746 1382 710 1403 l 865 1313 z "},"N":{"ha":963,"x_min":60,"x_max":903,"o":"m 481 1076 q 565 1083 529 1104 q 601 1007 601 1063 l 601 313 l 782 417 l 782 1250 l 903 1319 l 903 347 l 601 174 q 517 167 554 146 q 481 243 481 188 l 481 938 l 301 833 l 301 0 l 181 -69 l 181 903 l 481 1076 m 903 1319 l 782 1250 l 661 1319 l 782 1389 l 903 1319 m 782 1250 l 782 417 l 661 486 l 661 1319 l 782 1250 m 782 417 l 601 313 l 481 382 l 661 486 l 782 417 m 481 938 l 481 243 q 517 167 481 188 l 397 236 q 361 313 361 257 l 361 1007 l 481 938 m 565 1083 q 481 1076 529 1104 l 181 903 l 60 972 l 361 1146 q 444 1153 408 1174 l 565 1083 m 181 903 l 181 -69 l 60 0 l 60 972 l 181 903 z "},"Ń":{"ha":963,"x_min":60,"x_max":903,"o":"m 481 1076 q 565 1083 529 1104 q 601 1007 601 1063 l 601 313 l 782 417 l 782 1250 l 903 1319 l 903 347 l 601 174 q 517 167 554 146 q 481 243 481 188 l 481 938 l 301 833 l 301 0 l 181 -69 l 181 903 l 481 1076 m 347 1272 l 635 1622 l 699 1538 l 411 1188 l 347 1272 m 903 1319 l 782 1250 l 661 1319 l 782 1389 l 903 1319 m 782 1250 l 782 417 l 661 486 l 661 1319 l 782 1250 m 782 417 l 601 313 l 481 382 l 661 486 l 782 417 m 481 938 l 481 243 q 517 167 481 188 l 397 236 q 361 313 361 257 l 361 1007 l 481 938 m 635 1622 l 347 1272 l 228 1342 l 515 1692 l 635 1622 m 347 1272 l 411 1188 l 292 1257 l 228 1342 l 347 1272 m 565 1083 q 481 1076 529 1104 l 181 903 l 60 972 l 361 1146 q 444 1153 408 1174 l 565 1083 m 181 903 l 181 -69 l 60 0 l 60 972 l 181 903 z "},"Ň":{"ha":963,"x_min":60,"x_max":903,"o":"m 481 1076 q 565 1083 529 1104 q 601 1007 601 1063 l 601 313 l 782 417 l 782 1250 l 903 1319 l 903 347 l 601 174 q 517 167 554 146 q 481 243 481 188 l 481 938 l 301 833 l 301 0 l 181 -69 l 181 903 l 481 1076 m 563 1282 l 307 1319 l 369 1454 l 535 1418 l 699 1644 l 769 1563 l 563 1282 m 903 1319 l 782 1250 l 661 1319 l 782 1389 l 903 1319 m 782 1250 l 782 417 l 661 486 l 661 1319 l 782 1250 m 782 417 l 601 313 l 481 382 l 661 486 l 782 417 m 481 938 l 481 243 q 517 167 481 188 l 397 236 q 361 313 361 257 l 361 1007 l 481 938 m 699 1644 l 535 1418 l 414 1488 l 578 1714 l 699 1644 m 535 1418 l 369 1454 l 249 1524 l 414 1488 l 535 1418 m 369 1454 l 307 1319 l 186 1389 l 249 1524 l 369 1454 m 565 1083 q 481 1076 529 1104 l 181 903 l 60 972 l 361 1146 q 444 1153 408 1174 l 565 1083 m 181 903 l 181 -69 l 60 0 l 60 972 l 181 903 z "},"Ñ":{"ha":963,"x_min":60,"x_max":903,"o":"m 481 1076 q 565 1083 529 1104 q 601 1007 601 1063 l 601 313 l 782 417 l 782 1250 l 903 1319 l 903 347 l 601 174 q 517 167 554 146 q 481 243 481 188 l 481 938 l 301 833 l 301 0 l 181 -69 l 181 903 l 481 1076 m 339 1149 l 243 1182 l 353 1404 q 423 1488 382 1464 q 511 1496 464 1511 l 606 1463 l 696 1644 l 790 1610 l 682 1389 q 610 1304 651 1328 q 522 1297 569 1281 l 429 1329 l 339 1149 m 903 1319 l 782 1250 l 661 1319 l 782 1389 l 903 1319 m 782 1250 l 782 417 l 661 486 l 661 1319 l 782 1250 m 782 417 l 601 313 l 481 382 l 661 486 l 782 417 m 790 1610 l 696 1644 l 575 1714 l 669 1679 l 790 1610 m 481 938 l 481 243 q 517 167 481 188 l 397 236 q 361 313 361 257 l 361 1007 l 481 938 m 696 1644 l 606 1463 l 485 1532 l 575 1714 l 696 1644 m 565 1083 q 481 1076 529 1104 l 181 903 l 60 972 l 361 1146 q 444 1153 408 1174 l 565 1083 m 181 903 l 181 -69 l 60 0 l 60 972 l 181 903 m 606 1463 l 511 1496 q 423 1488 464 1511 q 353 1404 382 1464 l 243 1182 l 122 1251 l 232 1474 q 303 1557 263 1533 q 390 1565 344 1581 l 485 1532 l 606 1463 z "},"O":{"ha":782,"x_min":60,"x_max":722,"o":"m 301 1028 l 601 1201 q 685 1208 649 1229 q 722 1132 722 1188 l 722 326 q 705 249 722 290 q 660 172 688 207 q 601 118 633 136 l 301 -56 q 217 -62 253 -83 q 181 14 181 -42 l 181 819 q 197 898 181 857 q 242 974 214 939 q 301 1028 269 1010 m 301 83 l 601 257 l 601 1063 l 301 889 l 301 83 m 601 1063 l 601 257 l 481 326 l 481 1132 l 601 1063 m 601 257 l 301 83 l 181 153 l 481 326 l 601 257 m 686 1208 q 601 1201 649 1229 l 301 1028 q 242 974 269 1010 q 197 898 214 939 q 181 819 181 857 l 181 14 q 217 -62 181 -42 l 96 7 q 60 83 60 28 l 60 889 q 76 967 60 926 q 121 1044 93 1008 q 181 1097 149 1079 l 481 1271 q 565 1278 529 1299 l 686 1208 z "},"Œ":{"ha":999,"x_min":60,"x_max":938,"o":"m 181 764 q 197 842 181 801 q 242 919 214 883 q 301 972 269 954 l 553 1118 q 638 1125 601 1146 q 674 1049 674 1104 q 690 1127 674 1086 q 735 1203 707 1168 q 794 1257 763 1239 l 938 1340 l 938 1201 l 674 1049 l 674 771 l 938 924 l 938 785 l 674 632 l 674 354 l 938 507 l 938 368 l 674 215 q 590 208 626 188 q 553 285 553 229 l 553 146 l 301 0 q 217 -7 253 -28 q 181 69 181 14 l 181 764 m 553 979 l 301 833 l 301 139 l 553 285 l 553 979 m 553 285 q 589 208 553 229 l 469 278 q 433 354 433 299 l 553 285 m 938 507 l 674 354 l 553 424 l 818 576 l 938 507 m 938 924 l 674 771 l 553 840 l 818 993 l 938 924 m 938 1340 l 794 1257 q 735 1203 763 1239 q 690 1127 707 1168 q 674 1049 674 1086 l 553 1118 q 570 1197 553 1156 q 615 1273 588 1238 q 674 1326 642 1308 l 818 1410 l 938 1340 m 553 979 l 553 285 l 433 354 l 433 1049 l 553 979 m 553 285 l 301 139 l 181 208 l 433 354 l 553 285 m 638 1125 q 553 1118 601 1146 l 301 972 q 242 919 269 954 q 197 842 214 883 q 181 764 181 801 l 181 69 q 217 -7 181 14 l 96 63 q 60 139 60 83 l 60 833 q 76 912 60 871 q 121 988 93 953 q 181 1042 149 1024 l 433 1188 q 517 1194 481 1215 l 638 1125 z "},"Ó":{"ha":782,"x_min":60,"x_max":722,"o":"m 301 1028 l 601 1201 q 685 1208 649 1229 q 722 1132 722 1188 l 722 326 q 705 249 722 290 q 660 172 688 207 q 601 118 633 136 l 301 -56 q 217 -62 253 -83 q 181 14 181 -42 l 181 819 q 197 898 181 857 q 242 974 214 939 q 301 1028 269 1010 m 301 83 l 601 257 l 601 1063 l 301 889 l 301 83 m 264 1279 l 551 1629 l 615 1544 l 328 1194 l 264 1279 m 601 1063 l 601 257 l 481 326 l 481 1132 l 601 1063 m 601 257 l 301 83 l 181 153 l 481 326 l 601 257 m 686 1208 q 601 1201 649 1229 l 301 1028 q 242 974 269 1010 q 197 898 214 939 q 181 819 181 857 l 181 14 q 217 -62 181 -42 l 96 7 q 60 83 60 28 l 60 889 q 76 967 60 926 q 121 1044 93 1008 q 181 1097 149 1079 l 481 1271 q 565 1278 529 1299 l 686 1208 m 551 1629 l 264 1279 l 143 1349 l 431 1699 l 551 1629 m 264 1279 l 328 1194 l 207 1264 l 143 1349 l 264 1279 z "},"Ô":{"ha":782,"x_min":60,"x_max":722,"o":"m 301 1028 l 601 1201 q 685 1208 649 1229 q 722 1132 722 1188 l 722 326 q 705 249 722 290 q 660 172 688 207 q 601 118 633 136 l 301 -56 q 217 -62 253 -83 q 181 14 181 -42 l 181 819 q 197 898 181 857 q 242 974 214 939 q 301 1028 269 1010 m 301 83 l 601 257 l 601 1063 l 301 889 l 301 83 m 468 1435 l 286 1185 l 219 1257 l 451 1574 l 682 1524 l 625 1399 l 468 1435 m 601 1063 l 601 257 l 481 326 l 481 1132 l 601 1063 m 601 257 l 301 83 l 181 153 l 481 326 l 601 257 m 682 1524 l 451 1574 l 331 1643 l 561 1593 l 682 1524 m 686 1208 q 601 1201 649 1229 l 301 1028 q 242 974 269 1010 q 197 898 214 939 q 181 819 181 857 l 181 14 q 217 -62 181 -42 l 96 7 q 60 83 60 28 l 60 889 q 76 967 60 926 q 121 1044 93 1008 q 181 1097 149 1079 l 481 1271 q 565 1278 529 1299 l 686 1208 m 451 1574 l 219 1257 l 100 1326 l 331 1643 l 451 1574 m 219 1257 l 286 1185 l 167 1254 l 100 1326 l 219 1257 z "},"Ö":{"ha":782,"x_min":60,"x_max":722,"o":"m 301 1028 l 601 1201 q 685 1208 649 1229 q 722 1132 722 1188 l 722 326 q 705 249 722 290 q 660 172 688 207 q 601 118 633 136 l 301 -56 q 217 -62 253 -83 q 181 14 181 -42 l 181 819 q 197 898 181 857 q 242 974 214 939 q 301 1028 269 1010 m 301 83 l 601 257 l 601 1063 l 301 889 l 301 83 m 301 1181 q 240 1174 264 1160 q 217 1229 217 1188 q 240 1313 217 1271 q 301 1375 264 1354 q 361 1382 338 1396 q 385 1326 385 1368 q 361 1243 385 1285 q 301 1181 338 1201 m 601 1354 q 541 1347 565 1333 q 517 1403 517 1361 q 541 1486 517 1444 q 601 1549 565 1528 q 662 1556 638 1569 q 686 1500 686 1542 q 662 1417 686 1458 q 601 1354 638 1375 m 601 1063 l 601 257 l 481 326 l 481 1132 l 601 1063 m 601 257 l 301 83 l 181 153 l 481 326 l 601 257 m 663 1556 q 601 1549 638 1569 q 541 1486 565 1528 q 517 1403 517 1444 q 542 1347 517 1361 l 421 1417 q 397 1472 397 1431 q 421 1556 397 1514 q 481 1618 444 1597 q 542 1625 518 1639 l 663 1556 m 686 1208 q 601 1201 649 1229 l 301 1028 q 242 974 269 1010 q 197 898 214 939 q 181 819 181 857 l 181 14 q 217 -62 181 -42 l 96 7 q 60 83 60 28 l 60 889 q 76 967 60 926 q 121 1044 93 1008 q 181 1097 149 1079 l 481 1271 q 565 1278 529 1299 l 686 1208 m 361 1382 q 301 1375 338 1396 q 240 1313 264 1354 q 217 1229 217 1271 q 240 1174 217 1188 l 119 1243 q 96 1299 96 1257 q 120 1382 96 1340 q 181 1444 144 1424 q 240 1451 217 1465 l 361 1382 z "},"Ò":{"ha":782,"x_min":60,"x_max":722,"o":"m 301 1028 l 601 1201 q 685 1208 649 1229 q 722 1132 722 1188 l 722 326 q 705 249 722 290 q 660 172 688 207 q 601 118 633 136 l 301 -56 q 217 -62 253 -83 q 181 14 181 -42 l 181 819 q 197 898 181 857 q 242 974 214 939 q 301 1028 269 1010 m 301 83 l 601 257 l 601 1063 l 301 889 l 301 83 m 292 1547 l 626 1468 l 558 1324 l 224 1401 l 292 1547 m 601 1063 l 601 257 l 481 326 l 481 1132 l 601 1063 m 601 257 l 301 83 l 181 153 l 481 326 l 601 257 m 626 1468 l 292 1547 l 172 1617 l 507 1538 l 626 1468 m 686 1208 q 601 1201 649 1229 l 301 1028 q 242 974 269 1010 q 197 898 214 939 q 181 819 181 857 l 181 14 q 217 -62 181 -42 l 96 7 q 60 83 60 28 l 60 889 q 76 967 60 926 q 121 1044 93 1008 q 181 1097 149 1079 l 481 1271 q 565 1278 529 1299 l 686 1208 m 292 1547 l 224 1401 l 103 1471 l 172 1617 l 292 1547 z "},"Ő":{"ha":782,"x_min":60,"x_max":722,"o":"m 301 1028 l 601 1201 q 685 1208 649 1229 q 722 1132 722 1188 l 722 326 q 705 249 722 290 q 660 172 688 207 q 601 118 633 136 l 301 -56 q 217 -62 253 -83 q 181 14 181 -42 l 181 819 q 197 898 181 857 q 242 974 214 939 q 301 1028 269 1010 m 301 83 l 601 257 l 601 1063 l 301 889 l 301 83 m 194 1207 l 349 1497 l 444 1464 l 292 1174 l 194 1207 m 471 1367 l 625 1657 l 721 1624 l 568 1333 l 471 1367 m 601 1063 l 601 257 l 481 326 l 481 1132 l 601 1063 m 601 257 l 301 83 l 181 153 l 481 326 l 601 257 m 721 1624 l 625 1657 l 506 1726 l 600 1693 l 721 1624 m 625 1657 l 471 1367 l 351 1436 l 506 1726 l 625 1657 m 686 1208 q 601 1201 649 1229 l 301 1028 q 242 974 269 1010 q 197 898 214 939 q 181 819 181 857 l 181 14 q 217 -62 181 -42 l 96 7 q 60 83 60 28 l 60 889 q 76 967 60 926 q 121 1044 93 1008 q 181 1097 149 1079 l 481 1271 q 565 1278 529 1299 l 686 1208 m 444 1464 l 349 1497 l 229 1567 l 324 1533 l 444 1464 m 349 1497 l 194 1207 l 75 1276 l 229 1567 l 349 1497 z "},"Ō":{"ha":782,"x_min":60,"x_max":722,"o":"m 301 1028 l 601 1201 q 685 1208 649 1229 q 722 1132 722 1188 l 722 326 q 705 249 722 290 q 660 172 688 207 q 601 118 633 136 l 301 -56 q 217 -62 253 -83 q 181 14 181 -42 l 181 819 q 197 898 181 857 q 242 974 214 939 q 301 1028 269 1010 m 301 83 l 601 257 l 601 1063 l 301 889 l 301 83 m 217 1299 l 638 1542 l 638 1403 l 217 1160 l 217 1299 m 601 1063 l 601 257 l 481 326 l 481 1132 l 601 1063 m 601 257 l 301 83 l 181 153 l 481 326 l 601 257 m 686 1208 q 601 1201 649 1229 l 301 1028 q 242 974 269 1010 q 197 898 214 939 q 181 819 181 857 l 181 14 q 217 -62 181 -42 l 96 7 q 60 83 60 28 l 60 889 q 76 967 60 926 q 121 1044 93 1008 q 181 1097 149 1079 l 481 1271 q 565 1278 529 1299 l 686 1208 m 638 1542 l 217 1299 l 96 1368 l 517 1611 l 638 1542 m 217 1299 l 217 1160 l 96 1229 l 96 1368 l 217 1299 z "},"Ø":{"ha":782,"x_min":60,"x_max":722,"o":"m 542 139 q 457 132 493 111 q 421 208 421 153 l 601 313 l 601 1007 q 685 1014 649 1035 q 722 938 722 993 l 722 382 q 705 303 722 344 q 660 227 688 263 q 601 174 633 192 l 542 139 m 301 972 l 361 1007 q 444 1014 408 1035 q 481 938 481 993 l 301 833 l 301 139 q 217 132 253 111 q 181 208 181 153 l 181 764 q 197 842 181 801 q 242 919 214 883 q 301 972 269 954 m 301 0 l 181 -69 l 181 69 l 421 208 q 404 131 421 172 q 360 53 388 89 q 301 0 332 18 m 601 1146 l 722 1215 l 722 1076 l 481 938 q 498 1016 481 975 q 542 1092 515 1057 q 601 1146 569 1128 m 385 604 l 517 681 l 517 542 l 385 465 l 385 604 m 686 1014 q 601 1007 649 1035 l 481 1076 q 565 1083 529 1104 l 686 1014 m 601 1007 l 601 313 l 481 382 l 481 1076 l 601 1007 m 601 313 l 421 208 l 301 278 l 481 382 l 601 313 m 421 208 q 457 132 421 153 l 338 201 q 301 278 301 222 l 421 208 m 181 69 l 181 -69 l 60 0 l 60 139 l 181 69 m 421 208 l 181 69 l 60 139 l 301 278 l 421 208 m 722 1215 l 601 1146 q 542 1092 569 1128 q 498 1016 515 1057 q 481 938 481 975 l 361 1007 q 378 1085 361 1044 q 422 1162 394 1126 q 481 1215 449 1197 l 601 1285 l 722 1215 m 517 681 l 385 604 l 265 674 l 397 750 l 517 681 m 385 604 l 385 465 l 265 535 l 265 674 l 385 604 m 444 1014 q 361 1007 408 1035 l 301 972 q 242 919 269 954 q 197 842 214 883 q 181 764 181 801 l 181 208 q 217 132 181 153 l 96 201 q 60 278 60 222 l 60 833 q 76 912 60 871 q 121 988 93 953 q 181 1042 149 1024 l 240 1076 q 325 1083 289 1104 l 444 1014 z "},"Õ":{"ha":782,"x_min":44,"x_max":722,"o":"m 301 1028 l 601 1201 q 685 1208 649 1229 q 722 1132 722 1188 l 722 326 q 705 249 722 290 q 660 172 688 207 q 601 118 633 136 l 301 -56 q 217 -62 253 -83 q 181 14 181 -42 l 181 819 q 197 898 181 857 q 242 974 214 939 q 301 1028 269 1010 m 301 83 l 601 257 l 601 1063 l 301 889 l 301 83 m 260 1158 l 165 1193 l 275 1414 q 345 1499 304 1475 q 433 1506 386 1522 l 528 1474 l 617 1654 l 713 1619 l 603 1399 q 533 1315 574 1339 q 444 1307 492 1292 l 350 1340 l 260 1158 m 601 1063 l 601 257 l 481 326 l 481 1132 l 601 1063 m 601 257 l 301 83 l 181 153 l 481 326 l 601 257 m 713 1619 l 617 1654 l 497 1724 l 592 1689 l 713 1619 m 617 1654 l 528 1474 l 407 1543 l 497 1724 l 617 1654 m 686 1208 q 601 1201 649 1229 l 301 1028 q 242 974 269 1010 q 197 898 214 939 q 181 819 181 857 l 181 14 q 217 -62 181 -42 l 96 7 q 60 83 60 28 l 60 889 q 76 967 60 926 q 121 1044 93 1008 q 181 1097 149 1079 l 481 1271 q 565 1278 529 1299 l 686 1208 m 528 1474 l 433 1506 q 345 1499 386 1522 q 275 1414 304 1475 l 165 1193 l 44 1263 l 154 1483 q 225 1568 183 1544 q 313 1575 267 1592 l 407 1543 l 528 1474 z "},"P":{"ha":782,"x_min":60,"x_max":722,"o":"m 421 347 q 338 340 374 319 q 301 417 301 361 l 301 0 l 181 -69 l 181 958 l 601 1201 q 685 1208 649 1229 q 722 1132 722 1188 l 722 660 q 705 582 722 624 q 660 505 688 540 q 601 451 633 469 l 421 347 m 601 1063 l 301 889 l 301 417 l 601 590 l 601 1063 m 301 417 q 338 340 301 361 l 217 410 q 181 486 181 431 l 301 417 m 601 1063 l 601 590 l 481 660 l 481 1132 l 601 1063 m 601 590 l 301 417 l 181 486 l 481 660 l 601 590 m 686 1208 q 601 1201 649 1229 l 181 958 l 60 1028 l 481 1271 q 565 1278 529 1299 l 686 1208 m 181 958 l 181 -69 l 60 0 l 60 1028 l 181 958 z "},"Q":{"ha":782,"x_min":60,"x_max":794,"o":"m 301 1028 l 601 1201 q 685 1208 649 1229 q 722 1132 722 1188 l 722 465 q 705 388 722 429 q 660 310 688 346 q 601 257 633 275 l 794 368 l 794 229 l 301 -56 q 217 -62 253 -83 q 181 14 181 -42 l 181 819 q 197 898 181 857 q 242 974 214 939 q 301 1028 269 1010 m 601 257 l 601 1063 l 301 889 l 301 83 l 601 257 m 794 368 l 601 257 l 481 326 l 674 438 l 794 368 m 601 257 l 301 83 l 181 153 l 481 326 l 601 257 m 601 1063 l 601 257 l 481 326 l 481 1132 l 601 1063 m 686 1208 q 601 1201 649 1229 l 301 1028 q 242 974 269 1010 q 197 898 214 939 q 181 819 181 857 l 181 14 q 217 -62 181 -42 l 96 7 q 60 83 60 28 l 60 889 q 76 967 60 926 q 121 1044 93 1008 q 181 1097 149 1079 l 481 1271 q 565 1278 529 1299 l 686 1208 z "},"R":{"ha":782,"x_min":60,"x_max":722,"o":"m 601 451 l 301 278 l 301 0 l 181 -69 l 181 958 l 601 1201 q 685 1208 649 1229 q 722 1132 722 1188 l 722 799 q 705 721 722 763 q 660 644 688 679 q 601 590 633 608 q 685 597 649 618 q 722 521 722 576 l 722 243 l 601 174 l 601 451 m 601 590 l 601 1063 l 301 889 l 301 417 l 601 590 m 601 451 l 601 174 l 481 243 l 481 521 l 601 451 m 686 597 q 601 590 649 618 l 481 660 q 565 667 529 688 l 686 597 m 601 1063 l 601 590 l 481 660 l 481 1132 l 601 1063 m 601 590 l 301 417 l 181 486 l 481 660 l 601 590 m 686 1208 q 601 1201 649 1229 l 181 958 l 60 1028 l 481 1271 q 565 1278 529 1299 l 686 1208 m 181 958 l 181 -69 l 60 0 l 60 1028 l 181 958 z "},"Ŕ":{"ha":782,"x_min":60,"x_max":722,"o":"m 601 451 l 301 278 l 301 0 l 181 -69 l 181 958 l 601 1201 q 685 1208 649 1229 q 722 1132 722 1188 l 722 799 q 705 721 722 763 q 660 644 688 679 q 601 590 633 608 q 685 597 649 618 q 722 521 722 576 l 722 243 l 601 174 l 601 451 m 601 590 l 601 1063 l 301 889 l 301 417 l 601 590 m 264 1279 l 551 1629 l 615 1544 l 328 1194 l 264 1279 m 601 451 l 601 174 l 481 243 l 481 521 l 601 451 m 686 597 q 601 590 649 618 l 481 660 q 565 667 529 688 l 686 597 m 601 1063 l 601 590 l 481 660 l 481 1132 l 601 1063 m 601 590 l 301 417 l 181 486 l 481 660 l 601 590 m 686 1208 q 601 1201 649 1229 l 181 958 l 60 1028 l 481 1271 q 565 1278 529 1299 l 686 1208 m 181 958 l 181 -69 l 60 0 l 60 1028 l 181 958 m 551 1629 l 264 1279 l 143 1349 l 431 1699 l 551 1629 m 264 1279 l 328 1194 l 207 1264 l 143 1349 l 264 1279 z "},"Ř":{"ha":782,"x_min":60,"x_max":722,"o":"m 601 451 l 301 278 l 301 0 l 181 -69 l 181 958 l 601 1201 q 685 1208 649 1229 q 722 1132 722 1188 l 722 799 q 705 721 722 763 q 660 644 688 679 q 601 590 633 608 q 685 597 649 618 q 722 521 722 576 l 722 243 l 601 174 l 601 451 m 601 590 l 601 1063 l 301 889 l 301 417 l 601 590 m 472 1286 l 217 1324 l 279 1457 l 444 1421 l 608 1647 l 679 1567 l 472 1286 m 601 451 l 601 174 l 481 243 l 481 521 l 601 451 m 686 597 q 601 590 649 618 l 481 660 q 565 667 529 688 l 686 597 m 608 1647 l 444 1421 l 324 1490 l 489 1717 l 608 1647 m 444 1421 l 279 1457 l 158 1526 l 324 1490 l 444 1421 m 601 1063 l 601 590 l 481 660 l 481 1132 l 601 1063 m 601 590 l 301 417 l 181 486 l 481 660 l 601 590 m 686 1208 q 601 1201 649 1229 l 181 958 l 60 1028 l 481 1271 q 565 1278 529 1299 l 686 1208 m 181 958 l 181 -69 l 60 0 l 60 1028 l 181 958 m 279 1457 l 217 1324 l 96 1393 l 158 1526 l 279 1457 z "},"S":{"ha":782,"x_min":60,"x_max":722,"o":"m 301 417 q 217 410 253 389 q 181 486 181 431 l 181 819 q 197 898 181 857 q 242 974 214 939 q 301 1028 269 1010 l 601 1201 q 685 1208 649 1229 q 722 1132 722 1188 l 722 938 l 601 868 l 601 1063 l 301 889 l 301 556 l 601 729 q 685 736 649 757 q 722 660 722 715 l 722 326 q 705 249 722 290 q 660 172 688 207 q 601 118 633 136 l 301 -56 q 217 -62 253 -83 q 181 14 181 -42 l 181 153 l 301 222 l 301 83 l 601 257 l 601 590 l 301 417 m 601 590 l 601 257 l 481 326 l 481 660 l 601 590 m 601 257 l 301 83 l 181 153 l 481 326 l 601 257 m 601 1063 l 601 868 l 481 938 l 481 1132 l 601 1063 m 301 222 l 181 153 l 60 222 l 181 292 l 301 222 m 181 153 l 181 14 q 217 -62 181 -42 l 96 7 q 60 83 60 28 l 60 222 l 181 153 m 686 736 q 601 729 649 757 l 301 556 l 181 625 l 481 799 q 565 806 529 826 l 686 736 m 686 1208 q 601 1201 649 1229 l 301 1028 q 242 974 269 1010 q 197 898 214 939 q 181 819 181 857 l 181 486 q 217 410 181 431 l 96 479 q 60 556 60 500 l 60 889 q 76 967 60 926 q 121 1044 93 1008 q 181 1097 149 1079 l 481 1271 q 565 1278 529 1299 l 686 1208 z "},"Ś":{"ha":782,"x_min":60,"x_max":722,"o":"m 301 417 q 217 410 253 389 q 181 486 181 431 l 181 819 q 197 898 181 857 q 242 974 214 939 q 301 1028 269 1010 l 601 1201 q 685 1208 649 1229 q 722 1132 722 1188 l 722 938 l 601 868 l 601 1063 l 301 889 l 301 556 l 601 729 q 685 736 649 757 q 722 660 722 715 l 722 326 q 705 249 722 290 q 660 172 688 207 q 601 118 633 136 l 301 -56 q 217 -62 253 -83 q 181 14 181 -42 l 181 153 l 301 222 l 301 83 l 601 257 l 601 590 l 301 417 m 264 1279 l 551 1629 l 615 1544 l 328 1194 l 264 1279 m 601 590 l 601 257 l 481 326 l 481 660 l 601 590 m 601 257 l 301 83 l 181 153 l 481 326 l 601 257 m 601 1063 l 601 868 l 481 938 l 481 1132 l 601 1063 m 301 222 l 181 153 l 60 222 l 181 292 l 301 222 m 181 153 l 181 14 q 217 -62 181 -42 l 96 7 q 60 83 60 28 l 60 222 l 181 153 m 686 736 q 601 729 649 757 l 301 556 l 181 625 l 481 799 q 565 806 529 826 l 686 736 m 686 1208 q 601 1201 649 1229 l 301 1028 q 242 974 269 1010 q 197 898 214 939 q 181 819 181 857 l 181 486 q 217 410 181 431 l 96 479 q 60 556 60 500 l 60 889 q 76 967 60 926 q 121 1044 93 1008 q 181 1097 149 1079 l 481 1271 q 565 1278 529 1299 l 686 1208 m 551 1629 l 264 1279 l 143 1349 l 431 1699 l 551 1629 m 264 1279 l 328 1194 l 207 1264 l 143 1349 l 264 1279 z "},"Š":{"ha":782,"x_min":60,"x_max":722,"o":"m 301 417 q 217 410 253 389 q 181 486 181 431 l 181 819 q 197 898 181 857 q 242 974 214 939 q 301 1028 269 1010 l 601 1201 q 685 1208 649 1229 q 722 1132 722 1188 l 722 938 l 601 868 l 601 1063 l 301 889 l 301 556 l 601 729 q 685 736 649 757 q 722 660 722 715 l 722 326 q 705 249 722 290 q 660 172 688 207 q 601 118 633 136 l 301 -56 q 217 -62 253 -83 q 181 14 181 -42 l 181 153 l 301 222 l 301 83 l 601 257 l 601 590 l 301 417 m 485 1293 l 229 1331 l 292 1464 l 456 1428 l 621 1654 l 692 1574 l 485 1293 m 601 590 l 601 257 l 481 326 l 481 660 l 601 590 m 601 257 l 301 83 l 181 153 l 481 326 l 601 257 m 601 1063 l 601 868 l 481 938 l 481 1132 l 601 1063 m 621 1654 l 456 1428 l 336 1497 l 500 1724 l 621 1654 m 456 1428 l 292 1464 l 171 1533 l 336 1497 l 456 1428 m 301 222 l 181 153 l 60 222 l 181 292 l 301 222 m 181 153 l 181 14 q 217 -62 181 -42 l 96 7 q 60 83 60 28 l 60 222 l 181 153 m 686 736 q 601 729 649 757 l 301 556 l 181 625 l 481 799 q 565 806 529 826 l 686 736 m 686 1208 q 601 1201 649 1229 l 301 1028 q 242 974 269 1010 q 197 898 214 939 q 181 819 181 857 l 181 486 q 217 410 181 431 l 96 479 q 60 556 60 500 l 60 889 q 76 967 60 926 q 121 1044 93 1008 q 181 1097 149 1079 l 481 1271 q 565 1278 529 1299 l 686 1208 m 292 1464 l 229 1331 l 108 1400 l 171 1533 l 292 1464 z "},"Ş":{"ha":782,"x_min":60,"x_max":722,"o":"m 301 417 q 217 410 253 389 q 181 486 181 431 l 181 819 q 197 898 181 857 q 242 974 214 939 q 301 1028 269 1010 l 601 1201 q 685 1208 649 1229 q 722 1132 722 1188 l 722 938 l 601 868 l 601 1063 l 301 889 l 301 556 l 601 729 q 685 736 649 757 q 722 660 722 715 l 722 326 q 705 249 722 290 q 660 172 688 207 q 601 118 633 136 l 301 -56 q 217 -62 253 -83 q 181 14 181 -42 l 181 153 l 301 222 l 301 83 l 601 257 l 601 590 l 301 417 m 457 35 q 542 42 506 63 q 578 -35 578 21 q 561 -112 578 -71 q 517 -190 544 -154 q 457 -243 489 -225 l 336 -312 l 336 -174 l 457 -104 l 457 35 m 601 590 l 601 257 l 481 326 l 481 660 l 601 590 m 601 1063 l 601 868 l 481 938 l 481 1132 l 601 1063 m 542 42 q 457 35 506 63 l 336 104 q 421 111 385 132 l 542 42 m 457 35 l 457 -104 l 336 -35 l 336 104 l 457 35 m 457 -104 l 336 -174 l 217 -104 l 336 -35 l 457 -104 m 336 -174 l 336 -312 l 217 -243 l 217 -104 l 336 -174 m 601 257 l 301 83 l 181 153 l 481 326 l 601 257 m 686 736 q 601 729 649 757 l 301 556 l 181 625 l 481 799 q 565 806 529 826 l 686 736 m 301 222 l 181 153 l 60 222 l 181 292 l 301 222 m 181 153 l 181 14 q 217 -62 181 -42 l 96 7 q 60 83 60 28 l 60 222 l 181 153 m 686 1208 q 601 1201 649 1229 l 301 1028 q 242 974 269 1010 q 197 898 214 939 q 181 819 181 857 l 181 486 q 217 410 181 431 l 96 479 q 60 556 60 500 l 60 889 q 76 967 60 926 q 121 1044 93 1008 q 181 1097 149 1079 l 481 1271 q 565 1278 529 1299 l 686 1208 z "},"Ŝ":{"ha":782,"x_min":60,"x_max":722,"o":"m 301 417 q 217 410 253 389 q 181 486 181 431 l 181 819 q 197 898 181 857 q 242 974 214 939 q 301 1028 269 1010 l 601 1201 q 685 1208 649 1229 q 722 1132 722 1188 l 722 938 l 601 868 l 601 1063 l 301 889 l 301 556 l 601 729 q 685 736 649 757 q 722 660 722 715 l 722 326 q 705 249 722 290 q 660 172 688 207 q 601 118 633 136 l 301 -56 q 217 -62 253 -83 q 181 14 181 -42 l 181 153 l 301 222 l 301 83 l 601 257 l 601 590 l 301 417 m 468 1435 l 286 1185 l 219 1257 l 451 1574 l 682 1524 l 625 1399 l 468 1435 m 601 590 l 601 257 l 481 326 l 481 660 l 601 590 m 601 257 l 301 83 l 181 153 l 481 326 l 601 257 m 601 1063 l 601 868 l 481 938 l 481 1132 l 601 1063 m 682 1524 l 451 1574 l 331 1643 l 561 1593 l 682 1524 m 301 222 l 181 153 l 60 222 l 181 292 l 301 222 m 181 153 l 181 14 q 217 -62 181 -42 l 96 7 q 60 83 60 28 l 60 222 l 181 153 m 686 736 q 601 729 649 757 l 301 556 l 181 625 l 481 799 q 565 806 529 826 l 686 736 m 686 1208 q 601 1201 649 1229 l 301 1028 q 242 974 269 1010 q 197 898 214 939 q 181 819 181 857 l 181 486 q 217 410 181 431 l 96 479 q 60 556 60 500 l 60 889 q 76 967 60 926 q 121 1044 93 1008 q 181 1097 149 1079 l 481 1271 q 565 1278 529 1299 l 686 1208 m 451 1574 l 219 1257 l 100 1326 l 331 1643 l 451 1574 m 219 1257 l 286 1185 l 167 1254 l 100 1326 l 219 1257 z "},"T":{"ha":794,"x_min":60,"x_max":733,"o":"m 397 889 l 181 764 l 181 903 l 733 1222 l 733 1083 l 517 958 l 517 0 l 397 -69 l 397 889 m 397 889 l 397 -69 l 276 0 l 276 958 l 397 889 m 733 1222 l 181 903 l 60 972 l 614 1292 l 733 1222 m 181 903 l 181 764 l 60 833 l 60 972 l 181 903 z "},"Ť":{"ha":794,"x_min":60,"x_max":733,"o":"m 397 889 l 181 764 l 181 903 l 733 1222 l 733 1083 l 517 958 l 517 0 l 397 -69 l 397 889 m 479 1233 l 222 1271 l 285 1406 l 450 1369 l 614 1596 l 685 1514 l 479 1233 m 397 889 l 397 -69 l 276 0 l 276 958 l 397 889 m 733 1222 l 181 903 l 60 972 l 614 1292 l 733 1222 m 181 903 l 181 764 l 60 833 l 60 972 l 181 903 m 614 1596 l 450 1369 l 329 1439 l 494 1665 l 614 1596 m 450 1369 l 285 1406 l 165 1475 l 329 1439 l 450 1369 m 285 1406 l 222 1271 l 103 1340 l 165 1475 l 285 1406 z "},"Þ":{"ha":782,"x_min":60,"x_max":722,"o":"m 301 1028 l 301 694 q 318 773 301 732 q 362 849 335 814 q 421 903 389 885 l 601 1007 q 685 1014 649 1035 q 722 938 722 993 l 722 521 q 705 443 722 485 q 660 366 688 401 q 601 313 633 331 l 301 139 l 301 0 l 181 -69 l 181 958 l 301 1028 m 601 868 l 301 694 l 301 278 l 601 451 l 601 868 m 601 868 l 601 451 l 481 521 l 481 938 l 601 868 m 601 451 l 301 278 l 181 347 l 481 521 l 601 451 m 686 1014 q 601 1007 649 1035 l 421 903 q 362 849 389 885 q 318 773 335 814 q 301 694 301 732 l 181 764 q 197 842 181 801 q 242 919 214 883 q 301 972 269 954 l 481 1076 q 565 1083 529 1104 l 686 1014 m 301 1028 l 181 958 l 60 1028 l 181 1097 l 301 1028 m 181 958 l 181 -69 l 60 0 l 60 1028 l 181 958 z "},"U":{"ha":782,"x_min":60,"x_max":722,"o":"m 601 118 l 301 -56 q 217 -62 253 -83 q 181 14 181 -42 l 181 903 l 301 972 l 301 83 l 601 257 l 601 1146 l 722 1215 l 722 326 q 705 249 722 290 q 660 172 688 207 q 601 118 633 136 m 722 1215 l 601 1146 l 481 1215 l 601 1285 l 722 1215 m 601 1146 l 601 257 l 481 326 l 481 1215 l 601 1146 m 601 257 l 301 83 l 181 153 l 481 326 l 601 257 m 301 972 l 181 903 l 60 972 l 181 1042 l 301 972 m 181 903 l 181 14 q 217 -62 181 -42 l 96 7 q 60 83 60 28 l 60 972 l 181 903 z "},"Ú":{"ha":782,"x_min":60,"x_max":722,"o":"m 601 118 l 301 -56 q 217 -62 253 -83 q 181 14 181 -42 l 181 903 l 301 972 l 301 83 l 601 257 l 601 1146 l 722 1215 l 722 326 q 705 249 722 290 q 660 172 688 207 q 601 118 633 136 m 264 1224 l 551 1574 l 615 1489 l 328 1139 l 264 1224 m 722 1215 l 601 1146 l 481 1215 l 601 1285 l 722 1215 m 601 1146 l 601 257 l 481 326 l 481 1215 l 601 1146 m 601 257 l 301 83 l 181 153 l 481 326 l 601 257 m 301 972 l 181 903 l 60 972 l 181 1042 l 301 972 m 181 903 l 181 14 q 217 -62 181 -42 l 96 7 q 60 83 60 28 l 60 972 l 181 903 m 551 1574 l 264 1224 l 143 1293 l 431 1643 l 551 1574 m 264 1224 l 328 1139 l 207 1208 l 143 1293 l 264 1224 z "},"Ŭ":{"ha":782,"x_min":60,"x_max":722,"o":"m 601 118 l 301 -56 q 217 -62 253 -83 q 181 14 181 -42 l 181 903 l 301 972 l 301 83 l 601 257 l 601 1146 l 722 1215 l 722 326 q 705 249 722 290 q 660 172 688 207 q 601 118 633 136 m 451 1226 q 333 1196 388 1189 q 244 1247 278 1203 q 211 1365 211 1292 l 331 1435 q 367 1358 331 1379 q 451 1365 403 1338 q 510 1418 483 1383 q 554 1494 538 1453 q 571 1574 571 1536 l 692 1643 q 672 1526 692 1588 q 619 1407 653 1465 q 542 1301 586 1349 q 451 1226 499 1253 m 722 1215 l 601 1146 l 481 1215 l 601 1285 l 722 1215 m 601 1146 l 601 257 l 481 326 l 481 1215 l 601 1146 m 601 257 l 301 83 l 181 153 l 481 326 l 601 257 m 692 1643 l 571 1574 l 451 1643 l 571 1713 l 692 1643 m 301 972 l 181 903 l 60 972 l 181 1042 l 301 972 m 181 903 l 181 14 q 217 -62 181 -42 l 96 7 q 60 83 60 28 l 60 972 l 181 903 m 571 1574 q 554 1494 571 1536 q 510 1418 538 1453 q 451 1365 483 1383 q 367 1358 403 1338 l 247 1428 q 331 1435 283 1407 q 390 1488 363 1453 q 435 1564 418 1522 q 451 1643 451 1606 l 571 1574 m 211 1365 q 231 1271 211 1310 q 283 1213 250 1232 l 163 1282 q 110 1340 129 1301 q 90 1435 90 1379 l 211 1365 m 331 1435 l 211 1365 l 90 1435 l 211 1504 l 331 1435 z "},"Û":{"ha":782,"x_min":60,"x_max":722,"o":"m 601 118 l 301 -56 q 217 -62 253 -83 q 181 14 181 -42 l 181 903 l 301 972 l 301 83 l 601 257 l 601 1146 l 722 1215 l 722 326 q 705 249 722 290 q 660 172 688 207 q 601 118 633 136 m 468 1379 l 286 1129 l 219 1201 l 451 1518 l 682 1468 l 625 1343 l 468 1379 m 722 1215 l 601 1146 l 481 1215 l 601 1285 l 722 1215 m 601 1146 l 601 257 l 481 326 l 481 1215 l 601 1146 m 601 257 l 301 83 l 181 153 l 481 326 l 601 257 m 682 1468 l 451 1518 l 331 1588 l 561 1538 l 682 1468 m 301 972 l 181 903 l 60 972 l 181 1042 l 301 972 m 181 903 l 181 14 q 217 -62 181 -42 l 96 7 q 60 83 60 28 l 60 972 l 181 903 m 451 1518 l 219 1201 l 100 1271 l 331 1588 l 451 1518 m 219 1201 l 286 1129 l 167 1199 l 100 1271 l 219 1201 z "},"Ü":{"ha":782,"x_min":60,"x_max":722,"o":"m 601 118 l 301 -56 q 217 -62 253 -83 q 181 14 181 -42 l 181 903 l 301 972 l 301 83 l 601 257 l 601 1146 l 722 1215 l 722 326 q 705 249 722 290 q 660 172 688 207 q 601 118 633 136 m 301 1125 q 240 1118 264 1104 q 217 1174 217 1132 q 240 1257 217 1215 q 301 1319 264 1299 q 361 1326 338 1340 q 385 1271 385 1313 q 361 1188 385 1229 q 301 1125 338 1146 m 601 1299 q 541 1292 565 1278 q 517 1347 517 1306 q 541 1431 517 1389 q 601 1493 565 1472 q 662 1500 638 1514 q 686 1444 686 1486 q 662 1361 686 1403 q 601 1299 638 1319 m 722 1215 l 601 1146 l 481 1215 l 601 1285 l 722 1215 m 601 1146 l 601 257 l 481 326 l 481 1215 l 601 1146 m 601 257 l 301 83 l 181 153 l 481 326 l 601 257 m 301 972 l 181 903 l 60 972 l 181 1042 l 301 972 m 181 903 l 181 14 q 217 -62 181 -42 l 96 7 q 60 83 60 28 l 60 972 l 181 903 m 361 1326 q 301 1319 338 1340 q 240 1257 264 1299 q 217 1174 217 1215 q 240 1118 217 1132 l 119 1188 q 96 1243 96 1201 q 120 1326 96 1285 q 181 1389 144 1368 q 240 1396 217 1410 l 361 1326 m 663 1500 q 601 1493 638 1514 q 541 1431 565 1472 q 517 1347 517 1389 q 542 1292 517 1306 l 421 1361 q 397 1417 397 1375 q 421 1500 397 1458 q 481 1563 444 1542 q 542 1569 518 1583 l 663 1500 z "},"Ù":{"ha":782,"x_min":60,"x_max":722,"o":"m 601 118 l 301 -56 q 217 -62 253 -83 q 181 14 181 -42 l 181 903 l 301 972 l 301 83 l 601 257 l 601 1146 l 722 1215 l 722 326 q 705 249 722 290 q 660 172 688 207 q 601 118 633 136 m 292 1492 l 626 1413 l 558 1268 l 224 1346 l 292 1492 m 722 1215 l 601 1146 l 481 1215 l 601 1285 l 722 1215 m 601 1146 l 601 257 l 481 326 l 481 1215 l 601 1146 m 601 257 l 301 83 l 181 153 l 481 326 l 601 257 m 626 1413 l 292 1492 l 172 1561 l 507 1482 l 626 1413 m 301 972 l 181 903 l 60 972 l 181 1042 l 301 972 m 181 903 l 181 14 q 217 -62 181 -42 l 96 7 q 60 83 60 28 l 60 972 l 181 903 m 292 1492 l 224 1346 l 103 1415 l 172 1561 l 292 1492 z "},"Ű":{"ha":782,"x_min":60,"x_max":722,"o":"m 601 118 l 301 -56 q 217 -62 253 -83 q 181 14 181 -42 l 181 903 l 301 972 l 301 83 l 601 257 l 601 1146 l 722 1215 l 722 326 q 705 249 722 290 q 660 172 688 207 q 601 118 633 136 m 194 1179 l 349 1469 l 444 1436 l 292 1146 l 194 1179 m 471 1339 l 625 1629 l 721 1596 l 568 1306 l 471 1339 m 722 1215 l 601 1146 l 481 1215 l 601 1285 l 722 1215 m 601 1146 l 601 257 l 481 326 l 481 1215 l 601 1146 m 601 257 l 301 83 l 181 153 l 481 326 l 601 257 m 721 1596 l 625 1629 l 506 1699 l 600 1665 l 721 1596 m 301 972 l 181 903 l 60 972 l 181 1042 l 301 972 m 181 903 l 181 14 q 217 -62 181 -42 l 96 7 q 60 83 60 28 l 60 972 l 181 903 m 625 1629 l 471 1339 l 351 1408 l 506 1699 l 625 1629 m 444 1436 l 349 1469 l 229 1539 l 324 1506 l 444 1436 m 349 1469 l 194 1179 l 75 1249 l 229 1539 l 349 1469 z "},"Ū":{"ha":782,"x_min":60,"x_max":722,"o":"m 601 118 l 301 -56 q 217 -62 253 -83 q 181 14 181 -42 l 181 903 l 301 972 l 301 83 l 601 257 l 601 1146 l 722 1215 l 722 326 q 705 249 722 290 q 660 172 688 207 q 601 118 633 136 m 217 1243 l 638 1486 l 638 1347 l 217 1104 l 217 1243 m 722 1215 l 601 1146 l 481 1215 l 601 1285 l 722 1215 m 601 1146 l 601 257 l 481 326 l 481 1215 l 601 1146 m 601 257 l 301 83 l 181 153 l 481 326 l 601 257 m 301 972 l 181 903 l 60 972 l 181 1042 l 301 972 m 181 903 l 181 14 q 217 -62 181 -42 l 96 7 q 60 83 60 28 l 60 972 l 181 903 m 638 1486 l 217 1243 l 96 1313 l 517 1556 l 638 1486 m 217 1243 l 217 1104 l 96 1174 l 96 1313 l 217 1243 z "},"Ų":{"ha":782,"x_min":60,"x_max":722,"o":"m 601 118 l 601 -21 l 722 49 l 722 -90 l 601 -160 q 517 -167 554 -187 q 481 -90 481 -146 q 498 -12 481 -53 q 542 65 515 29 q 601 118 569 100 l 301 -56 q 217 -62 253 -83 q 181 14 181 -42 l 181 903 l 301 972 l 301 83 l 601 257 l 601 1146 l 722 1215 l 722 326 q 705 249 722 290 q 660 172 688 207 q 601 118 633 136 m 722 1215 l 601 1146 l 481 1215 l 601 1285 l 722 1215 m 601 1146 l 601 257 l 481 326 l 481 1215 l 601 1146 m 722 49 l 601 -21 l 481 49 l 601 118 l 722 49 m 301 972 l 181 903 l 60 972 l 181 1042 l 301 972 m 601 118 q 542 65 569 100 q 498 -12 515 29 q 481 -90 481 -53 q 517 -167 481 -146 l 397 -97 q 361 -21 361 -76 q 378 57 361 15 q 422 134 394 99 q 481 188 449 169 l 601 118 m 601 257 l 301 83 l 181 153 l 481 326 l 601 257 m 181 903 l 181 14 q 217 -62 181 -42 l 96 7 q 60 83 60 28 l 60 972 l 181 903 z "},"Ů":{"ha":782,"x_min":60,"x_max":722,"o":"m 601 118 l 301 -56 q 217 -62 253 -83 q 181 14 181 -42 l 181 903 l 301 972 l 301 83 l 601 257 l 601 1146 l 722 1215 l 722 326 q 705 249 722 290 q 660 172 688 207 q 601 118 633 136 m 451 1449 q 537 1458 503 1478 q 571 1379 571 1438 q 537 1260 571 1319 q 451 1171 503 1200 q 365 1160 400 1140 q 331 1240 331 1181 q 365 1358 331 1299 q 451 1449 400 1418 m 451 1354 q 424 1325 436 1346 q 413 1286 413 1304 q 424 1262 413 1268 q 451 1264 436 1256 q 478 1293 467 1272 q 490 1332 490 1314 q 478 1356 490 1350 q 451 1354 467 1363 m 722 1215 l 601 1146 l 481 1215 l 601 1285 l 722 1215 m 601 1146 l 601 257 l 481 326 l 481 1215 l 601 1146 m 601 257 l 301 83 l 181 153 l 481 326 l 601 257 m 301 972 l 181 903 l 60 972 l 181 1042 l 301 972 m 181 903 l 181 14 q 217 -62 181 -42 l 96 7 q 60 83 60 28 l 60 972 l 181 903 m 478 1357 q 490 1332 490 1350 q 478 1293 490 1314 q 451 1264 467 1272 q 424 1261 436 1256 l 303 1331 q 331 1333 315 1325 q 358 1363 346 1342 q 369 1401 369 1383 q 358 1426 369 1419 l 478 1357 m 538 1458 q 451 1449 503 1478 q 365 1358 400 1418 q 331 1240 331 1299 q 365 1160 331 1181 l 244 1229 q 211 1310 211 1250 q 245 1428 211 1368 q 331 1517 279 1488 q 417 1528 382 1547 l 538 1458 z "},"Ũ":{"ha":782,"x_min":44,"x_max":722,"o":"m 601 118 l 301 -56 q 217 -62 253 -83 q 181 14 181 -42 l 181 903 l 301 972 l 301 83 l 601 257 l 601 1146 l 722 1215 l 722 326 q 705 249 722 290 q 660 172 688 207 q 601 118 633 136 m 260 1101 l 165 1136 l 275 1357 q 345 1442 304 1418 q 433 1449 386 1465 l 528 1417 l 617 1597 l 713 1563 l 603 1342 q 533 1258 574 1282 q 444 1250 492 1235 l 350 1283 l 260 1101 m 722 1215 l 601 1146 l 481 1215 l 601 1285 l 722 1215 m 601 1146 l 601 257 l 481 326 l 481 1215 l 601 1146 m 601 257 l 301 83 l 181 153 l 481 326 l 601 257 m 713 1563 l 617 1597 l 497 1667 l 592 1632 l 713 1563 m 617 1597 l 528 1417 l 407 1486 l 497 1667 l 617 1597 m 301 972 l 181 903 l 60 972 l 181 1042 l 301 972 m 181 903 l 181 14 q 217 -62 181 -42 l 96 7 q 60 83 60 28 l 60 972 l 181 903 m 528 1417 l 433 1449 q 345 1442 386 1465 q 275 1357 304 1418 l 165 1136 l 44 1206 l 154 1426 q 225 1511 183 1488 q 313 1518 267 1535 l 407 1486 l 528 1417 z "},"V":{"ha":782,"x_min":60,"x_max":722,"o":"m 421 -42 q 338 -49 374 -69 q 301 28 301 -28 l 601 201 l 601 1146 l 722 1215 l 722 410 q 705 332 722 374 q 660 255 688 290 q 601 201 633 219 q 585 124 601 165 q 540 47 568 82 q 481 -7 513 11 l 421 -42 m 301 28 q 217 21 253 0 q 181 97 181 42 l 181 903 l 301 972 l 301 28 m 722 1215 l 601 1146 l 481 1215 l 601 1285 l 722 1215 m 601 1146 l 601 201 l 481 271 l 481 1215 l 601 1146 m 601 201 l 301 28 l 181 97 l 481 271 l 601 201 m 301 28 q 338 -49 301 -28 l 217 21 q 181 97 181 42 l 301 28 m 301 972 l 181 903 l 60 972 l 181 1042 l 301 972 m 181 903 l 181 97 q 217 21 181 42 l 96 90 q 60 167 60 111 l 60 972 l 181 903 z "},"W":{"ha":963,"x_min":60,"x_max":903,"o":"m 421 -42 q 338 -49 374 -69 q 301 28 301 -28 l 481 132 l 481 1076 l 601 1146 l 601 201 l 782 306 l 782 1250 l 903 1319 l 903 514 q 885 436 903 478 q 841 359 868 394 q 782 306 814 324 q 765 228 782 269 q 721 151 749 186 q 661 97 693 115 l 421 -42 m 301 28 q 217 21 253 0 q 181 97 181 42 l 181 903 l 301 972 l 301 28 m 903 1319 l 782 1250 l 661 1319 l 782 1389 l 903 1319 m 782 1250 l 782 306 l 661 375 l 661 1319 l 782 1250 m 782 306 l 601 201 l 481 271 l 661 375 l 782 306 m 481 132 l 301 28 l 181 97 l 361 201 l 481 132 m 301 28 q 338 -49 301 -28 l 217 21 q 181 97 181 42 l 301 28 m 601 1146 l 481 1076 l 361 1146 l 481 1215 l 601 1146 m 481 1076 l 481 132 l 361 201 l 361 1146 l 481 1076 m 301 972 l 181 903 l 60 972 l 181 1042 l 301 972 m 181 903 l 181 97 q 217 21 181 42 l 96 90 q 60 167 60 111 l 60 972 l 181 903 z "},"Ẃ":{"ha":963,"x_min":60,"x_max":903,"o":"m 421 -42 q 338 -49 374 -69 q 301 28 301 -28 q 217 21 253 0 q 181 97 181 42 l 181 903 l 301 972 l 301 28 l 481 132 l 481 1076 l 601 1146 l 601 201 l 782 306 l 782 1250 l 903 1319 l 903 514 q 885 436 903 478 q 841 359 868 394 q 782 306 814 324 q 765 228 782 269 q 721 151 749 186 q 661 97 693 115 l 421 -42 m 347 1272 l 635 1622 l 699 1538 l 411 1188 l 347 1272 m 903 1319 l 782 1250 l 661 1319 l 782 1389 l 903 1319 m 782 1250 l 782 306 l 661 375 l 661 1319 l 782 1250 m 782 306 l 601 201 l 481 271 l 661 375 l 782 306 m 481 132 l 301 28 l 181 97 l 361 201 l 481 132 m 301 28 q 338 -49 301 -28 l 217 21 q 181 97 181 42 l 301 28 m 601 1146 l 481 1076 l 361 1146 l 481 1215 l 601 1146 m 481 1076 l 481 132 l 361 201 l 361 1146 l 481 1076 m 301 972 l 181 903 l 60 972 l 181 1042 l 301 972 m 181 903 l 181 97 q 217 21 181 42 l 96 90 q 60 167 60 111 l 60 972 l 181 903 m 635 1622 l 347 1272 l 228 1342 l 515 1692 l 635 1622 m 347 1272 l 411 1188 l 292 1257 l 228 1342 l 347 1272 z "},"Ŵ":{"ha":963,"x_min":60,"x_max":903,"o":"m 421 -42 q 338 -49 374 -69 q 301 28 301 -28 q 217 21 253 0 q 181 97 181 42 l 181 903 l 301 972 l 301 28 l 481 132 l 481 1076 l 601 1146 l 601 201 l 782 306 l 782 1250 l 903 1319 l 903 514 q 885 436 903 478 q 841 359 868 394 q 782 306 814 324 q 765 228 782 269 q 721 151 749 186 q 661 97 693 115 l 421 -42 m 558 1431 l 376 1182 l 310 1253 l 542 1569 l 772 1519 l 715 1394 l 558 1431 m 903 1319 l 782 1250 l 661 1319 l 782 1389 l 903 1319 m 782 1250 l 782 306 l 661 375 l 661 1319 l 782 1250 m 782 306 l 601 201 l 481 271 l 661 375 l 782 306 m 481 132 l 301 28 l 181 97 l 361 201 l 481 132 m 301 28 q 338 -49 301 -28 l 217 21 q 181 97 181 42 l 301 28 m 772 1519 l 542 1569 l 421 1639 l 651 1589 l 772 1519 m 601 1146 l 481 1076 l 361 1146 l 481 1215 l 601 1146 m 481 1076 l 481 132 l 361 201 l 361 1146 l 481 1076 m 301 972 l 181 903 l 60 972 l 181 1042 l 301 972 m 181 903 l 181 97 q 217 21 181 42 l 96 90 q 60 167 60 111 l 60 972 l 181 903 m 542 1569 l 310 1253 l 190 1322 l 421 1639 l 542 1569 m 310 1253 l 376 1182 l 256 1251 l 190 1322 l 310 1253 z "},"Ẅ":{"ha":963,"x_min":60,"x_max":903,"o":"m 421 -42 q 338 -49 374 -69 q 301 28 301 -28 q 217 21 253 0 q 181 97 181 42 l 181 903 l 301 972 l 301 28 l 481 132 l 481 1076 l 601 1146 l 601 201 l 782 306 l 782 1250 l 903 1319 l 903 514 q 885 436 903 478 q 841 359 868 394 q 782 306 814 324 q 765 228 782 269 q 721 151 749 186 q 661 97 693 115 l 421 -42 m 390 1178 q 331 1169 354 1156 q 307 1226 307 1183 q 331 1309 307 1268 q 390 1372 354 1350 q 451 1379 428 1393 q 475 1324 475 1365 q 451 1240 475 1281 q 390 1178 428 1199 m 692 1351 q 631 1343 656 1329 q 607 1400 607 1357 q 631 1483 607 1442 q 692 1546 656 1524 q 752 1553 728 1567 q 776 1497 776 1539 q 752 1413 776 1454 q 692 1351 728 1372 m 903 1319 l 782 1250 l 661 1319 l 782 1389 l 903 1319 m 782 1250 l 782 306 l 661 375 l 661 1319 l 782 1250 m 782 306 l 601 201 l 481 271 l 661 375 l 782 306 m 481 132 l 301 28 l 181 97 l 361 201 l 481 132 m 301 28 q 338 -49 301 -28 l 217 21 q 181 97 181 42 l 301 28 m 601 1146 l 481 1076 l 361 1146 l 481 1215 l 601 1146 m 481 1076 l 481 132 l 361 201 l 361 1146 l 481 1076 m 751 1553 q 692 1546 728 1567 q 631 1483 656 1524 q 607 1400 607 1442 q 631 1343 607 1357 l 511 1413 q 488 1469 488 1426 q 511 1552 488 1511 q 571 1615 535 1593 q 632 1622 608 1636 l 751 1553 m 301 972 l 181 903 l 60 972 l 181 1042 l 301 972 m 181 903 l 181 97 q 217 21 181 42 l 96 90 q 60 167 60 111 l 60 972 l 181 903 m 451 1379 q 390 1372 428 1393 q 331 1309 354 1350 q 307 1226 307 1268 q 331 1169 307 1183 l 210 1239 q 186 1296 186 1253 q 210 1378 186 1338 q 271 1442 233 1419 q 331 1449 307 1463 l 451 1379 z "},"Ẁ":{"ha":963,"x_min":60,"x_max":903,"o":"m 421 -42 q 338 -49 374 -69 q 301 28 301 -28 q 217 21 253 0 q 181 97 181 42 l 181 903 l 301 972 l 301 28 l 481 132 l 481 1076 l 601 1146 l 601 201 l 782 306 l 782 1250 l 903 1319 l 903 514 q 885 436 903 478 q 841 359 868 394 q 782 306 814 324 q 765 228 782 269 q 721 151 749 186 q 661 97 693 115 l 421 -42 m 382 1543 l 717 1464 l 649 1321 l 314 1399 l 382 1543 m 903 1319 l 782 1250 l 661 1319 l 782 1389 l 903 1319 m 782 1250 l 782 306 l 661 375 l 661 1319 l 782 1250 m 782 306 l 601 201 l 481 271 l 661 375 l 782 306 m 481 132 l 301 28 l 181 97 l 361 201 l 481 132 m 301 28 q 338 -49 301 -28 l 217 21 q 181 97 181 42 l 301 28 m 601 1146 l 481 1076 l 361 1146 l 481 1215 l 601 1146 m 481 1076 l 481 132 l 361 201 l 361 1146 l 481 1076 m 717 1464 l 382 1543 l 263 1613 l 597 1533 l 717 1464 m 382 1543 l 314 1399 l 193 1468 l 263 1613 l 382 1543 m 301 972 l 181 903 l 60 972 l 181 1042 l 301 972 m 181 903 l 181 97 q 217 21 181 42 l 96 90 q 60 167 60 111 l 60 972 l 181 903 z "},"X":{"ha":782,"x_min":60,"x_max":722,"o":"m 181 903 l 301 972 l 301 556 l 601 729 l 601 1146 l 722 1215 l 722 938 q 705 860 722 901 q 660 783 688 818 q 601 729 633 747 q 685 736 649 757 q 722 660 722 715 l 722 243 l 601 174 l 601 590 l 301 417 l 301 0 l 181 -69 l 181 208 q 197 287 181 246 q 242 363 214 328 q 301 417 269 399 q 217 410 253 389 q 181 486 181 431 l 181 903 m 601 590 l 601 174 l 481 243 l 481 660 l 601 590 m 686 736 q 601 729 649 757 l 481 799 q 565 806 529 826 l 686 736 m 722 1215 l 601 1146 l 481 1215 l 601 1285 l 722 1215 m 301 417 q 242 363 269 399 q 197 287 214 328 q 181 208 181 246 l 181 -69 l 60 0 l 60 278 q 76 356 60 315 q 121 433 93 397 q 181 486 149 468 l 301 417 m 601 1146 l 601 729 l 481 799 l 481 1215 l 601 1146 m 601 729 l 301 556 l 181 625 l 481 799 l 601 729 m 301 972 l 181 903 l 60 972 l 181 1042 l 301 972 m 181 903 l 181 486 q 217 410 181 431 l 96 479 q 60 556 60 500 l 60 972 l 181 903 z "},"Y":{"ha":794,"x_min":60,"x_max":733,"o":"m 397 333 l 301 278 q 217 271 253 250 q 181 347 181 292 l 181 903 l 301 972 l 301 417 l 614 597 l 614 1153 l 733 1222 l 733 667 q 717 589 733 631 q 673 512 700 547 q 614 458 646 476 l 517 403 l 517 -14 l 397 -83 l 397 333 m 397 333 l 397 -83 l 276 -14 l 276 403 l 397 333 m 733 1222 l 614 1153 l 493 1222 l 614 1292 l 733 1222 m 614 1153 l 614 597 l 493 667 l 493 1222 l 614 1153 m 614 597 l 301 417 l 181 486 l 493 667 l 614 597 m 301 972 l 181 903 l 60 972 l 181 1042 l 301 972 m 181 903 l 181 347 q 217 271 181 292 l 96 340 q 60 417 60 361 l 60 972 l 181 903 z "},"Ý":{"ha":794,"x_min":60,"x_max":733,"o":"m 397 333 l 301 278 q 217 271 253 250 q 181 347 181 292 l 181 903 l 301 972 l 301 417 l 614 597 l 614 1153 l 733 1222 l 733 667 q 717 589 733 631 q 673 512 700 547 q 614 458 646 476 l 517 403 l 517 -14 l 397 -83 l 397 333 m 264 1224 l 551 1574 l 615 1489 l 328 1139 l 264 1224 m 397 333 l 397 -83 l 276 -14 l 276 403 l 397 333 m 733 1222 l 614 1153 l 493 1222 l 614 1292 l 733 1222 m 614 1153 l 614 597 l 493 667 l 493 1222 l 614 1153 m 614 597 l 301 417 l 181 486 l 493 667 l 614 597 m 301 972 l 181 903 l 60 972 l 181 1042 l 301 972 m 181 903 l 181 347 q 217 271 181 292 l 96 340 q 60 417 60 361 l 60 972 l 181 903 m 551 1574 l 264 1224 l 143 1293 l 431 1643 l 551 1574 m 264 1224 l 328 1139 l 207 1208 l 143 1293 l 264 1224 z "},"Ŷ":{"ha":794,"x_min":60,"x_max":733,"o":"m 397 333 l 301 278 q 217 271 253 250 q 181 347 181 292 l 181 903 l 301 972 l 301 417 l 614 597 l 614 1153 l 733 1222 l 733 667 q 717 589 733 631 q 673 512 700 547 q 614 458 646 476 l 517 403 l 517 -14 l 397 -83 l 397 333 m 475 1382 l 292 1133 l 226 1204 l 457 1521 l 688 1471 l 631 1346 l 475 1382 m 397 333 l 397 -83 l 276 -14 l 276 403 l 397 333 m 733 1222 l 614 1153 l 493 1222 l 614 1292 l 733 1222 m 614 1153 l 614 597 l 493 667 l 493 1222 l 614 1153 m 614 597 l 301 417 l 181 486 l 493 667 l 614 597 m 688 1471 l 457 1521 l 336 1590 l 568 1540 l 688 1471 m 301 972 l 181 903 l 60 972 l 181 1042 l 301 972 m 181 903 l 181 347 q 217 271 181 292 l 96 340 q 60 417 60 361 l 60 972 l 181 903 m 457 1521 l 226 1204 l 106 1274 l 336 1590 l 457 1521 m 226 1204 l 292 1133 l 172 1203 l 106 1274 l 226 1204 z "},"Ÿ":{"ha":794,"x_min":60,"x_max":733,"o":"m 397 333 l 301 278 q 217 271 253 250 q 181 347 181 292 l 181 903 l 301 972 l 301 417 l 614 597 l 614 1153 l 733 1222 l 733 667 q 717 589 733 631 q 673 512 700 547 q 614 458 646 476 l 517 403 l 517 -14 l 397 -83 l 397 333 m 307 1129 q 246 1121 269 1107 q 222 1178 222 1135 q 246 1260 222 1219 q 307 1324 269 1301 q 367 1331 343 1344 q 390 1275 390 1317 q 367 1191 390 1232 q 307 1129 343 1150 m 607 1303 q 547 1294 571 1281 q 524 1351 524 1308 q 547 1434 524 1393 q 607 1497 571 1475 q 668 1504 644 1518 q 692 1449 692 1490 q 668 1365 692 1406 q 607 1303 644 1324 m 397 333 l 397 -83 l 276 -14 l 276 403 l 397 333 m 733 1222 l 614 1153 l 493 1222 l 614 1292 l 733 1222 m 614 1153 l 614 597 l 493 667 l 493 1222 l 614 1153 m 614 597 l 301 417 l 181 486 l 493 667 l 614 597 m 301 972 l 181 903 l 60 972 l 181 1042 l 301 972 m 181 903 l 181 347 q 217 271 181 292 l 96 340 q 60 417 60 361 l 60 972 l 181 903 m 367 1331 q 307 1324 343 1344 q 246 1260 269 1301 q 222 1178 222 1219 q 246 1121 222 1135 l 126 1190 q 103 1247 103 1204 q 126 1330 103 1289 q 186 1393 150 1371 q 247 1400 224 1414 l 367 1331 m 668 1504 q 607 1497 644 1518 q 547 1434 571 1475 q 524 1351 524 1393 q 547 1294 524 1308 l 426 1364 q 403 1421 403 1378 q 426 1503 403 1463 q 488 1567 450 1544 q 547 1574 524 1588 l 668 1504 z "},"Ỳ":{"ha":794,"x_min":60,"x_max":733,"o":"m 397 333 l 301 278 q 217 271 253 250 q 181 347 181 292 l 181 903 l 301 972 l 301 417 l 614 597 l 614 1153 l 733 1222 l 733 667 q 717 589 733 631 q 673 512 700 547 q 614 458 646 476 l 517 403 l 517 -14 l 397 -83 l 397 333 m 299 1494 l 633 1415 l 564 1272 l 229 1350 l 299 1494 m 397 333 l 397 -83 l 276 -14 l 276 403 l 397 333 m 733 1222 l 614 1153 l 493 1222 l 614 1292 l 733 1222 m 614 1153 l 614 597 l 493 667 l 493 1222 l 614 1153 m 614 597 l 301 417 l 181 486 l 493 667 l 614 597 m 633 1415 l 299 1494 l 178 1564 l 513 1485 l 633 1415 m 301 972 l 181 903 l 60 972 l 181 1042 l 301 972 m 181 903 l 181 347 q 217 271 181 292 l 96 340 q 60 417 60 361 l 60 972 l 181 903 m 299 1494 l 229 1350 l 110 1419 l 178 1564 l 299 1494 z "},"Z":{"ha":782,"x_min":60,"x_max":722,"o":"m 301 556 l 601 729 l 601 1007 l 181 764 l 181 903 l 722 1215 l 722 799 q 705 721 722 763 q 660 644 688 679 q 601 590 633 608 l 301 417 l 301 139 l 722 382 l 722 243 l 181 -69 l 181 347 q 197 426 181 385 q 242 502 214 467 q 301 556 269 538 m 601 1007 l 601 729 l 481 799 l 481 1076 l 601 1007 m 722 382 l 301 139 l 181 208 l 601 451 l 722 382 m 601 729 l 301 556 q 242 502 269 538 q 197 426 214 467 q 181 347 181 385 l 181 -69 l 60 0 l 60 417 q 76 495 60 454 q 121 572 93 536 q 181 625 149 607 l 481 799 l 601 729 m 722 1215 l 181 903 l 60 972 l 601 1285 l 722 1215 m 181 903 l 181 764 l 60 833 l 60 972 l 181 903 z "},"Ź":{"ha":782,"x_min":60,"x_max":722,"o":"m 301 556 l 601 729 l 601 1007 l 181 764 l 181 903 l 722 1215 l 722 799 q 705 721 722 763 q 660 644 688 679 q 601 590 633 608 l 301 417 l 301 139 l 722 382 l 722 243 l 181 -69 l 181 347 q 197 426 181 385 q 242 502 214 467 q 301 556 269 538 m 264 1224 l 551 1574 l 615 1489 l 328 1139 l 264 1224 m 601 1007 l 601 729 l 481 799 l 481 1076 l 601 1007 m 722 382 l 301 139 l 181 208 l 601 451 l 722 382 m 601 729 l 301 556 q 242 502 269 538 q 197 426 214 467 q 181 347 181 385 l 181 -69 l 60 0 l 60 417 q 76 495 60 454 q 121 572 93 536 q 181 625 149 607 l 481 799 l 601 729 m 722 1215 l 181 903 l 60 972 l 601 1285 l 722 1215 m 181 903 l 181 764 l 60 833 l 60 972 l 181 903 m 551 1574 l 264 1224 l 143 1293 l 431 1643 l 551 1574 m 264 1224 l 328 1139 l 207 1208 l 143 1293 l 264 1224 z "},"Ž":{"ha":782,"x_min":60,"x_max":722,"o":"m 301 556 l 601 729 l 601 1007 l 181 764 l 181 903 l 722 1215 l 722 799 q 705 721 722 763 q 660 644 688 679 q 601 590 633 608 l 301 417 l 301 139 l 722 382 l 722 243 l 181 -69 l 181 347 q 197 426 181 385 q 242 502 214 467 q 301 556 269 538 m 485 1251 l 229 1289 l 292 1422 l 456 1386 l 621 1613 l 692 1532 l 485 1251 m 601 1007 l 601 729 l 481 799 l 481 1076 l 601 1007 m 722 382 l 301 139 l 181 208 l 601 451 l 722 382 m 621 1613 l 456 1386 l 336 1456 l 500 1682 l 621 1613 m 601 729 l 301 556 q 242 502 269 538 q 197 426 214 467 q 181 347 181 385 l 181 -69 l 60 0 l 60 417 q 76 495 60 454 q 121 572 93 536 q 181 625 149 607 l 481 799 l 601 729 m 722 1215 l 181 903 l 60 972 l 601 1285 l 722 1215 m 181 903 l 181 764 l 60 833 l 60 972 l 181 903 m 456 1386 l 292 1422 l 171 1492 l 336 1456 l 456 1386 m 292 1422 l 229 1289 l 108 1358 l 171 1492 l 292 1422 z "},"Ż":{"ha":782,"x_min":60,"x_max":722,"o":"m 301 556 l 601 729 l 601 1007 l 181 764 l 181 903 l 722 1215 l 722 799 q 705 721 722 763 q 660 644 688 679 q 601 590 633 608 l 301 417 l 301 139 l 722 382 l 722 243 l 181 -69 l 181 347 q 197 426 181 385 q 242 502 214 467 q 301 556 269 538 m 451 1213 q 390 1204 414 1190 q 367 1261 367 1218 q 390 1344 367 1303 q 451 1407 414 1385 q 511 1414 488 1428 q 535 1358 535 1400 q 511 1274 535 1315 q 451 1213 488 1233 m 601 1007 l 601 729 l 481 799 l 481 1076 l 601 1007 m 722 382 l 301 139 l 181 208 l 601 451 l 722 382 m 601 729 l 301 556 q 242 502 269 538 q 197 426 214 467 q 181 347 181 385 l 181 -69 l 60 0 l 60 417 q 76 495 60 454 q 121 572 93 536 q 181 625 149 607 l 481 799 l 601 729 m 722 1215 l 181 903 l 60 972 l 601 1285 l 722 1215 m 181 903 l 181 764 l 60 833 l 60 972 l 181 903 m 511 1414 q 451 1407 488 1428 q 390 1344 414 1385 q 367 1261 367 1303 q 390 1204 367 1218 l 271 1274 q 247 1331 247 1288 q 271 1413 247 1372 q 331 1476 294 1454 q 392 1483 368 1497 l 511 1414 z "},"a":{"ha":722,"x_min":60,"x_max":661,"o":"m 181 681 l 542 889 q 625 896 589 917 q 661 819 661 875 l 661 153 l 542 83 l 542 222 q 525 144 542 186 q 481 67 508 103 q 421 14 453 32 l 301 -56 q 217 -62 253 -83 q 181 14 181 -42 l 181 208 q 197 287 181 246 q 242 363 214 328 q 301 417 269 399 l 542 556 l 542 750 l 181 542 l 181 681 m 301 83 l 542 222 l 542 417 l 301 278 l 301 83 m 542 750 l 542 556 l 421 625 l 421 819 l 542 750 m 542 222 l 542 83 l 421 153 l 421 292 l 542 222 m 542 417 l 542 222 l 421 292 l 421 486 l 542 417 m 542 222 l 301 83 l 181 153 l 421 292 l 542 222 m 542 556 l 301 417 q 242 363 269 399 q 197 287 214 328 q 181 208 181 246 l 181 14 q 217 -62 181 -42 l 96 7 q 60 83 60 28 l 60 278 q 76 356 60 315 q 121 433 93 397 q 181 486 149 468 l 421 625 l 542 556 m 625 896 q 542 889 589 917 l 181 681 l 60 750 l 421 958 q 506 965 469 986 l 625 896 m 181 681 l 181 542 l 60 611 l 60 750 l 181 681 z "},"á":{"ha":722,"x_min":60,"x_max":661,"o":"m 181 681 l 542 889 q 625 896 589 917 q 661 819 661 875 l 661 153 l 542 83 l 542 222 q 525 144 542 186 q 481 67 508 103 q 421 14 453 32 l 301 -56 q 217 -62 253 -83 q 181 14 181 -42 l 181 208 q 197 287 181 246 q 242 363 214 328 q 301 417 269 399 l 542 556 l 542 750 l 181 542 l 181 681 m 301 83 l 542 222 l 542 417 l 301 278 l 301 83 m 233 985 l 521 1335 l 585 1251 l 297 901 l 233 985 m 542 750 l 542 556 l 421 625 l 421 819 l 542 750 m 542 222 l 542 83 l 421 153 l 421 292 l 542 222 m 542 417 l 542 222 l 421 292 l 421 486 l 542 417 m 542 222 l 301 83 l 181 153 l 421 292 l 542 222 m 542 556 l 301 417 q 242 363 269 399 q 197 287 214 328 q 181 208 181 246 l 181 14 q 217 -62 181 -42 l 96 7 q 60 83 60 28 l 60 278 q 76 356 60 315 q 121 433 93 397 q 181 486 149 468 l 421 625 l 542 556 m 625 896 q 542 889 589 917 l 181 681 l 60 750 l 421 958 q 506 965 469 986 l 625 896 m 181 681 l 181 542 l 60 611 l 60 750 l 181 681 m 521 1335 l 233 985 l 113 1054 l 400 1404 l 521 1335 m 233 985 l 297 901 l 176 971 l 113 1054 l 233 985 z "},"ă":{"ha":722,"x_min":60,"x_max":661,"o":"m 181 681 l 542 889 q 625 896 589 917 q 661 819 661 875 l 661 153 l 542 83 l 542 222 q 525 144 542 186 q 481 67 508 103 q 421 14 453 32 l 301 -56 q 217 -62 253 -83 q 181 14 181 -42 l 181 208 q 197 287 181 246 q 242 363 214 328 q 301 417 269 399 l 542 556 l 542 750 l 181 542 l 181 681 m 421 986 q 302 957 357 950 q 214 1008 247 964 q 181 1125 181 1051 l 301 1194 q 338 1118 301 1139 q 421 1125 374 1097 q 481 1178 453 1143 q 525 1256 508 1214 q 542 1333 542 1297 l 661 1403 q 642 1286 661 1347 q 589 1167 622 1225 q 513 1061 556 1108 q 421 986 469 1014 m 301 83 l 542 222 l 542 417 l 301 278 l 301 83 m 542 750 l 542 556 l 421 625 l 421 819 l 542 750 m 542 222 l 542 83 l 421 153 l 421 292 l 542 222 m 661 1403 l 542 1333 l 421 1403 l 542 1472 l 661 1403 m 542 1333 q 525 1256 542 1297 q 481 1178 508 1214 q 421 1125 453 1143 q 338 1118 374 1097 l 217 1188 q 301 1194 253 1167 q 360 1248 332 1213 q 404 1325 388 1283 q 421 1403 421 1367 l 542 1333 m 542 417 l 542 222 l 421 292 l 421 486 l 542 417 m 542 222 l 301 83 l 181 153 l 421 292 l 542 222 m 542 556 l 301 417 q 242 363 269 399 q 197 287 214 328 q 181 208 181 246 l 181 14 q 217 -62 181 -42 l 96 7 q 60 83 60 28 l 60 278 q 76 356 60 315 q 121 433 93 397 q 181 486 149 468 l 421 625 l 542 556 m 625 896 q 542 889 589 917 l 181 681 l 60 750 l 421 958 q 506 965 469 986 l 625 896 m 181 681 l 181 542 l 60 611 l 60 750 l 181 681 m 301 1194 l 181 1125 l 60 1194 l 181 1264 l 301 1194 m 181 1125 q 200 1031 181 1069 q 253 972 219 992 l 132 1042 q 80 1100 100 1061 q 60 1194 60 1139 l 181 1125 z "},"â":{"ha":722,"x_min":60,"x_max":661,"o":"m 181 681 l 542 889 q 625 896 589 917 q 661 819 661 875 l 661 153 l 542 83 l 542 222 q 525 144 542 186 q 481 67 508 103 q 421 14 453 32 l 301 -56 q 217 -62 253 -83 q 181 14 181 -42 l 181 208 q 197 287 181 246 q 242 363 214 328 q 301 417 269 399 l 542 556 l 542 750 l 181 542 l 181 681 m 440 1140 l 257 890 l 192 963 l 422 1279 l 653 1229 l 596 1104 l 440 1140 m 301 83 l 542 222 l 542 417 l 301 278 l 301 83 m 542 750 l 542 556 l 421 625 l 421 819 l 542 750 m 542 222 l 542 83 l 421 153 l 421 292 l 542 222 m 653 1229 l 422 1279 l 301 1349 l 533 1299 l 653 1229 m 542 417 l 542 222 l 421 292 l 421 486 l 542 417 m 542 222 l 301 83 l 181 153 l 421 292 l 542 222 m 542 556 l 301 417 q 242 363 269 399 q 197 287 214 328 q 181 208 181 246 l 181 14 q 217 -62 181 -42 l 96 7 q 60 83 60 28 l 60 278 q 76 356 60 315 q 121 433 93 397 q 181 486 149 468 l 421 625 l 542 556 m 625 896 q 542 889 589 917 l 181 681 l 60 750 l 421 958 q 506 965 469 986 l 625 896 m 181 681 l 181 542 l 60 611 l 60 750 l 181 681 m 422 1279 l 192 963 l 71 1032 l 301 1349 l 422 1279 m 192 963 l 257 890 l 138 960 l 71 1032 l 192 963 z "},"´":{"ha":722,"x_min":113,"x_max":585,"o":"m 233 929 l 521 1279 l 585 1196 l 297 846 l 233 929 m 521 1279 l 233 929 l 113 999 l 400 1349 l 521 1279 m 233 929 l 297 846 l 176 915 l 113 999 l 233 929 z "},"́":{"ha":0,"x_min":113,"x_max":585,"o":"m 233 929 l 521 1279 l 585 1196 l 297 846 l 233 929 m 521 1279 l 233 929 l 113 999 l 400 1349 l 521 1279 m 233 929 l 297 846 l 176 915 l 113 999 l 233 929 z "},"ä":{"ha":722,"x_min":60,"x_max":661,"o":"m 181 681 l 542 889 q 625 896 589 917 q 661 819 661 875 l 661 153 l 542 83 l 542 222 q 525 144 542 186 q 481 67 508 103 q 421 14 453 32 l 301 -56 q 217 -62 253 -83 q 181 14 181 -42 l 181 208 q 197 287 181 246 q 242 363 214 328 q 301 417 269 399 l 542 556 l 542 750 l 181 542 l 181 681 m 301 83 l 542 222 l 542 417 l 301 278 l 301 83 m 265 882 q 204 875 228 861 q 181 931 181 889 q 204 1014 181 972 q 265 1076 228 1056 q 325 1083 301 1097 q 349 1028 349 1069 q 325 944 349 986 q 265 882 301 903 m 578 1063 q 517 1056 540 1042 q 493 1111 493 1069 q 517 1194 493 1153 q 578 1257 540 1236 q 638 1264 614 1278 q 661 1208 661 1250 q 638 1125 661 1167 q 578 1063 614 1083 m 542 750 l 542 556 l 421 625 l 421 819 l 542 750 m 542 222 l 542 83 l 421 153 l 421 292 l 542 222 m 542 417 l 542 222 l 421 292 l 421 486 l 542 417 m 638 1264 q 578 1257 614 1278 q 517 1194 540 1236 q 493 1111 493 1153 q 517 1056 493 1069 l 397 1125 q 372 1181 372 1139 q 397 1264 372 1222 q 457 1326 421 1306 q 518 1333 493 1347 l 638 1264 m 542 222 l 301 83 l 181 153 l 421 292 l 542 222 m 542 556 l 301 417 q 242 363 269 399 q 197 287 214 328 q 181 208 181 246 l 181 14 q 217 -62 181 -42 l 96 7 q 60 83 60 28 l 60 278 q 76 356 60 315 q 121 433 93 397 q 181 486 149 468 l 421 625 l 542 556 m 625 896 q 542 889 589 917 l 181 681 l 60 750 l 421 958 q 506 965 469 986 l 625 896 m 181 681 l 181 542 l 60 611 l 60 750 l 181 681 m 325 1083 q 265 1076 301 1097 q 204 1014 228 1056 q 181 931 181 972 q 204 875 181 889 l 83 944 q 60 1000 60 958 q 84 1083 60 1042 q 144 1146 108 1125 q 204 1153 181 1167 l 325 1083 z "},"æ":{"ha":963,"x_min":60,"x_max":903,"o":"m 181 194 q 197 273 181 232 q 242 349 214 314 q 301 403 269 385 l 421 472 l 421 653 l 181 514 l 181 653 l 421 792 q 506 799 469 819 q 542 722 542 778 q 558 801 542 760 q 602 877 575 842 q 661 931 629 913 l 782 1000 q 866 1007 829 1028 q 903 931 903 986 l 903 750 q 885 672 903 714 q 841 595 868 631 q 782 542 814 560 l 661 472 l 661 292 l 903 431 l 903 292 l 661 153 q 578 146 614 125 q 542 222 542 167 q 525 144 542 186 q 481 67 508 103 q 421 14 453 32 l 301 -56 q 217 -62 253 -83 q 181 14 181 -42 l 181 194 m 542 403 l 301 264 l 301 83 l 542 222 l 542 403 m 542 542 l 782 681 l 782 861 l 542 722 l 542 542 m 542 222 q 578 146 542 167 l 457 215 q 421 292 421 236 l 542 222 m 903 431 l 661 292 l 542 361 l 782 500 l 903 431 m 782 861 l 782 681 l 661 750 l 661 931 l 782 861 m 542 403 l 542 222 l 421 292 l 421 472 l 542 403 m 542 222 l 301 83 l 181 153 l 421 292 l 542 222 m 782 681 l 542 542 l 421 611 l 661 750 l 782 681 m 421 653 l 421 472 l 301 542 l 301 722 l 421 653 m 421 472 l 301 403 q 242 349 269 385 q 197 273 214 314 q 181 194 181 232 l 181 14 q 217 -62 181 -42 l 96 7 q 60 83 60 28 l 60 264 q 76 342 60 301 q 121 419 93 383 q 181 472 149 454 l 301 542 l 421 472 m 865 1007 q 782 1000 829 1028 l 661 931 q 602 877 629 913 q 558 801 575 842 q 542 722 542 760 l 421 792 q 438 870 421 829 q 482 947 454 911 q 542 1000 510 982 l 661 1069 q 746 1076 710 1097 l 865 1007 m 506 799 q 421 792 469 819 l 181 653 l 60 722 l 301 861 q 385 868 349 889 l 506 799 m 181 653 l 181 514 l 60 583 l 60 722 l 181 653 z "},"à":{"ha":722,"x_min":60,"x_max":661,"o":"m 181 681 l 542 889 q 625 896 589 917 q 661 819 661 875 l 661 153 l 542 83 l 542 222 q 525 144 542 186 q 481 67 508 103 q 421 14 453 32 l 301 -56 q 217 -62 253 -83 q 181 14 181 -42 l 181 208 q 197 287 181 246 q 242 363 214 328 q 301 417 269 399 l 542 556 l 542 750 l 181 542 l 181 681 m 263 1251 l 597 1172 l 528 1029 l 193 1107 l 263 1251 m 301 83 l 542 222 l 542 417 l 301 278 l 301 83 m 542 750 l 542 556 l 421 625 l 421 819 l 542 750 m 542 222 l 542 83 l 421 153 l 421 292 l 542 222 m 597 1172 l 263 1251 l 142 1321 l 476 1242 l 597 1172 m 542 417 l 542 222 l 421 292 l 421 486 l 542 417 m 542 222 l 301 83 l 181 153 l 421 292 l 542 222 m 542 556 l 301 417 q 242 363 269 399 q 197 287 214 328 q 181 208 181 246 l 181 14 q 217 -62 181 -42 l 96 7 q 60 83 60 28 l 60 278 q 76 356 60 315 q 121 433 93 397 q 181 486 149 468 l 421 625 l 542 556 m 625 896 q 542 889 589 917 l 181 681 l 60 750 l 421 958 q 506 965 469 986 l 625 896 m 181 681 l 181 542 l 60 611 l 60 750 l 181 681 m 263 1251 l 193 1107 l 74 1176 l 142 1321 l 263 1251 z "},"ā":{"ha":722,"x_min":60,"x_max":661,"o":"m 181 681 l 542 889 q 625 896 589 917 q 661 819 661 875 l 661 153 l 542 83 l 542 222 q 525 144 542 186 q 481 67 508 103 q 421 14 453 32 l 301 -56 q 217 -62 253 -83 q 181 14 181 -42 l 181 208 q 197 287 181 246 q 242 363 214 328 q 301 417 269 399 l 542 556 l 542 750 l 181 542 l 181 681 m 217 1021 l 578 1229 l 578 1090 l 217 882 l 217 1021 m 301 83 l 542 222 l 542 417 l 301 278 l 301 83 m 542 750 l 542 556 l 421 625 l 421 819 l 542 750 m 542 222 l 542 83 l 421 153 l 421 292 l 542 222 m 542 417 l 542 222 l 421 292 l 421 486 l 542 417 m 542 222 l 301 83 l 181 153 l 421 292 l 542 222 m 542 556 l 301 417 q 242 363 269 399 q 197 287 214 328 q 181 208 181 246 l 181 14 q 217 -62 181 -42 l 96 7 q 60 83 60 28 l 60 278 q 76 356 60 315 q 121 433 93 397 q 181 486 149 468 l 421 625 l 542 556 m 625 896 q 542 889 589 917 l 181 681 l 60 750 l 421 958 q 506 965 469 986 l 625 896 m 181 681 l 181 542 l 60 611 l 60 750 l 181 681 m 578 1229 l 217 1021 l 96 1090 l 457 1299 l 578 1229 m 217 1021 l 217 882 l 96 951 l 96 1090 l 217 1021 z "},"&":{"ha":842,"x_min":60,"x_max":782,"o":"m 181 347 q 197 426 181 385 q 242 502 214 467 q 301 556 269 538 q 217 549 253 528 q 181 625 181 569 l 181 681 q 197 759 181 718 q 242 835 214 800 q 301 889 269 871 l 661 1097 l 661 958 l 301 750 l 301 556 l 421 625 q 506 632 469 653 q 542 556 542 611 q 558 634 542 593 q 602 710 575 675 q 661 764 629 746 l 782 833 l 782 694 l 661 625 l 661 292 l 782 361 l 782 222 q 697 215 733 194 q 661 292 661 236 q 644 214 661 256 q 601 137 628 172 q 542 83 574 101 l 301 -56 q 217 -62 253 -83 q 181 14 181 -42 l 181 347 m 301 83 l 542 222 l 542 556 l 301 417 l 301 83 m 661 292 q 697 215 661 236 l 578 285 q 542 361 542 306 l 661 292 m 782 361 l 661 292 l 542 361 l 661 431 l 782 361 m 782 833 l 661 764 q 602 710 629 746 q 558 634 575 675 q 542 556 542 593 l 421 625 q 438 703 421 663 q 482 780 454 744 q 542 833 510 815 l 661 903 l 782 833 m 542 222 l 301 83 l 181 153 l 421 292 l 542 222 m 542 556 l 542 222 l 421 292 l 421 625 l 542 556 m 301 556 q 242 502 269 538 q 197 426 214 467 q 181 347 181 385 l 181 14 q 217 -62 181 -42 l 96 7 q 60 83 60 28 l 60 417 q 76 495 60 454 q 121 572 93 536 q 181 625 149 607 l 301 556 m 506 632 q 421 625 469 653 l 301 556 l 181 625 l 301 694 q 385 701 349 722 l 506 632 m 661 1097 l 301 889 q 242 835 269 871 q 197 759 214 800 q 181 681 181 718 l 181 625 q 217 549 181 569 l 96 618 q 60 694 60 639 l 60 750 q 76 828 60 788 q 121 905 93 869 q 181 958 149 940 l 542 1167 l 661 1097 z "},"ą":{"ha":722,"x_min":60,"x_max":661,"o":"m 542 83 l 542 -56 l 661 14 l 661 -125 l 542 -194 q 457 -201 493 -222 q 421 -125 421 -181 q 438 -47 421 -87 q 482 30 454 -6 q 542 83 510 65 l 542 222 q 525 144 542 186 q 481 67 508 103 q 421 14 453 32 l 301 -56 q 217 -62 253 -83 q 181 14 181 -42 l 181 208 q 197 287 181 246 q 242 363 214 328 q 301 417 269 399 l 542 556 l 542 750 l 181 542 l 181 681 l 542 889 q 625 896 589 917 q 661 819 661 875 l 661 153 l 542 83 m 301 83 l 542 222 l 542 417 l 301 278 l 301 83 m 542 750 l 542 556 l 421 625 l 421 819 l 542 750 m 661 14 l 542 -56 l 421 14 l 542 83 l 661 14 m 542 417 l 542 222 l 421 292 l 421 486 l 542 417 m 542 222 l 542 83 l 421 153 l 421 292 l 542 222 m 542 83 q 482 30 510 65 q 438 -47 454 -6 q 421 -125 421 -87 q 457 -201 421 -181 l 338 -132 q 301 -56 301 -111 q 318 22 301 -19 q 362 99 335 64 q 421 153 389 135 l 542 83 m 542 222 l 301 83 l 181 153 l 421 292 l 542 222 m 542 556 l 301 417 q 242 363 269 399 q 197 287 214 328 q 181 208 181 246 l 181 14 q 217 -62 181 -42 l 96 7 q 60 83 60 28 l 60 278 q 76 356 60 315 q 121 433 93 397 q 181 486 149 468 l 421 625 l 542 556 m 625 896 q 542 889 589 917 l 181 681 l 60 750 l 421 958 q 506 965 469 986 l 625 896 m 181 681 l 181 542 l 60 611 l 60 750 l 181 681 z "},"≈":{"ha":722,"x_min":26,"x_max":694,"o":"m 243 393 l 147 426 l 257 649 q 327 732 286 708 q 415 740 368 756 l 510 707 l 599 889 l 694 854 l 585 633 q 515 549 556 572 q 426 542 474 525 l 332 574 l 243 393 m 243 -24 l 147 10 l 257 232 q 327 315 286 292 q 415 324 368 339 l 510 290 l 599 472 l 694 438 l 585 217 q 515 132 556 156 q 426 125 474 108 l 332 157 l 243 -24 m 694 854 l 599 889 l 479 958 l 574 924 l 694 854 m 599 889 l 510 707 l 389 776 l 479 958 l 599 889 m 694 438 l 599 472 l 479 542 l 574 507 l 694 438 m 599 472 l 510 290 l 389 360 l 479 542 l 599 472 m 510 290 l 415 324 q 327 315 368 339 q 257 232 286 292 l 147 10 l 26 79 l 136 301 q 207 385 165 361 q 294 393 249 408 l 389 360 l 510 290 m 510 707 l 415 740 q 327 732 368 756 q 257 649 286 708 l 147 426 l 26 496 l 136 718 q 207 801 165 778 q 294 810 249 825 l 389 776 l 510 707 z "},"å":{"ha":722,"x_min":60,"x_max":661,"o":"m 181 681 l 542 889 q 625 896 589 917 q 661 819 661 875 l 661 153 l 542 83 l 542 222 q 525 144 542 186 q 481 67 508 103 q 421 14 453 32 l 301 -56 q 217 -62 253 -83 q 181 14 181 -42 l 181 208 q 197 287 181 246 q 242 363 214 328 q 301 417 269 399 l 542 556 l 542 750 l 181 542 l 181 681 m 408 1199 q 495 1208 461 1228 q 529 1129 529 1189 q 495 1010 529 1069 q 408 921 461 950 q 323 911 357 892 q 289 990 289 931 q 323 1110 289 1050 q 408 1199 357 1169 m 301 83 l 542 222 l 542 417 l 301 278 l 301 83 m 408 1106 q 381 1076 393 1096 q 369 1038 369 1056 q 381 1013 369 1019 q 408 1015 393 1006 q 437 1044 425 1024 q 449 1082 449 1064 q 437 1107 449 1100 q 408 1106 425 1114 m 542 750 l 542 556 l 421 625 l 421 819 l 542 750 m 542 222 l 542 83 l 421 153 l 421 292 l 542 222 m 542 417 l 542 222 l 421 292 l 421 486 l 542 417 m 542 222 l 301 83 l 181 153 l 421 292 l 542 222 m 542 556 l 301 417 q 242 363 269 399 q 197 287 214 328 q 181 208 181 246 l 181 14 q 217 -62 181 -42 l 96 7 q 60 83 60 28 l 60 278 q 76 356 60 315 q 121 433 93 397 q 181 486 149 468 l 421 625 l 542 556 m 625 896 q 542 889 589 917 l 181 681 l 60 750 l 421 958 q 506 965 469 986 l 625 896 m 181 681 l 181 542 l 60 611 l 60 750 l 181 681 m 436 1107 q 449 1082 449 1100 q 437 1044 449 1064 q 408 1015 425 1024 q 382 1013 393 1006 l 261 1082 q 289 1085 274 1075 q 316 1113 304 1093 q 328 1151 328 1133 q 317 1176 328 1169 l 436 1107 m 494 1208 q 408 1199 461 1228 q 323 1110 357 1169 q 289 990 289 1050 q 324 911 289 931 l 203 981 q 168 1060 168 1000 q 203 1179 168 1119 q 289 1268 238 1239 q 375 1278 340 1297 l 494 1208 z "},"~":{"ha":788,"x_min":60,"x_max":728,"o":"m 276 190 l 181 224 l 290 446 q 360 529 319 506 q 449 538 401 553 l 543 504 l 633 686 l 728 651 l 619 431 q 548 346 589 369 q 460 339 507 322 l 367 371 l 276 190 m 728 651 l 633 686 l 513 756 l 607 721 l 728 651 m 633 686 l 543 504 l 422 574 l 513 756 l 633 686 m 543 504 l 449 538 q 360 529 401 553 q 290 446 319 506 l 181 224 l 60 293 l 169 515 q 241 599 200 575 q 328 607 282 622 l 422 574 l 543 504 z "},"@":{"ha":1010,"x_min":60,"x_max":950,"o":"m 710 1069 q 828 1099 774 1107 q 917 1048 883 1092 q 950 931 950 1004 l 950 625 q 933 547 950 589 q 890 470 917 506 q 831 417 863 435 l 565 264 q 481 257 518 236 q 444 333 444 278 q 462 412 444 371 q 506 488 479 453 q 565 542 533 524 l 444 472 q 462 551 444 510 q 506 627 479 592 q 565 681 533 663 q 649 688 613 708 q 686 611 686 667 l 686 472 l 831 556 l 831 861 q 794 938 831 917 q 710 931 757 958 l 421 764 q 362 710 389 746 q 318 634 335 675 q 301 556 301 593 l 301 83 q 338 7 301 28 q 421 14 374 -14 l 950 319 q 933 242 950 283 q 890 165 917 200 q 831 111 863 129 l 421 -125 q 302 -154 357 -161 q 214 -103 247 -147 q 181 14 181 -60 l 181 486 q 200 603 181 542 q 253 722 219 664 q 330 828 286 781 q 421 903 374 875 l 710 1069 m 950 319 l 421 14 q 338 7 374 -14 l 217 76 q 301 83 253 56 l 831 389 l 950 319 m 793 938 q 831 861 831 917 l 831 556 l 710 625 l 710 931 q 674 1007 710 986 l 793 938 m 831 556 l 686 472 l 565 542 l 710 625 l 831 556 m 565 542 q 506 488 533 524 q 462 412 479 453 q 444 333 444 371 q 482 257 444 278 l 361 326 q 325 403 325 347 q 342 481 325 440 q 385 558 358 522 q 444 611 413 593 l 565 542 m 650 688 q 565 681 613 708 q 506 627 533 663 q 462 551 479 592 q 444 472 444 510 l 325 542 q 342 620 325 579 q 385 697 358 661 q 444 750 413 732 q 529 757 493 778 l 650 688 m 878 1083 q 801 1099 844 1101 q 710 1069 757 1097 l 421 903 q 330 828 374 875 q 253 722 286 781 q 200 603 219 664 q 181 486 181 542 l 181 14 q 200 -81 181 -42 q 253 -139 219 -119 l 132 -69 q 80 -11 100 -50 q 60 83 60 28 l 60 556 q 79 672 60 611 q 133 792 99 733 q 210 897 167 850 q 301 972 253 944 l 589 1139 q 681 1169 638 1167 q 757 1153 725 1171 l 878 1083 z "},"ã":{"ha":722,"x_min":15,"x_max":683,"o":"m 181 681 l 542 889 q 625 896 589 917 q 661 819 661 875 l 661 153 l 542 83 l 542 222 q 525 144 542 186 q 481 67 508 103 q 421 14 453 32 l 301 -56 q 217 -62 253 -83 q 181 14 181 -42 l 181 208 q 197 287 181 246 q 242 363 214 328 q 301 417 269 399 l 542 556 l 542 750 l 181 542 l 181 681 m 232 863 l 136 897 l 246 1118 q 316 1203 275 1179 q 404 1210 357 1226 l 499 1178 l 589 1358 l 683 1324 l 575 1103 q 503 1019 544 1043 q 415 1011 463 996 l 321 1044 l 232 863 m 301 83 l 542 222 l 542 417 l 301 278 l 301 83 m 542 750 l 542 556 l 421 625 l 421 819 l 542 750 m 542 222 l 542 83 l 421 153 l 421 292 l 542 222 m 683 1324 l 589 1358 l 468 1428 l 563 1393 l 683 1324 m 589 1358 l 499 1178 l 378 1247 l 468 1428 l 589 1358 m 542 417 l 542 222 l 421 292 l 421 486 l 542 417 m 542 222 l 301 83 l 181 153 l 421 292 l 542 222 m 542 556 l 301 417 q 242 363 269 399 q 197 287 214 328 q 181 208 181 246 l 181 14 q 217 -62 181 -42 l 96 7 q 60 83 60 28 l 60 278 q 76 356 60 315 q 121 433 93 397 q 181 486 149 468 l 421 625 l 542 556 m 625 896 q 542 889 589 917 l 181 681 l 60 750 l 421 958 q 506 965 469 986 l 625 896 m 181 681 l 181 542 l 60 611 l 60 750 l 181 681 m 499 1178 l 404 1210 q 316 1203 357 1226 q 246 1118 275 1179 l 136 897 l 15 967 l 125 1188 q 197 1272 156 1249 q 283 1279 238 1296 l 378 1247 l 499 1178 z "},"b":{"ha":722,"x_min":60,"x_max":661,"o":"m 421 819 l 542 889 q 625 896 589 917 q 661 819 661 875 l 661 347 q 644 269 661 311 q 601 192 628 228 q 542 139 574 157 l 181 -69 l 181 1042 l 301 1111 l 301 611 q 318 690 301 649 q 362 766 335 731 q 421 819 389 801 m 542 750 l 301 611 l 301 139 l 542 278 l 542 750 m 542 750 l 542 278 l 421 347 l 421 819 l 542 750 m 542 278 l 301 139 l 181 208 l 421 347 l 542 278 m 625 896 q 542 889 589 917 l 421 819 q 362 766 389 801 q 318 690 335 731 q 301 611 301 649 l 181 681 q 197 759 181 718 q 242 835 214 800 q 301 889 269 871 l 421 958 q 506 965 469 986 l 625 896 m 301 1111 l 181 1042 l 60 1111 l 181 1181 l 301 1111 m 181 1042 l 181 -69 l 60 0 l 60 1111 l 181 1042 z "},"|":{"ha":361,"x_min":60,"x_max":301,"o":"m 301 1292 l 301 -208 l 181 -278 l 181 1222 l 301 1292 m 301 1292 l 181 1222 l 60 1292 l 181 1361 l 301 1292 m 181 1222 l 181 -278 l 60 -208 l 60 1292 l 181 1222 z "},"{":{"ha":542,"x_min":0,"x_max":481,"o":"m 240 104 q 204 181 240 160 q 121 174 168 201 l 121 451 q 180 505 153 469 q 224 582 207 540 q 240 660 240 624 l 240 965 q 257 1044 240 1003 q 301 1120 274 1085 q 361 1174 329 1156 l 481 1243 l 481 1104 l 361 1035 l 361 729 q 342 613 361 674 q 288 493 322 551 q 211 388 254 435 q 121 313 168 340 q 239 342 185 350 q 327 291 293 335 q 361 174 361 247 l 361 -146 l 481 -76 l 481 -215 l 361 -285 q 276 -292 313 -312 q 240 -215 240 -271 l 240 104 m 481 -76 l 361 -146 l 240 -76 l 361 -7 l 481 -76 m 289 326 q 212 342 256 344 q 121 313 168 340 l 0 382 q 91 412 47 410 q 168 396 135 414 l 289 326 m 481 1243 l 361 1174 q 301 1120 329 1156 q 257 1044 274 1085 q 240 965 240 1003 l 240 660 q 224 582 240 624 q 180 505 207 540 q 121 451 153 469 l 0 521 q 59 574 32 539 q 103 651 86 610 q 121 729 121 693 l 121 1035 q 138 1113 121 1072 q 181 1190 154 1154 q 240 1243 208 1225 l 361 1313 l 481 1243 m 204 181 q 240 104 240 160 l 240 -215 q 276 -292 240 -271 l 157 -222 q 121 -146 121 -201 l 121 174 q 85 250 121 229 l 204 181 m 121 451 l 121 174 l 0 243 l 0 521 l 121 451 z "},"}":{"ha":542,"x_min":60,"x_max":542,"o":"m 542 611 q 423 582 478 575 q 335 633 368 589 q 301 750 301 676 l 301 1097 l 181 1028 l 181 1167 l 301 1236 q 385 1243 349 1264 q 421 1167 421 1222 l 421 819 q 457 743 421 764 q 542 750 493 722 l 542 611 m 421 264 l 421 -14 q 404 -92 421 -50 q 360 -169 388 -133 q 301 -222 332 -204 l 181 -292 l 181 -153 l 301 -83 l 301 194 q 320 311 301 250 q 373 431 339 372 q 450 536 407 489 q 542 611 493 583 l 542 472 q 482 419 510 454 q 438 342 454 383 q 421 264 421 301 m 542 750 q 457 743 493 722 l 338 813 q 421 819 374 792 l 542 750 m 385 1243 q 301 1236 349 1264 l 181 1167 l 60 1236 l 181 1306 q 264 1313 228 1333 l 385 1243 m 542 611 q 450 536 493 583 q 373 431 407 489 q 320 311 339 372 q 301 194 301 250 l 301 -83 l 181 -14 l 181 264 q 200 381 181 319 q 253 500 219 442 q 330 606 286 558 q 421 681 374 653 l 542 611 m 301 -83 l 181 -153 l 60 -83 l 181 -14 l 301 -83 m 181 -153 l 181 -292 l 60 -222 l 60 -83 l 181 -153 m 301 1097 l 301 750 q 321 656 301 694 q 374 597 340 617 l 253 667 q 200 725 219 686 q 181 819 181 764 l 181 1167 l 301 1097 m 181 1167 l 181 1028 l 60 1097 l 60 1236 l 181 1167 z "},"[":{"ha":601,"x_min":60,"x_max":542,"o":"m 301 1111 l 542 1250 l 542 1111 l 301 972 l 301 -139 l 542 0 l 542 -139 l 301 -278 q 217 -285 253 -306 q 181 -208 181 -264 l 181 903 q 197 981 181 940 q 242 1058 214 1022 q 301 1111 269 1093 m 542 0 l 301 -139 l 181 -69 l 421 69 l 542 0 m 542 1250 l 301 1111 q 242 1058 269 1093 q 197 981 214 1022 q 181 903 181 940 l 181 -208 q 217 -285 181 -264 l 96 -215 q 60 -139 60 -194 l 60 972 q 76 1051 60 1010 q 121 1127 93 1092 q 181 1181 149 1163 l 421 1319 l 542 1250 z "},"]":{"ha":601,"x_min":60,"x_max":542,"o":"m 421 1236 q 506 1243 469 1264 q 542 1167 542 1222 l 542 56 q 525 -22 542 19 q 481 -99 508 -64 q 421 -153 453 -135 l 181 -292 l 181 -153 l 421 -14 l 421 1097 l 181 958 l 181 1097 l 421 1236 m 421 1097 l 421 -14 l 301 56 l 301 1167 l 421 1097 m 421 -14 l 181 -153 l 60 -83 l 301 56 l 421 -14 m 181 -153 l 181 -292 l 60 -222 l 60 -83 l 181 -153 m 506 1243 q 421 1236 469 1264 l 181 1097 l 60 1167 l 301 1306 q 385 1313 349 1333 l 506 1243 m 181 1097 l 181 958 l 60 1028 l 60 1167 l 181 1097 z "},"˘":{"ha":722,"x_min":60,"x_max":661,"o":"m 421 861 q 302 832 357 825 q 214 883 247 839 q 181 1000 181 926 l 301 1069 q 338 993 301 1014 q 421 1000 374 972 q 481 1053 453 1018 q 525 1131 508 1089 q 542 1208 542 1172 l 661 1278 q 642 1161 661 1222 q 589 1042 622 1100 q 513 936 556 983 q 421 861 469 889 m 661 1278 l 542 1208 l 421 1278 l 542 1347 l 661 1278 m 542 1208 q 525 1131 542 1172 q 481 1053 508 1089 q 421 1000 453 1018 q 338 993 374 972 l 217 1063 q 301 1069 253 1042 q 360 1123 332 1088 q 404 1200 388 1158 q 421 1278 421 1242 l 542 1208 m 181 1000 q 200 906 181 944 q 253 847 219 867 l 132 917 q 80 975 100 936 q 60 1069 60 1014 l 181 1000 m 301 1069 l 181 1000 l 60 1069 l 181 1139 l 301 1069 z "},"¦":{"ha":361,"x_min":60,"x_max":301,"o":"m 181 389 l 301 458 l 301 -208 l 181 -278 l 181 389 m 301 1292 l 301 625 l 181 556 l 181 1222 l 301 1292 m 301 458 l 181 389 l 60 458 l 181 528 l 301 458 m 181 389 l 181 -278 l 60 -208 l 60 458 l 181 389 m 301 1292 l 181 1222 l 60 1292 l 181 1361 l 301 1292 m 181 1222 l 181 556 l 60 625 l 60 1292 l 181 1222 z "},"c":{"ha":722,"x_min":60,"x_max":661,"o":"m 301 750 l 542 889 q 625 896 589 917 q 661 819 661 875 l 661 681 l 542 611 l 542 750 l 301 611 l 301 83 l 542 222 l 542 361 l 661 431 l 661 292 q 644 214 661 256 q 601 137 628 172 q 542 83 574 101 l 301 -56 q 217 -62 253 -83 q 181 14 181 -42 l 181 542 q 197 620 181 579 q 242 697 214 661 q 301 750 269 732 m 661 431 l 542 361 l 421 431 l 542 500 l 661 431 m 542 361 l 542 222 l 421 292 l 421 431 l 542 361 m 542 222 l 301 83 l 181 153 l 421 292 l 542 222 m 542 750 l 542 611 l 421 681 l 421 819 l 542 750 m 625 896 q 542 889 589 917 l 301 750 q 242 697 269 732 q 197 620 214 661 q 181 542 181 579 l 181 14 q 217 -62 181 -42 l 96 7 q 60 83 60 28 l 60 611 q 76 690 60 649 q 121 766 93 731 q 181 819 149 801 l 421 958 q 506 965 469 986 l 625 896 z "},"ć":{"ha":722,"x_min":60,"x_max":661,"o":"m 301 750 l 542 889 q 625 896 589 917 q 661 819 661 875 l 661 681 l 542 611 l 542 750 l 301 611 l 301 83 l 542 222 l 542 361 l 661 431 l 661 292 q 644 214 661 256 q 601 137 628 172 q 542 83 574 101 l 301 -56 q 217 -62 253 -83 q 181 14 181 -42 l 181 542 q 197 620 181 579 q 242 697 214 661 q 301 750 269 732 m 233 985 l 521 1335 l 585 1251 l 297 901 l 233 985 m 661 431 l 542 361 l 421 431 l 542 500 l 661 431 m 542 361 l 542 222 l 421 292 l 421 431 l 542 361 m 542 222 l 301 83 l 181 153 l 421 292 l 542 222 m 542 750 l 542 611 l 421 681 l 421 819 l 542 750 m 625 896 q 542 889 589 917 l 301 750 q 242 697 269 732 q 197 620 214 661 q 181 542 181 579 l 181 14 q 217 -62 181 -42 l 96 7 q 60 83 60 28 l 60 611 q 76 690 60 649 q 121 766 93 731 q 181 819 149 801 l 421 958 q 506 965 469 986 l 625 896 m 521 1335 l 233 985 l 113 1054 l 400 1404 l 521 1335 m 233 985 l 297 901 l 176 971 l 113 1054 l 233 985 z "},"ˇ":{"ha":722,"x_min":75,"x_max":658,"o":"m 451 989 l 194 1026 l 257 1160 l 422 1124 l 588 1350 l 658 1269 l 451 989 m 588 1350 l 422 1124 l 301 1193 l 467 1419 l 588 1350 m 422 1124 l 257 1160 l 138 1229 l 301 1193 l 422 1124 m 257 1160 l 194 1026 l 75 1096 l 138 1229 l 257 1160 z "},"č":{"ha":722,"x_min":60,"x_max":661,"o":"m 301 750 l 542 889 q 625 896 589 917 q 661 819 661 875 l 661 681 l 542 611 l 542 750 l 301 611 l 301 83 l 542 222 l 542 361 l 661 431 l 661 292 q 644 214 661 256 q 601 137 628 172 q 542 83 574 101 l 301 -56 q 217 -62 253 -83 q 181 14 181 -42 l 181 542 q 197 620 181 579 q 242 697 214 661 q 301 750 269 732 m 451 1004 l 194 1042 l 257 1175 l 422 1139 l 588 1365 l 658 1285 l 451 1004 m 661 431 l 542 361 l 421 431 l 542 500 l 661 431 m 542 361 l 542 222 l 421 292 l 421 431 l 542 361 m 542 222 l 301 83 l 181 153 l 421 292 l 542 222 m 542 750 l 542 611 l 421 681 l 421 819 l 542 750 m 588 1365 l 422 1139 l 301 1208 l 467 1435 l 588 1365 m 422 1139 l 257 1175 l 138 1244 l 301 1208 l 422 1139 m 625 896 q 542 889 589 917 l 301 750 q 242 697 269 732 q 197 620 214 661 q 181 542 181 579 l 181 14 q 217 -62 181 -42 l 96 7 q 60 83 60 28 l 60 611 q 76 690 60 649 q 121 766 93 731 q 181 819 149 801 l 421 958 q 506 965 469 986 l 625 896 m 257 1175 l 194 1042 l 75 1111 l 138 1244 l 257 1175 z "},"ç":{"ha":722,"x_min":60,"x_max":661,"o":"m 301 750 l 542 889 q 625 896 589 917 q 661 819 661 875 l 661 681 l 542 611 l 542 750 l 301 611 l 301 83 l 542 222 l 542 361 l 661 431 l 661 292 q 644 214 661 256 q 601 137 628 172 q 542 83 574 101 l 301 -56 q 217 -62 253 -83 q 181 14 181 -42 l 181 542 q 197 620 181 579 q 242 697 214 661 q 301 750 269 732 m 421 14 q 506 21 469 42 q 542 -56 542 0 q 525 -133 542 -92 q 481 -210 508 -175 q 421 -264 453 -246 l 301 -333 l 301 -194 l 421 -125 l 421 14 m 661 431 l 542 361 l 421 431 l 542 500 l 661 431 m 542 361 l 542 222 l 421 292 l 421 431 l 542 361 m 542 750 l 542 611 l 421 681 l 421 819 l 542 750 m 506 21 q 421 14 469 42 l 301 83 q 385 90 349 111 l 506 21 m 421 14 l 421 -125 l 301 -56 l 301 83 l 421 14 m 421 -125 l 301 -194 l 181 -125 l 301 -56 l 421 -125 m 301 -194 l 301 -333 l 181 -264 l 181 -125 l 301 -194 m 542 222 l 301 83 l 181 153 l 421 292 l 542 222 m 625 896 q 542 889 589 917 l 301 750 q 242 697 269 732 q 197 620 214 661 q 181 542 181 579 l 181 14 q 217 -62 181 -42 l 96 7 q 60 83 60 28 l 60 611 q 76 690 60 649 q 121 766 93 731 q 181 819 149 801 l 421 958 q 506 965 469 986 l 625 896 z "},"ĉ":{"ha":722,"x_min":60,"x_max":661,"o":"m 301 750 l 542 889 q 625 896 589 917 q 661 819 661 875 l 661 681 l 542 611 l 542 750 l 301 611 l 301 83 l 542 222 l 542 361 l 661 431 l 661 292 q 644 214 661 256 q 601 137 628 172 q 542 83 574 101 l 301 -56 q 217 -62 253 -83 q 181 14 181 -42 l 181 542 q 197 620 181 579 q 242 697 214 661 q 301 750 269 732 m 440 1140 l 257 890 l 192 963 l 422 1279 l 653 1229 l 596 1104 l 440 1140 m 661 431 l 542 361 l 421 431 l 542 500 l 661 431 m 542 361 l 542 222 l 421 292 l 421 431 l 542 361 m 542 222 l 301 83 l 181 153 l 421 292 l 542 222 m 542 750 l 542 611 l 421 681 l 421 819 l 542 750 m 653 1229 l 422 1279 l 301 1349 l 533 1299 l 653 1229 m 625 896 q 542 889 589 917 l 301 750 q 242 697 269 732 q 197 620 214 661 q 181 542 181 579 l 181 14 q 217 -62 181 -42 l 96 7 q 60 83 60 28 l 60 611 q 76 690 60 649 q 121 766 93 731 q 181 819 149 801 l 421 958 q 506 965 469 986 l 625 896 m 422 1279 l 192 963 l 71 1032 l 301 1349 l 422 1279 m 192 963 l 257 890 l 138 960 l 71 1032 l 192 963 z "},"ċ":{"ha":722,"x_min":60,"x_max":661,"o":"m 301 750 l 542 889 q 625 896 589 917 q 661 819 661 875 l 661 681 l 542 611 l 542 750 l 301 611 l 301 83 l 542 222 l 542 361 l 661 431 l 661 292 q 644 214 661 256 q 601 137 628 172 q 542 83 574 101 l 301 -56 q 217 -62 253 -83 q 181 14 181 -42 l 181 542 q 197 620 181 579 q 242 697 214 661 q 301 750 269 732 m 421 972 q 360 965 385 951 q 336 1021 336 979 q 360 1104 336 1063 q 421 1167 385 1146 q 481 1174 457 1188 q 506 1118 506 1160 q 481 1035 506 1076 q 421 972 457 993 m 661 431 l 542 361 l 421 431 l 542 500 l 661 431 m 542 361 l 542 222 l 421 292 l 421 431 l 542 361 m 542 222 l 301 83 l 181 153 l 421 292 l 542 222 m 542 750 l 542 611 l 421 681 l 421 819 l 542 750 m 625 896 q 542 889 589 917 l 301 750 q 242 697 269 732 q 197 620 214 661 q 181 542 181 579 l 181 14 q 217 -62 181 -42 l 96 7 q 60 83 60 28 l 60 611 q 76 690 60 649 q 121 766 93 731 q 181 819 149 801 l 421 958 q 506 965 469 986 l 625 896 m 482 1174 q 421 1167 457 1188 q 360 1104 385 1146 q 336 1021 336 1063 q 361 965 336 979 l 240 1035 q 217 1090 217 1049 q 240 1174 217 1132 q 301 1236 264 1215 q 361 1243 338 1257 l 482 1174 z "},"¸":{"ha":240,"x_min":-60,"x_max":301,"o":"m 181 -69 q 265 -62 228 -42 q 301 -139 301 -83 q 284 -217 301 -175 q 240 -294 267 -258 q 181 -347 213 -329 l 60 -417 l 60 -278 l 181 -208 l 181 -69 m 264 -62 q 181 -69 228 -42 l 60 0 q 144 7 108 28 l 264 -62 m 181 -69 l 181 -208 l 60 -139 l 60 0 l 181 -69 m 181 -208 l 60 -278 l -60 -208 l 60 -139 l 181 -208 m 60 -278 l 60 -417 l -60 -347 l -60 -208 l 60 -278 z "},"¢":{"ha":903,"x_min":60,"x_max":842,"o":"m 301 -42 q 217 -49 253 -69 q 181 28 181 -28 l 181 625 q 197 703 181 663 q 242 780 214 744 q 301 833 269 815 l 457 924 l 457 1063 l 578 1132 l 578 993 l 722 1076 q 806 1083 769 1104 q 842 1007 842 1063 l 842 868 l 722 799 l 722 938 l 578 854 l 578 257 l 722 340 l 722 479 l 842 549 l 842 410 q 825 332 842 374 q 781 255 808 290 q 722 201 754 219 l 578 118 l 578 -21 l 457 -90 l 457 49 l 301 -42 m 457 188 l 457 785 l 301 694 l 301 97 l 457 188 m 457 49 l 457 -90 l 336 -21 l 336 118 l 457 49 m 842 549 l 722 479 l 601 549 l 722 618 l 842 549 m 722 479 l 722 340 l 601 410 l 601 549 l 722 479 m 722 340 l 578 257 l 457 326 l 601 410 l 722 340 m 722 938 l 722 799 l 601 868 l 601 1007 l 722 938 m 806 1083 q 722 1076 769 1104 l 578 993 l 457 1063 l 601 1146 q 686 1153 649 1174 l 806 1083 m 457 1063 l 457 924 l 336 993 l 336 1132 l 457 1063 m 457 785 l 457 188 l 336 257 l 336 854 l 457 785 m 457 188 l 301 97 l 181 167 l 336 257 l 457 188 m 578 1132 l 457 1063 l 336 1132 l 457 1201 l 578 1132 m 457 924 l 301 833 q 242 780 269 815 q 197 703 214 744 q 181 625 181 663 l 181 28 q 217 -49 181 -28 l 96 21 q 60 97 60 42 l 60 694 q 76 773 60 732 q 121 849 93 814 q 181 903 149 885 l 336 993 l 457 924 z "},"ˆ":{"ha":722,"x_min":65,"x_max":647,"o":"m 433 1122 l 251 874 l 185 944 l 417 1261 l 647 1211 l 590 1086 l 433 1122 m 647 1211 l 417 1261 l 296 1331 l 526 1281 l 647 1211 m 417 1261 l 185 944 l 65 1014 l 296 1331 l 417 1261 m 185 944 l 251 874 l 131 943 l 65 1014 l 185 944 z "},"^":{"ha":722,"x_min":65,"x_max":647,"o":"m 433 1122 l 251 874 l 185 944 l 417 1261 l 647 1211 l 590 1086 l 433 1122 m 647 1211 l 417 1261 l 296 1331 l 526 1281 l 647 1211 m 417 1261 l 185 944 l 65 1014 l 296 1331 l 417 1261 m 185 944 l 251 874 l 131 943 l 65 1014 l 185 944 z "},":":{"ha":433,"x_min":60,"x_max":372,"o":"m 276 597 q 208 589 235 574 q 181 653 181 604 q 208 749 181 701 q 276 819 235 796 q 345 828 318 843 q 372 764 372 813 q 345 668 372 715 q 276 597 318 621 m 276 -69 q 208 -78 235 -93 q 181 -14 181 -62 q 208 82 181 35 q 276 153 235 129 q 345 161 318 176 q 372 97 372 146 q 345 1 372 49 q 276 -69 318 -46 m 346 828 q 276 819 318 843 q 208 749 235 796 q 181 653 181 701 q 207 589 181 604 l 88 658 q 60 722 60 674 q 87 818 60 771 q 157 889 114 865 q 225 897 199 913 l 346 828 m 346 161 q 276 153 318 176 q 208 82 235 129 q 181 -14 181 35 q 207 -78 181 -62 l 88 -8 q 60 56 60 7 q 87 151 60 104 q 157 222 114 199 q 225 231 199 246 l 346 161 z "},",":{"ha":433,"x_min":60,"x_max":372,"o":"m 276 -69 q 208 -78 235 -93 q 181 -14 181 -62 q 208 82 181 35 q 276 153 235 129 q 345 161 318 176 q 372 97 372 146 l 372 -69 q 359 -132 372 -99 q 324 -193 346 -165 q 276 -236 303 -221 l 276 -69 m 276 -69 l 276 -236 l 157 -167 l 157 0 l 276 -69 m 346 161 q 276 153 318 176 q 208 82 235 129 q 181 -14 181 35 q 207 -78 181 -62 l 88 -8 q 60 56 60 7 q 87 151 60 104 q 157 222 114 199 q 225 231 199 246 l 346 161 z "},"©":{"ha":1010,"x_min":60,"x_max":950,"o":"m 710 1069 q 828 1099 774 1107 q 917 1048 883 1092 q 950 931 950 1004 l 950 542 q 931 425 950 486 q 878 306 911 364 q 801 200 844 247 q 710 125 757 153 l 421 -42 q 302 -71 357 -78 q 214 -20 247 -64 q 181 97 181 24 l 181 486 q 200 603 181 542 q 253 722 219 664 q 330 828 286 781 q 421 903 374 875 l 710 1069 m 710 931 l 421 764 q 362 710 389 746 q 318 634 335 675 q 301 556 301 593 l 301 167 q 338 90 301 111 q 421 97 374 69 l 710 264 q 769 317 742 282 q 813 394 796 353 q 831 472 831 436 l 831 861 q 794 938 831 917 q 710 931 757 958 m 565 514 q 649 521 613 542 q 686 444 686 500 l 565 375 q 481 368 518 347 q 444 444 444 389 q 462 523 444 482 q 506 599 479 564 q 565 653 533 635 l 686 722 l 686 583 l 565 514 m 793 938 q 831 861 831 917 l 831 472 q 813 394 831 436 q 769 317 796 353 q 710 264 742 282 l 421 97 q 338 90 374 69 l 217 160 q 301 167 253 139 l 589 333 q 649 387 621 351 q 693 464 676 422 q 710 542 710 506 l 710 931 q 674 1007 710 986 l 793 938 m 650 521 q 565 514 613 542 l 444 583 q 529 590 493 611 l 650 521 m 686 722 l 565 653 q 506 599 533 635 q 462 523 479 564 q 444 444 444 482 q 482 368 444 389 l 361 438 q 325 514 325 458 q 342 592 325 551 q 385 669 358 633 q 444 722 413 704 l 565 792 l 686 722 m 878 1083 q 801 1099 844 1101 q 710 1069 757 1097 l 421 903 q 330 828 374 875 q 253 722 286 781 q 200 603 219 664 q 181 486 181 542 l 181 97 q 200 3 181 42 q 253 -56 219 -36 l 132 14 q 80 72 100 33 q 60 167 60 111 l 60 556 q 79 672 60 611 q 133 792 99 733 q 210 897 167 850 q 301 972 253 944 l 589 1139 q 681 1169 638 1167 q 757 1153 725 1171 l 878 1083 z "},"¤":{"ha":842,"x_min":60,"x_max":782,"o":"m 301 139 q 217 132 253 111 q 181 208 181 153 l 181 486 q 197 565 181 524 q 242 641 214 606 q 301 694 269 676 l 661 903 q 746 910 710 931 q 782 833 782 889 l 782 556 q 765 478 782 519 q 721 401 749 436 q 661 347 693 365 l 301 139 m 661 764 l 301 556 l 301 278 l 661 486 l 661 764 m 301 694 l 181 625 l 181 764 q 265 771 228 792 q 301 694 301 750 m 661 903 q 678 981 661 940 q 722 1058 694 1022 q 782 1111 750 1093 l 782 972 l 661 903 m 181 -69 l 181 69 l 301 139 q 284 61 301 103 q 240 -16 267 19 q 181 -69 213 -51 m 782 278 q 697 271 733 250 q 661 347 661 292 l 782 417 l 782 278 m 661 764 l 661 486 l 542 556 l 542 833 l 661 764 m 301 139 l 181 69 l 60 139 l 181 208 l 301 139 m 181 69 l 181 -69 l 60 0 l 60 139 l 181 69 m 782 417 l 661 347 l 542 417 l 661 486 l 782 417 m 661 347 q 697 271 661 292 l 578 340 q 542 417 542 361 l 661 347 m 661 486 l 301 278 l 181 347 l 542 556 l 661 486 m 746 910 q 661 903 710 931 l 301 694 q 242 641 269 676 q 197 565 214 606 q 181 486 181 524 l 181 208 q 217 132 181 153 l 96 201 q 60 278 60 222 l 60 556 q 76 634 60 593 q 121 710 93 675 q 181 764 149 746 l 542 972 q 625 979 589 1000 l 746 910 m 264 771 q 181 764 228 792 l 60 833 q 144 840 108 861 l 264 771 m 181 764 l 181 625 l 60 694 l 60 833 l 181 764 m 782 1111 q 722 1058 750 1093 q 678 981 694 1022 q 661 903 661 940 l 542 972 q 558 1051 542 1010 q 602 1127 575 1092 q 661 1181 629 1163 l 782 1111 z "},"d":{"ha":722,"x_min":60,"x_max":661,"o":"m 301 694 l 421 764 q 506 771 469 792 q 542 694 542 750 l 542 1042 l 661 1111 l 661 153 q 578 146 614 125 q 542 222 542 167 q 525 144 542 186 q 481 67 508 103 q 421 14 453 32 l 301 -56 q 217 -62 253 -83 q 181 14 181 -42 l 181 486 q 197 565 181 524 q 242 641 214 606 q 301 694 269 676 m 301 556 l 301 83 l 542 222 l 542 694 l 301 556 m 542 222 q 578 146 542 167 l 457 215 q 421 292 421 236 l 542 222 m 661 1111 l 542 1042 l 421 1111 l 542 1181 l 661 1111 m 542 1042 l 542 694 l 421 764 l 421 1111 l 542 1042 m 542 694 l 542 222 l 421 292 l 421 764 l 542 694 m 542 222 l 301 83 l 181 153 l 421 292 l 542 222 m 506 771 q 421 764 469 792 l 301 694 q 242 641 269 676 q 197 565 214 606 q 181 486 181 524 l 181 14 q 217 -62 181 -42 l 96 7 q 60 83 60 28 l 60 556 q 76 634 60 593 q 121 710 93 675 q 181 764 149 746 l 301 833 q 385 840 349 861 l 506 771 z "},"†":{"ha":601,"x_min":60,"x_max":542,"o":"m 421 1097 l 542 1167 l 542 1028 l 421 958 l 421 403 l 301 333 l 301 889 l 181 819 l 181 958 l 301 1028 l 301 1167 l 421 1236 l 421 1097 m 301 1167 l 301 1028 l 181 1097 l 181 1236 l 301 1167 m 301 889 l 301 333 l 181 403 l 181 958 l 301 889 m 542 1167 l 421 1097 l 301 1167 l 421 1236 l 542 1167 m 421 1236 l 301 1167 l 181 1236 l 301 1306 l 421 1236 m 301 1028 l 181 958 l 60 1028 l 181 1097 l 301 1028 m 181 958 l 181 819 l 60 889 l 60 1028 l 181 958 z "},"‡":{"ha":601,"x_min":60,"x_max":542,"o":"m 301 750 l 301 889 l 181 819 l 181 958 l 301 1028 l 301 1167 l 421 1236 l 421 1097 l 542 1167 l 542 1028 l 421 958 l 421 819 l 542 889 l 542 750 l 421 681 l 421 403 l 301 333 l 301 611 l 181 542 l 181 681 l 301 750 m 301 750 l 181 681 l 60 750 l 181 819 l 301 750 m 301 611 l 301 333 l 181 403 l 181 681 l 301 611 m 542 889 l 421 819 l 301 889 l 421 958 l 542 889 m 542 1167 l 421 1097 l 301 1167 l 421 1236 l 542 1167 m 301 1167 l 301 1028 l 181 1097 l 181 1236 l 301 1167 m 301 889 l 301 750 l 181 819 l 181 958 l 301 889 m 181 681 l 181 542 l 60 611 l 60 750 l 181 681 m 421 1236 l 301 1167 l 181 1236 l 301 1306 l 421 1236 m 301 1028 l 181 958 l 60 1028 l 181 1097 l 301 1028 m 181 958 l 181 819 l 60 889 l 60 1028 l 181 958 z "},"ď":{"ha":842,"x_min":60,"x_max":842,"o":"m 301 694 l 421 764 q 506 771 469 792 q 542 694 542 750 l 542 1042 l 661 1111 l 661 153 q 578 146 614 125 q 542 222 542 167 q 525 144 542 186 q 481 67 508 103 q 421 14 453 32 l 301 -56 q 217 -62 253 -83 q 181 14 181 -42 l 181 486 q 197 565 181 524 q 242 641 214 606 q 301 694 269 676 m 301 556 l 301 83 l 542 222 l 542 694 l 301 556 m 842 993 q 758 986 794 965 q 722 1063 722 1007 l 722 1146 l 842 1215 l 842 993 m 542 222 q 578 146 542 167 l 457 215 q 421 292 421 236 l 542 222 m 542 1042 l 542 694 l 421 764 l 421 1111 l 542 1042 m 542 694 l 542 222 l 421 292 l 421 764 l 542 694 m 842 1215 l 722 1146 l 601 1215 l 722 1285 l 842 1215 m 722 1146 l 722 1063 q 758 986 722 1007 l 638 1056 q 601 1132 601 1076 l 601 1215 l 722 1146 m 661 1111 l 542 1042 l 421 1111 l 542 1181 l 661 1111 m 542 222 l 301 83 l 181 153 l 421 292 l 542 222 m 506 771 q 421 764 469 792 l 301 694 q 242 641 269 676 q 197 565 214 606 q 181 486 181 524 l 181 14 q 217 -62 181 -42 l 96 7 q 60 83 60 28 l 60 556 q 76 634 60 593 q 121 710 93 675 q 181 764 149 746 l 301 833 q 385 840 349 861 l 506 771 z "},"đ":{"ha":782,"x_min":60,"x_max":782,"o":"m 661 1063 l 782 1132 l 782 993 l 661 924 l 661 153 q 578 146 614 125 q 542 222 542 167 q 525 144 542 186 q 481 67 508 103 q 421 14 453 32 l 301 -56 q 217 -62 253 -83 q 181 14 181 -42 l 181 486 q 197 565 181 524 q 242 641 214 606 q 301 694 269 676 l 421 764 q 506 771 469 792 q 542 694 542 750 l 542 854 l 421 785 l 421 924 l 542 993 l 542 1042 l 661 1111 l 661 1063 m 301 556 l 301 83 l 542 222 l 542 694 l 301 556 m 542 1042 l 542 993 l 421 1063 l 421 1111 l 542 1042 m 542 993 l 421 924 l 301 993 l 421 1063 l 542 993 m 542 854 l 542 694 l 421 764 l 421 924 l 542 854 m 542 222 q 578 146 542 167 l 457 215 q 421 292 421 236 l 542 222 m 782 1132 l 661 1063 l 542 1132 l 661 1201 l 782 1132 m 542 694 l 542 222 l 421 292 l 421 764 l 542 694 m 661 1111 l 542 1042 l 421 1111 l 542 1181 l 661 1111 m 542 222 l 301 83 l 181 153 l 421 292 l 542 222 m 506 771 q 421 764 469 792 l 301 694 q 242 641 269 676 q 197 565 214 606 q 181 486 181 524 l 181 14 q 217 -62 181 -42 l 96 7 q 60 83 60 28 l 60 556 q 76 634 60 593 q 121 710 93 675 q 181 764 149 746 l 301 833 q 385 840 349 861 l 506 771 m 421 924 l 421 785 l 301 854 l 301 993 l 421 924 z "},"°":{"ha":661,"x_min":60,"x_max":601,"o":"m 301 1097 l 481 1201 q 565 1208 529 1229 q 601 1132 601 1188 l 601 924 q 585 846 601 888 q 540 769 568 804 q 481 715 513 733 l 301 611 q 217 604 253 583 q 181 681 181 625 l 181 889 q 197 967 181 926 q 242 1044 214 1008 q 301 1097 269 1079 m 301 750 l 481 854 l 481 1063 l 301 958 l 301 750 m 481 1063 l 481 854 l 361 924 l 361 1132 l 481 1063 m 481 854 l 301 750 l 181 819 l 361 924 l 481 854 m 565 1208 q 481 1201 529 1229 l 301 1097 q 242 1044 269 1079 q 197 967 214 1008 q 181 889 181 926 l 181 681 q 217 604 181 625 l 96 674 q 60 750 60 694 l 60 958 q 76 1037 60 996 q 121 1113 93 1078 q 181 1167 149 1149 l 361 1271 q 444 1278 408 1299 l 565 1208 z "},"¨":{"ha":722,"x_min":60,"x_max":661,"o":"m 265 882 q 204 875 228 861 q 181 931 181 889 q 204 1014 181 972 q 265 1076 228 1056 q 325 1083 301 1097 q 349 1028 349 1069 q 325 944 349 986 q 265 882 301 903 m 578 1063 q 517 1056 540 1042 q 493 1111 493 1069 q 517 1194 493 1153 q 578 1257 540 1236 q 638 1264 614 1278 q 661 1208 661 1250 q 638 1125 661 1167 q 578 1063 614 1083 m 325 1083 q 265 1076 301 1097 q 204 1014 228 1056 q 181 931 181 972 q 204 875 181 889 l 83 944 q 60 1000 60 958 q 84 1083 60 1042 q 144 1146 108 1125 q 204 1153 181 1167 l 325 1083 m 638 1264 q 578 1257 614 1278 q 517 1194 540 1236 q 493 1111 493 1153 q 517 1056 493 1069 l 397 1125 q 372 1181 372 1139 q 397 1264 372 1222 q 457 1326 421 1306 q 518 1333 493 1347 l 638 1264 z "},"÷":{"ha":722,"x_min":60,"x_max":661,"o":"m 181 347 l 661 625 l 661 486 l 181 208 l 181 347 m 361 243 l 481 313 l 481 174 l 361 104 l 361 243 m 361 660 l 481 729 l 481 590 l 361 521 l 361 660 m 481 313 l 361 243 l 240 313 l 361 382 l 481 313 m 361 243 l 361 104 l 240 174 l 240 313 l 361 243 m 661 625 l 181 347 l 60 417 l 542 694 l 661 625 m 181 347 l 181 208 l 60 278 l 60 417 l 181 347 m 481 729 l 361 660 l 240 729 l 361 799 l 481 729 m 361 660 l 361 521 l 240 590 l 240 729 l 361 660 z "},"$":{"ha":914,"x_min":60,"x_max":854,"o":"m 301 347 q 217 340 253 319 q 181 417 181 361 l 181 625 q 197 703 181 663 q 242 780 214 744 q 301 833 269 815 l 457 924 l 457 1063 l 578 1132 l 578 993 l 854 1153 l 854 1014 l 578 854 l 578 646 l 733 736 q 818 743 782 764 q 854 667 854 722 l 854 458 q 838 381 854 422 q 793 303 821 339 q 733 250 765 268 l 578 160 l 578 21 l 457 -49 l 457 90 l 181 -69 l 181 69 l 457 229 l 457 438 l 301 347 m 578 299 l 733 389 l 733 597 l 578 507 l 578 299 m 457 576 l 457 785 l 301 694 l 301 486 l 457 576 m 181 69 l 181 -69 l 60 0 l 60 139 l 181 69 m 457 90 l 457 -49 l 336 21 l 336 160 l 457 90 m 854 1153 l 578 993 l 457 1063 l 733 1222 l 854 1153 m 733 597 l 733 389 l 614 458 l 614 667 l 733 597 m 733 389 l 578 299 l 457 368 l 614 458 l 733 389 m 457 438 l 457 229 l 336 299 l 336 507 l 457 438 m 457 229 l 181 69 l 60 139 l 336 299 l 457 229 m 818 743 q 733 736 782 764 l 578 646 l 457 715 l 614 806 q 697 813 661 833 l 818 743 m 578 1132 l 457 1063 l 336 1132 l 457 1201 l 578 1132 m 457 1063 l 457 924 l 336 993 l 336 1132 l 457 1063 m 457 785 l 457 576 l 336 646 l 336 854 l 457 785 m 457 576 l 301 486 l 181 556 l 336 646 l 457 576 m 457 924 l 301 833 q 242 780 269 815 q 197 703 214 744 q 181 625 181 663 l 181 417 q 217 340 181 361 l 96 410 q 60 486 60 431 l 60 694 q 76 773 60 732 q 121 849 93 814 q 181 903 149 885 l 336 993 l 457 924 z "},"˙":{"ha":722,"x_min":217,"x_max":506,"o":"m 421 917 q 360 910 385 896 q 336 965 336 924 q 360 1049 336 1007 q 421 1111 385 1090 q 481 1118 457 1132 q 506 1063 506 1104 q 481 979 506 1021 q 421 917 457 938 m 482 1118 q 421 1111 457 1132 q 360 1049 385 1090 q 336 965 336 1007 q 361 910 336 924 l 240 979 q 217 1035 217 993 q 240 1118 217 1076 q 301 1181 264 1160 q 361 1188 338 1201 l 482 1118 z "},"ı":{"ha":722,"x_min":60,"x_max":661,"o":"m 361 174 l 361 590 l 181 486 l 181 625 l 661 903 l 661 764 l 481 660 l 481 243 l 661 347 l 661 208 l 181 -69 l 181 69 l 361 174 m 361 174 l 181 69 l 60 139 l 240 243 l 361 174 m 181 69 l 181 -69 l 60 0 l 60 139 l 181 69 m 661 347 l 481 243 l 361 313 l 542 417 l 661 347 m 361 590 l 361 174 l 240 243 l 240 660 l 361 590 m 661 903 l 181 625 l 60 694 l 542 972 l 661 903 m 181 625 l 181 486 l 60 556 l 60 694 l 181 625 z "},"e":{"ha":722,"x_min":60,"x_max":661,"o":"m 301 750 l 542 889 q 625 896 589 917 q 661 819 661 875 l 661 611 q 644 533 661 575 q 601 456 628 492 q 542 403 574 421 l 421 333 q 338 326 374 306 q 301 403 301 347 l 301 83 l 661 292 l 661 153 l 301 -56 q 217 -62 253 -83 q 181 14 181 -42 l 181 542 q 197 620 181 579 q 242 697 214 661 q 301 750 269 732 m 542 750 l 301 611 l 301 403 l 542 542 l 542 750 m 661 292 l 301 83 l 181 153 l 542 361 l 661 292 m 542 750 l 542 542 l 421 611 l 421 819 l 542 750 m 301 403 q 338 326 301 347 l 217 396 q 181 472 181 417 l 301 403 m 542 542 l 301 403 l 181 472 l 421 611 l 542 542 m 625 896 q 542 889 589 917 l 301 750 q 242 697 269 732 q 197 620 214 661 q 181 542 181 579 l 181 14 q 217 -62 181 -42 l 96 7 q 60 83 60 28 l 60 611 q 76 690 60 649 q 121 766 93 731 q 181 819 149 801 l 421 958 q 506 965 469 986 l 625 896 z "},"é":{"ha":722,"x_min":60,"x_max":661,"o":"m 301 750 l 542 889 q 625 896 589 917 q 661 819 661 875 l 661 611 q 644 533 661 575 q 601 456 628 492 q 542 403 574 421 l 421 333 q 338 326 374 306 q 301 403 301 347 l 301 83 l 661 292 l 661 153 l 301 -56 q 217 -62 253 -83 q 181 14 181 -42 l 181 542 q 197 620 181 579 q 242 697 214 661 q 301 750 269 732 m 542 750 l 301 611 l 301 403 l 542 542 l 542 750 m 233 985 l 521 1335 l 585 1251 l 297 901 l 233 985 m 661 292 l 301 83 l 181 153 l 542 361 l 661 292 m 542 750 l 542 542 l 421 611 l 421 819 l 542 750 m 301 403 q 338 326 301 347 l 217 396 q 181 472 181 417 l 301 403 m 542 542 l 301 403 l 181 472 l 421 611 l 542 542 m 625 896 q 542 889 589 917 l 301 750 q 242 697 269 732 q 197 620 214 661 q 181 542 181 579 l 181 14 q 217 -62 181 -42 l 96 7 q 60 83 60 28 l 60 611 q 76 690 60 649 q 121 766 93 731 q 181 819 149 801 l 421 958 q 506 965 469 986 l 625 896 m 521 1335 l 233 985 l 113 1054 l 400 1404 l 521 1335 m 233 985 l 297 901 l 176 971 l 113 1054 l 233 985 z "},"ě":{"ha":722,"x_min":60,"x_max":661,"o":"m 301 750 l 542 889 q 625 896 589 917 q 661 819 661 875 l 661 611 q 644 533 661 575 q 601 456 628 492 q 542 403 574 421 l 421 333 q 338 326 374 306 q 301 403 301 347 l 301 83 l 661 292 l 661 153 l 301 -56 q 217 -62 253 -83 q 181 14 181 -42 l 181 542 q 197 620 181 579 q 242 697 214 661 q 301 750 269 732 m 451 1004 l 194 1042 l 257 1175 l 422 1139 l 588 1365 l 658 1285 l 451 1004 m 542 750 l 301 611 l 301 403 l 542 542 l 542 750 m 661 292 l 301 83 l 181 153 l 542 361 l 661 292 m 588 1365 l 422 1139 l 301 1208 l 467 1435 l 588 1365 m 422 1139 l 257 1175 l 138 1244 l 301 1208 l 422 1139 m 542 750 l 542 542 l 421 611 l 421 819 l 542 750 m 301 403 q 338 326 301 347 l 217 396 q 181 472 181 417 l 301 403 m 542 542 l 301 403 l 181 472 l 421 611 l 542 542 m 625 896 q 542 889 589 917 l 301 750 q 242 697 269 732 q 197 620 214 661 q 181 542 181 579 l 181 14 q 217 -62 181 -42 l 96 7 q 60 83 60 28 l 60 611 q 76 690 60 649 q 121 766 93 731 q 181 819 149 801 l 421 958 q 506 965 469 986 l 625 896 m 257 1175 l 194 1042 l 75 1111 l 138 1244 l 257 1175 z "},"ê":{"ha":722,"x_min":60,"x_max":661,"o":"m 301 750 l 542 889 q 625 896 589 917 q 661 819 661 875 l 661 611 q 644 533 661 575 q 601 456 628 492 q 542 403 574 421 l 421 333 q 338 326 374 306 q 301 403 301 347 l 301 83 l 661 292 l 661 153 l 301 -56 q 217 -62 253 -83 q 181 14 181 -42 l 181 542 q 197 620 181 579 q 242 697 214 661 q 301 750 269 732 m 440 1140 l 257 890 l 192 963 l 422 1279 l 653 1229 l 596 1104 l 440 1140 m 542 750 l 301 611 l 301 403 l 542 542 l 542 750 m 661 292 l 301 83 l 181 153 l 542 361 l 661 292 m 653 1229 l 422 1279 l 301 1349 l 533 1299 l 653 1229 m 542 750 l 542 542 l 421 611 l 421 819 l 542 750 m 301 403 q 338 326 301 347 l 217 396 q 181 472 181 417 l 301 403 m 542 542 l 301 403 l 181 472 l 421 611 l 542 542 m 625 896 q 542 889 589 917 l 301 750 q 242 697 269 732 q 197 620 214 661 q 181 542 181 579 l 181 14 q 217 -62 181 -42 l 96 7 q 60 83 60 28 l 60 611 q 76 690 60 649 q 121 766 93 731 q 181 819 149 801 l 421 958 q 506 965 469 986 l 625 896 m 422 1279 l 192 963 l 71 1032 l 301 1349 l 422 1279 m 192 963 l 257 890 l 138 960 l 71 1032 l 192 963 z "},"ë":{"ha":722,"x_min":60,"x_max":661,"o":"m 301 750 l 542 889 q 625 896 589 917 q 661 819 661 875 l 661 611 q 644 533 661 575 q 601 456 628 492 q 542 403 574 421 l 421 333 q 338 326 374 306 q 301 403 301 347 l 301 83 l 661 292 l 661 153 l 301 -56 q 217 -62 253 -83 q 181 14 181 -42 l 181 542 q 197 620 181 579 q 242 697 214 661 q 301 750 269 732 m 542 750 l 301 611 l 301 403 l 542 542 l 542 750 m 265 882 q 204 875 228 861 q 181 931 181 889 q 204 1014 181 972 q 265 1076 228 1056 q 325 1083 301 1097 q 349 1028 349 1069 q 325 944 349 986 q 265 882 301 903 m 578 1063 q 517 1056 540 1042 q 493 1111 493 1069 q 517 1194 493 1153 q 578 1257 540 1236 q 638 1264 614 1278 q 661 1208 661 1250 q 638 1125 661 1167 q 578 1063 614 1083 m 661 292 l 301 83 l 181 153 l 542 361 l 661 292 m 542 750 l 542 542 l 421 611 l 421 819 l 542 750 m 638 1264 q 578 1257 614 1278 q 517 1194 540 1236 q 493 1111 493 1153 q 517 1056 493 1069 l 397 1125 q 372 1181 372 1139 q 397 1264 372 1222 q 457 1326 421 1306 q 518 1333 493 1347 l 638 1264 m 301 403 q 338 326 301 347 l 217 396 q 181 472 181 417 l 301 403 m 542 542 l 301 403 l 181 472 l 421 611 l 542 542 m 625 896 q 542 889 589 917 l 301 750 q 242 697 269 732 q 197 620 214 661 q 181 542 181 579 l 181 14 q 217 -62 181 -42 l 96 7 q 60 83 60 28 l 60 611 q 76 690 60 649 q 121 766 93 731 q 181 819 149 801 l 421 958 q 506 965 469 986 l 625 896 m 325 1083 q 265 1076 301 1097 q 204 1014 228 1056 q 181 931 181 972 q 204 875 181 889 l 83 944 q 60 1000 60 958 q 84 1083 60 1042 q 144 1146 108 1125 q 204 1153 181 1167 l 325 1083 z "},"ė":{"ha":722,"x_min":60,"x_max":661,"o":"m 301 750 l 542 889 q 625 896 589 917 q 661 819 661 875 l 661 611 q 644 533 661 575 q 601 456 628 492 q 542 403 574 421 l 421 333 q 338 326 374 306 q 301 403 301 347 l 301 83 l 661 292 l 661 153 l 301 -56 q 217 -62 253 -83 q 181 14 181 -42 l 181 542 q 197 620 181 579 q 242 697 214 661 q 301 750 269 732 m 542 750 l 301 611 l 301 403 l 542 542 l 542 750 m 421 972 q 360 965 385 951 q 336 1021 336 979 q 360 1104 336 1063 q 421 1167 385 1146 q 481 1174 457 1188 q 506 1118 506 1160 q 481 1035 506 1076 q 421 972 457 993 m 661 292 l 301 83 l 181 153 l 542 361 l 661 292 m 542 750 l 542 542 l 421 611 l 421 819 l 542 750 m 301 403 q 338 326 301 347 l 217 396 q 181 472 181 417 l 301 403 m 542 542 l 301 403 l 181 472 l 421 611 l 542 542 m 625 896 q 542 889 589 917 l 301 750 q 242 697 269 732 q 197 620 214 661 q 181 542 181 579 l 181 14 q 217 -62 181 -42 l 96 7 q 60 83 60 28 l 60 611 q 76 690 60 649 q 121 766 93 731 q 181 819 149 801 l 421 958 q 506 965 469 986 l 625 896 m 482 1174 q 421 1167 457 1188 q 360 1104 385 1146 q 336 1021 336 1063 q 361 965 336 979 l 240 1035 q 217 1090 217 1049 q 240 1174 217 1132 q 301 1236 264 1215 q 361 1243 338 1257 l 482 1174 z "},"è":{"ha":722,"x_min":60,"x_max":661,"o":"m 301 750 l 542 889 q 625 896 589 917 q 661 819 661 875 l 661 611 q 644 533 661 575 q 601 456 628 492 q 542 403 574 421 l 421 333 q 338 326 374 306 q 301 403 301 347 l 301 83 l 661 292 l 661 153 l 301 -56 q 217 -62 253 -83 q 181 14 181 -42 l 181 542 q 197 620 181 579 q 242 697 214 661 q 301 750 269 732 m 263 1251 l 597 1172 l 528 1029 l 193 1107 l 263 1251 m 542 750 l 301 611 l 301 403 l 542 542 l 542 750 m 661 292 l 301 83 l 181 153 l 542 361 l 661 292 m 597 1172 l 263 1251 l 142 1321 l 476 1242 l 597 1172 m 542 750 l 542 542 l 421 611 l 421 819 l 542 750 m 301 403 q 338 326 301 347 l 217 396 q 181 472 181 417 l 301 403 m 542 542 l 301 403 l 181 472 l 421 611 l 542 542 m 625 896 q 542 889 589 917 l 301 750 q 242 697 269 732 q 197 620 214 661 q 181 542 181 579 l 181 14 q 217 -62 181 -42 l 96 7 q 60 83 60 28 l 60 611 q 76 690 60 649 q 121 766 93 731 q 181 819 149 801 l 421 958 q 506 965 469 986 l 625 896 m 263 1251 l 193 1107 l 74 1176 l 142 1321 l 263 1251 z "},"…":{"ha":914,"x_min":60,"x_max":854,"o":"m 758 208 q 688 200 715 185 q 661 264 661 215 q 688 360 661 313 q 758 431 715 407 q 827 439 800 454 q 854 375 854 424 q 827 279 854 326 q 758 208 800 232 m 276 -69 q 208 -78 235 -93 q 181 -14 181 -62 q 208 82 181 35 q 276 153 235 129 q 345 161 318 176 q 372 97 372 146 q 345 1 372 49 q 276 -69 318 -46 m 517 69 q 448 61 475 46 q 421 125 421 76 q 448 221 421 174 q 517 292 475 268 q 587 300 560 315 q 614 236 614 285 q 587 140 614 188 q 517 69 560 93 m 826 439 q 758 431 800 454 q 688 360 715 407 q 661 264 661 313 q 689 200 661 215 l 568 269 q 542 333 542 285 q 569 429 542 382 q 638 500 596 476 q 707 508 679 524 l 826 439 m 586 300 q 517 292 560 315 q 448 221 475 268 q 421 125 421 174 q 449 61 421 76 l 328 131 q 301 194 301 146 q 328 290 301 243 q 397 361 356 338 q 465 369 439 385 l 586 300 m 346 161 q 276 153 318 176 q 208 82 235 129 q 181 -14 181 35 q 207 -78 181 -62 l 88 -8 q 60 56 60 7 q 87 151 60 104 q 157 222 114 199 q 225 231 199 246 l 346 161 z "},"ē":{"ha":722,"x_min":60,"x_max":661,"o":"m 301 750 l 542 889 q 625 896 589 917 q 661 819 661 875 l 661 611 q 644 533 661 575 q 601 456 628 492 q 542 403 574 421 l 421 333 q 338 326 374 306 q 301 403 301 347 l 301 83 l 661 292 l 661 153 l 301 -56 q 217 -62 253 -83 q 181 14 181 -42 l 181 542 q 197 620 181 579 q 242 697 214 661 q 301 750 269 732 m 542 750 l 301 611 l 301 403 l 542 542 l 542 750 m 217 1021 l 578 1229 l 578 1090 l 217 882 l 217 1021 m 661 292 l 301 83 l 181 153 l 542 361 l 661 292 m 542 750 l 542 542 l 421 611 l 421 819 l 542 750 m 301 403 q 338 326 301 347 l 217 396 q 181 472 181 417 l 301 403 m 542 542 l 301 403 l 181 472 l 421 611 l 542 542 m 625 896 q 542 889 589 917 l 301 750 q 242 697 269 732 q 197 620 214 661 q 181 542 181 579 l 181 14 q 217 -62 181 -42 l 96 7 q 60 83 60 28 l 60 611 q 76 690 60 649 q 121 766 93 731 q 181 819 149 801 l 421 958 q 506 965 469 986 l 625 896 m 578 1229 l 217 1021 l 96 1090 l 457 1299 l 578 1229 m 217 1021 l 217 882 l 96 951 l 96 1090 l 217 1021 z "},"—":{"ha":1082,"x_min":60,"x_max":1022,"o":"m 181 208 l 181 347 l 1022 833 l 1022 694 l 181 208 m 1022 833 l 181 347 l 60 417 l 903 903 l 1022 833 m 181 347 l 181 208 l 60 278 l 60 417 l 181 347 z "},"–":{"ha":842,"x_min":60,"x_max":782,"o":"m 181 208 l 181 347 l 782 694 l 782 556 l 181 208 m 782 694 l 181 347 l 60 417 l 661 764 l 782 694 m 181 347 l 181 208 l 60 278 l 60 417 l 181 347 z "},"ŋ":{"ha":722,"x_min":60,"x_max":661,"o":"m 421 -69 l 542 0 l 542 750 l 301 611 l 301 0 l 181 -69 l 181 681 l 301 750 l 301 611 q 318 690 301 649 q 362 766 335 731 q 421 819 389 801 l 542 889 q 625 896 589 917 q 661 819 661 875 l 661 69 q 644 -8 661 33 q 601 -85 628 -50 q 542 -139 574 -121 l 421 -208 l 421 -69 m 542 750 l 542 0 l 421 69 l 421 819 l 542 750 m 542 0 l 421 -69 l 301 0 l 421 69 l 542 0 m 421 -69 l 421 -208 l 301 -139 l 301 0 l 421 -69 m 625 896 q 542 889 589 917 l 421 819 q 362 766 389 801 q 318 690 335 731 q 301 611 301 649 l 181 681 q 197 759 181 718 q 242 835 214 800 q 301 889 269 871 l 421 958 q 506 965 469 986 l 625 896 m 181 681 l 181 -69 l 60 0 l 60 750 l 181 681 m 301 750 l 181 681 l 60 750 l 181 819 l 301 750 z "},"ę":{"ha":722,"x_min":60,"x_max":661,"o":"m 542 83 l 542 -56 l 661 14 l 661 -125 l 542 -194 q 457 -201 493 -222 q 421 -125 421 -181 q 438 -47 421 -87 q 482 30 454 -6 q 542 83 510 65 l 301 -56 q 217 -62 253 -83 q 181 14 181 -42 l 181 542 q 197 620 181 579 q 242 697 214 661 q 301 750 269 732 l 542 889 q 625 896 589 917 q 661 819 661 875 l 661 611 q 644 533 661 575 q 601 456 628 492 q 542 403 574 421 l 421 333 q 338 326 374 306 q 301 403 301 347 l 301 83 l 661 292 l 661 153 l 542 83 m 542 750 l 301 611 l 301 403 l 542 542 l 542 750 m 661 14 l 542 -56 l 421 14 l 542 83 l 661 14 m 542 750 l 542 542 l 421 611 l 421 819 l 542 750 m 542 83 q 482 30 510 65 q 438 -47 454 -6 q 421 -125 421 -87 q 457 -201 421 -181 l 338 -132 q 301 -56 301 -111 q 318 22 301 -19 q 362 99 335 64 q 421 153 389 135 l 542 83 m 661 292 l 301 83 l 181 153 l 542 361 l 661 292 m 301 403 q 338 326 301 347 l 217 396 q 181 472 181 417 l 301 403 m 542 542 l 301 403 l 181 472 l 421 611 l 542 542 m 625 896 q 542 889 589 917 l 301 750 q 242 697 269 732 q 197 620 214 661 q 181 542 181 579 l 181 14 q 217 -62 181 -42 l 96 7 q 60 83 60 28 l 60 611 q 76 690 60 649 q 121 766 93 731 q 181 819 149 801 l 421 958 q 506 965 469 986 l 625 896 z "},"=":{"ha":722,"x_min":60,"x_max":661,"o":"m 181 181 l 661 458 l 661 319 l 181 42 l 181 181 m 181 514 l 661 792 l 661 653 l 181 375 l 181 514 m 661 458 l 181 181 l 60 250 l 542 528 l 661 458 m 181 181 l 181 42 l 60 111 l 60 250 l 181 181 m 661 792 l 181 514 l 60 583 l 542 861 l 661 792 m 181 514 l 181 375 l 60 444 l 60 583 l 181 514 z "},"ð":{"ha":721,"x_min":60,"x_max":708,"o":"m 494 1069 q 582 1058 543 1078 l 639 1139 l 708 1065 l 649 982 q 661 903 661 947 l 661 153 q 578 146 614 125 q 542 222 542 167 q 525 144 542 186 q 481 67 508 103 q 421 14 453 32 l 301 -56 q 217 -62 253 -83 q 181 14 181 -42 l 181 486 q 197 565 181 524 q 242 641 214 606 q 301 694 269 676 l 421 764 q 506 771 469 792 q 542 694 542 750 l 542 833 q 506 905 542 879 q 429 928 471 931 l 494 1069 m 301 556 l 301 83 l 542 222 l 542 694 l 301 556 m 639 1139 l 582 1058 l 461 1128 l 519 1208 l 639 1139 m 582 1058 q 494 1069 543 1078 l 375 1139 q 461 1128 422 1147 l 582 1058 m 494 913 q 528 881 515 901 q 542 833 542 860 l 542 694 l 421 764 l 421 903 q 408 950 421 929 q 374 982 394 971 l 494 913 m 542 222 q 578 146 542 167 l 457 215 q 421 292 421 236 l 542 222 m 542 694 l 542 222 l 421 292 l 421 764 l 542 694 m 494 1069 l 429 928 l 310 997 l 375 1139 l 494 1069 m 542 222 l 301 83 l 181 153 l 421 292 l 542 222 m 506 771 q 421 764 469 792 l 301 694 q 242 641 269 676 q 197 565 214 606 q 181 486 181 524 l 181 14 q 217 -62 181 -42 l 96 7 q 60 83 60 28 l 60 556 q 76 634 60 593 q 121 710 93 675 q 181 764 149 746 l 301 833 q 385 840 349 861 l 506 771 z "},"!":{"ha":385,"x_min":49,"x_max":336,"o":"m 313 1229 l 313 257 l 193 188 l 193 1160 l 313 1229 m 253 -69 q 192 -76 215 -90 q 168 -21 168 -62 q 192 63 168 21 q 253 125 215 104 q 313 132 289 146 q 336 76 336 118 q 313 -7 336 35 q 253 -69 289 -49 m 313 1229 l 193 1160 l 72 1229 l 193 1299 l 313 1229 m 313 132 q 253 125 289 146 q 192 63 215 104 q 168 -21 168 21 q 192 -76 168 -62 l 72 -7 q 49 49 49 7 q 72 132 49 90 q 132 194 96 174 q 193 201 169 215 l 313 132 m 193 1160 l 193 188 l 72 257 l 72 1229 l 193 1160 z "},"¡":{"ha":385,"x_min":49,"x_max":336,"o":"m 313 7 l 193 -62 l 193 882 l 313 951 l 313 7 m 253 1208 q 313 1215 289 1229 q 336 1160 336 1201 q 313 1076 336 1118 q 253 1014 289 1035 q 192 1007 215 993 q 168 1063 168 1021 q 192 1146 168 1104 q 253 1208 215 1188 m 313 951 l 193 882 l 72 951 l 193 1021 l 313 951 m 193 882 l 193 -62 l 72 7 l 72 951 l 193 882 m 313 1215 q 253 1208 289 1229 q 192 1146 215 1188 q 168 1063 168 1104 q 192 1007 168 1021 l 72 1076 q 49 1132 49 1090 q 72 1215 49 1174 q 132 1278 96 1257 q 193 1285 169 1299 l 313 1215 z "},"f":{"ha":722,"x_min":60,"x_max":661,"o":"m 301 417 l 181 347 l 181 486 l 301 556 l 301 750 q 318 828 301 788 q 362 905 335 869 q 421 958 389 940 l 661 1097 l 661 958 l 421 819 l 421 486 q 438 565 421 524 q 482 641 454 606 q 542 694 510 676 l 661 764 l 661 625 l 421 486 l 421 14 l 301 -56 l 301 417 m 301 417 l 301 -56 l 181 14 l 181 486 l 301 417 m 661 764 l 542 694 q 482 641 510 676 q 438 565 454 606 q 421 486 421 524 l 301 556 q 318 634 301 593 q 362 710 335 675 q 421 764 389 746 l 542 833 l 661 764 m 661 1097 l 421 958 q 362 905 389 940 q 318 828 335 869 q 301 750 301 788 l 301 556 l 181 625 l 181 819 q 197 898 181 857 q 242 974 214 939 q 301 1028 269 1010 l 542 1167 l 661 1097 m 301 556 l 181 486 l 60 556 l 181 625 l 301 556 m 181 486 l 181 347 l 60 417 l 60 556 l 181 486 z "},"g":{"ha":722,"x_min":60,"x_max":661,"o":"m 301 125 q 217 118 253 97 q 181 194 181 139 l 181 486 q 197 565 181 524 q 242 641 214 606 q 301 694 269 676 l 421 764 q 506 771 469 792 q 542 694 542 750 l 542 833 l 661 903 l 661 153 q 644 75 661 117 q 601 -2 628 33 q 542 -56 574 -37 l 181 -264 l 181 -125 l 542 83 l 542 403 q 525 325 542 367 q 481 248 508 283 q 421 194 453 213 l 301 125 m 301 264 l 542 403 l 542 694 l 301 556 l 301 264 m 542 403 l 542 83 l 421 153 l 421 472 l 542 403 m 542 83 l 181 -125 l 60 -56 l 421 153 l 542 83 m 181 -125 l 181 -264 l 60 -194 l 60 -56 l 181 -125 m 661 903 l 542 833 l 421 903 l 542 972 l 661 903 m 542 833 l 542 694 l 421 764 l 421 903 l 542 833 m 542 694 l 542 403 l 421 472 l 421 764 l 542 694 m 542 403 l 301 264 l 181 333 l 421 472 l 542 403 m 506 771 q 421 764 469 792 l 301 694 q 242 641 269 676 q 197 565 214 606 q 181 486 181 524 l 181 194 q 217 118 181 139 l 96 188 q 60 264 60 208 l 60 556 q 76 634 60 593 q 121 710 93 675 q 181 764 149 746 l 301 833 q 385 840 349 861 l 506 771 z "},"ğ":{"ha":722,"x_min":60,"x_max":661,"o":"m 301 125 q 217 118 253 97 q 181 194 181 139 l 181 486 q 197 565 181 524 q 242 641 214 606 q 301 694 269 676 l 421 764 q 506 771 469 792 q 542 694 542 750 l 542 833 l 661 903 l 661 153 q 644 75 661 117 q 601 -2 628 33 q 542 -56 574 -37 l 181 -264 l 181 -125 l 542 83 l 542 403 q 525 325 542 367 q 481 248 508 283 q 421 194 453 213 l 301 125 m 421 931 q 302 901 357 894 q 214 952 247 908 q 181 1069 181 996 l 301 1139 q 338 1063 301 1083 q 421 1069 374 1042 q 481 1123 453 1088 q 525 1200 508 1158 q 542 1278 542 1242 l 661 1347 q 642 1231 661 1292 q 589 1111 622 1169 q 513 1006 556 1053 q 421 931 469 958 m 301 264 l 542 403 l 542 694 l 301 556 l 301 264 m 542 403 l 542 83 l 421 153 l 421 472 l 542 403 m 542 83 l 181 -125 l 60 -56 l 421 153 l 542 83 m 181 -125 l 181 -264 l 60 -194 l 60 -56 l 181 -125 m 661 903 l 542 833 l 421 903 l 542 972 l 661 903 m 542 833 l 542 694 l 421 764 l 421 903 l 542 833 m 661 1347 l 542 1278 l 421 1347 l 542 1417 l 661 1347 m 542 694 l 542 403 l 421 472 l 421 764 l 542 694 m 542 1278 q 525 1200 542 1242 q 481 1123 508 1158 q 421 1069 453 1088 q 338 1063 374 1042 l 217 1132 q 301 1139 253 1111 q 360 1192 332 1157 q 404 1269 388 1228 q 421 1347 421 1311 l 542 1278 m 181 1069 q 200 975 181 1014 q 253 917 219 936 l 132 986 q 80 1044 100 1006 q 60 1139 60 1083 l 181 1069 m 542 403 l 301 264 l 181 333 l 421 472 l 542 403 m 506 771 q 421 764 469 792 l 301 694 q 242 641 269 676 q 197 565 214 606 q 181 486 181 524 l 181 194 q 217 118 181 139 l 96 188 q 60 264 60 208 l 60 556 q 76 634 60 593 q 121 710 93 675 q 181 764 149 746 l 301 833 q 385 840 349 861 l 506 771 m 301 1139 l 181 1069 l 60 1139 l 181 1208 l 301 1139 z "},"ǧ":{"ha":722,"x_min":60,"x_max":661,"o":"m 301 125 q 217 118 253 97 q 181 194 181 139 l 181 486 q 197 565 181 524 q 242 641 214 606 q 301 694 269 676 l 421 764 q 506 771 469 792 q 542 694 542 750 l 542 833 l 661 903 l 661 153 q 644 75 661 117 q 601 -2 628 33 q 542 -56 574 -37 l 181 -264 l 181 -125 l 542 83 l 542 403 q 525 325 542 367 q 481 248 508 283 q 421 194 453 213 l 301 125 m 301 264 l 542 403 l 542 694 l 301 556 l 301 264 m 451 949 l 194 986 l 257 1119 l 422 1083 l 588 1310 l 658 1229 l 451 949 m 542 403 l 542 83 l 421 153 l 421 472 l 542 403 m 542 83 l 181 -125 l 60 -56 l 421 153 l 542 83 m 181 -125 l 181 -264 l 60 -194 l 60 -56 l 181 -125 m 661 903 l 542 833 l 421 903 l 542 972 l 661 903 m 542 833 l 542 694 l 421 764 l 421 903 l 542 833 m 542 694 l 542 403 l 421 472 l 421 764 l 542 694 m 588 1310 l 422 1083 l 301 1153 l 467 1379 l 588 1310 m 542 403 l 301 264 l 181 333 l 421 472 l 542 403 m 422 1083 l 257 1119 l 138 1189 l 301 1153 l 422 1083 m 257 1119 l 194 986 l 75 1056 l 138 1189 l 257 1119 m 506 771 q 421 764 469 792 l 301 694 q 242 641 269 676 q 197 565 214 606 q 181 486 181 524 l 181 194 q 217 118 181 139 l 96 188 q 60 264 60 208 l 60 556 q 76 634 60 593 q 121 710 93 675 q 181 764 149 746 l 301 833 q 385 840 349 861 l 506 771 z "},"ĝ":{"ha":722,"x_min":60,"x_max":661,"o":"m 301 125 q 217 118 253 97 q 181 194 181 139 l 181 486 q 197 565 181 524 q 242 641 214 606 q 301 694 269 676 l 421 764 q 506 771 469 792 q 542 694 542 750 l 542 833 l 661 903 l 661 153 q 644 75 661 117 q 601 -2 628 33 q 542 -56 574 -37 l 181 -264 l 181 -125 l 542 83 l 542 403 q 525 325 542 367 q 481 248 508 283 q 421 194 453 213 l 301 125 m 301 264 l 542 403 l 542 694 l 301 556 l 301 264 m 440 1071 l 257 821 l 192 893 l 422 1210 l 653 1160 l 596 1035 l 440 1071 m 542 403 l 542 83 l 421 153 l 421 472 l 542 403 m 542 83 l 181 -125 l 60 -56 l 421 153 l 542 83 m 181 -125 l 181 -264 l 60 -194 l 60 -56 l 181 -125 m 661 903 l 542 833 l 421 903 l 542 972 l 661 903 m 542 833 l 542 694 l 421 764 l 421 903 l 542 833 m 542 694 l 542 403 l 421 472 l 421 764 l 542 694 m 653 1160 l 422 1210 l 301 1279 l 533 1229 l 653 1160 m 542 403 l 301 264 l 181 333 l 421 472 l 542 403 m 506 771 q 421 764 469 792 l 301 694 q 242 641 269 676 q 197 565 214 606 q 181 486 181 524 l 181 194 q 217 118 181 139 l 96 188 q 60 264 60 208 l 60 556 q 76 634 60 593 q 121 710 93 675 q 181 764 149 746 l 301 833 q 385 840 349 861 l 506 771 m 422 1210 l 192 893 l 71 963 l 301 1279 l 422 1210 m 192 893 l 257 821 l 138 890 l 71 963 l 192 893 z "},"ġ":{"ha":722,"x_min":60,"x_max":661,"o":"m 301 125 q 217 118 253 97 q 181 194 181 139 l 181 486 q 197 565 181 524 q 242 641 214 606 q 301 694 269 676 l 421 764 q 506 771 469 792 q 542 694 542 750 l 542 833 l 661 903 l 661 153 q 644 75 661 117 q 601 -2 628 33 q 542 -56 574 -37 l 181 -264 l 181 -125 l 542 83 l 542 403 q 525 325 542 367 q 481 248 508 283 q 421 194 453 213 l 301 125 m 301 264 l 542 403 l 542 694 l 301 556 l 301 264 m 421 917 q 360 910 385 896 q 336 965 336 924 q 360 1049 336 1007 q 421 1111 385 1090 q 481 1118 457 1132 q 506 1063 506 1104 q 481 979 506 1021 q 421 917 457 938 m 542 403 l 542 83 l 421 153 l 421 472 l 542 403 m 542 83 l 181 -125 l 60 -56 l 421 153 l 542 83 m 181 -125 l 181 -264 l 60 -194 l 60 -56 l 181 -125 m 661 903 l 542 833 l 421 903 l 542 972 l 661 903 m 542 833 l 542 694 l 421 764 l 421 903 l 542 833 m 542 694 l 542 403 l 421 472 l 421 764 l 542 694 m 542 403 l 301 264 l 181 333 l 421 472 l 542 403 m 482 1118 q 421 1111 457 1132 q 360 1049 385 1090 q 336 965 336 1007 q 361 910 336 924 l 240 979 q 217 1035 217 993 q 240 1118 217 1076 q 301 1181 264 1160 q 361 1188 338 1201 l 482 1118 m 506 771 q 421 764 469 792 l 301 694 q 242 641 269 676 q 197 565 214 606 q 181 486 181 524 l 181 194 q 217 118 181 139 l 96 188 q 60 264 60 208 l 60 556 q 76 634 60 593 q 121 710 93 675 q 181 764 149 746 l 301 833 q 385 840 349 861 l 506 771 z "},"ß":{"ha":782,"x_min":60,"x_max":722,"o":"m 565 819 l 601 840 l 601 1063 l 301 889 l 301 0 l 181 -69 l 181 819 q 197 898 181 857 q 242 974 214 939 q 301 1028 269 1010 l 601 1201 q 685 1208 649 1229 q 722 1132 722 1188 l 722 910 q 705 832 722 874 q 660 755 688 790 q 601 701 633 719 l 565 681 l 565 597 l 601 618 q 685 625 649 646 q 722 549 722 604 l 722 382 q 705 303 722 344 q 660 227 688 263 q 601 174 633 192 l 444 83 l 444 222 l 601 313 l 601 479 l 565 458 q 481 451 518 431 q 444 528 444 472 l 444 611 q 462 690 444 649 q 506 766 479 731 q 565 819 533 801 m 601 1063 l 601 840 l 481 910 l 481 1132 l 601 1063 m 601 479 l 601 313 l 481 382 l 481 549 l 601 479 m 601 313 l 444 222 l 325 292 l 481 382 l 601 313 m 444 222 l 444 83 l 325 153 l 325 292 l 444 222 m 686 625 q 601 618 649 646 l 565 597 l 444 667 l 481 688 q 565 694 529 715 l 686 625 m 601 840 l 565 819 q 506 766 533 801 q 462 690 479 731 q 444 611 444 649 l 444 528 q 482 451 444 472 l 361 521 q 325 597 325 542 l 325 681 q 342 759 325 718 q 385 835 358 800 q 444 889 413 871 l 481 910 l 601 840 m 686 1208 q 601 1201 649 1229 l 301 1028 q 242 974 269 1010 q 197 898 214 939 q 181 819 181 857 l 181 -69 l 60 0 l 60 889 q 76 967 60 926 q 121 1044 93 1008 q 181 1097 149 1079 l 481 1271 q 565 1278 529 1299 l 686 1208 z "},"`":{"ha":722,"x_min":69,"x_max":593,"o":"m 258 1222 l 593 1143 l 525 999 l 190 1076 l 258 1222 m 593 1143 l 258 1222 l 139 1292 l 472 1213 l 593 1143 m 258 1222 l 190 1076 l 69 1146 l 139 1292 l 258 1222 z "},"̀":{"ha":0,"x_min":69,"x_max":593,"o":"m 258 1222 l 593 1143 l 525 999 l 190 1076 l 258 1222 m 593 1143 l 258 1222 l 139 1292 l 472 1213 l 593 1143 m 258 1222 l 190 1076 l 69 1146 l 139 1292 l 258 1222 z "},">":{"ha":717,"x_min":60,"x_max":657,"o":"m 657 692 l 240 174 l 181 260 l 549 717 l 181 750 l 240 906 l 657 868 l 657 692 m 657 868 l 240 906 l 121 975 l 538 938 l 657 868 m 549 717 l 181 260 l 60 329 l 428 786 l 549 717 m 181 260 l 240 174 l 121 243 l 60 329 l 181 260 m 240 906 l 181 750 l 60 819 l 121 975 l 240 906 z "},"≥":{"ha":717,"x_min":60,"x_max":661,"o":"m 657 733 l 240 215 l 181 301 l 549 758 l 181 792 l 240 947 l 657 910 l 657 733 m 181 69 l 661 347 l 661 208 l 181 -69 l 181 69 m 657 910 l 240 947 l 121 1017 l 538 979 l 657 910 m 661 347 l 181 69 l 60 139 l 542 417 l 661 347 m 181 69 l 181 -69 l 60 0 l 60 139 l 181 69 m 549 758 l 181 301 l 60 371 l 428 828 l 549 758 m 181 301 l 240 215 l 121 285 l 60 371 l 181 301 m 240 947 l 181 792 l 60 861 l 121 1017 l 240 947 z "},"«":{"ha":806,"x_min":60,"x_max":746,"o":"m 421 69 l 301 0 l 301 139 q 263 213 301 192 q 181 208 225 235 l 181 347 q 238 401 211 365 q 283 479 265 438 q 301 556 301 521 l 301 694 l 421 764 l 421 625 q 397 497 421 563 q 336 368 372 431 q 397 309 372 347 q 421 208 421 271 l 421 69 m 506 396 l 506 535 q 563 589 535 553 q 608 667 590 625 q 625 743 625 708 l 625 882 l 746 951 l 746 813 q 722 684 746 750 q 661 556 697 618 q 722 497 697 535 q 746 396 746 458 l 746 257 l 625 188 l 625 326 q 588 401 625 379 q 506 396 550 422 m 263 213 q 301 139 301 192 l 301 0 l 181 69 l 181 208 q 143 282 181 261 l 263 213 m 588 400 q 625 326 625 379 l 625 188 l 506 257 l 506 396 q 468 469 506 449 l 588 400 m 746 951 l 625 882 l 506 951 l 625 1021 l 746 951 m 625 882 l 625 743 q 608 667 625 708 q 563 589 590 625 q 506 535 535 553 l 385 604 q 442 658 415 622 q 488 736 469 694 q 506 813 506 778 l 506 951 l 625 882 m 421 764 l 301 694 l 181 764 l 301 833 l 421 764 m 181 347 l 181 208 l 60 278 l 60 417 l 181 347 m 506 535 l 506 396 l 385 465 l 385 604 l 506 535 m 301 694 l 301 556 q 283 479 301 521 q 238 401 265 438 q 181 347 211 365 l 60 417 q 118 471 90 435 q 163 549 146 507 q 181 625 181 590 l 181 764 l 301 694 z "},"»":{"ha":806,"x_min":60,"x_max":746,"o":"m 181 -69 l 181 69 q 203 199 181 131 q 265 328 226 267 q 203 385 226 343 q 181 486 181 426 l 181 625 l 301 694 l 301 556 q 338 479 301 500 q 421 486 374 458 l 421 347 q 362 294 389 329 q 318 217 335 258 q 301 139 301 176 l 301 0 l 181 -69 m 506 118 l 506 257 q 528 386 506 318 q 590 515 551 454 q 528 572 551 531 q 506 674 506 614 l 506 813 l 625 882 l 625 743 q 662 667 625 688 q 746 674 699 646 l 746 535 q 687 481 714 517 q 642 405 660 446 q 625 326 625 364 l 625 188 l 506 118 m 746 674 q 661 667 699 646 l 542 736 q 625 743 578 715 l 746 674 m 590 515 q 528 386 551 454 q 506 257 506 318 l 506 118 l 385 188 l 385 326 q 408 456 385 388 q 471 585 432 524 l 590 515 m 421 486 q 338 479 374 458 l 217 549 q 301 556 253 528 l 421 486 m 265 328 q 203 199 226 267 q 181 69 181 131 l 181 -69 l 60 0 l 60 139 q 83 268 60 200 q 146 397 107 336 l 265 328 m 625 882 l 506 813 l 385 882 l 506 951 l 625 882 m 506 813 l 506 674 q 525 579 506 618 q 576 521 544 540 l 457 590 q 404 649 424 610 q 385 743 385 688 l 385 882 l 506 813 m 301 694 l 181 625 l 60 694 l 181 764 l 301 694 m 181 625 l 181 486 q 200 392 181 431 q 253 333 219 353 l 132 403 q 79 461 99 422 q 60 556 60 500 l 60 694 l 181 625 z "},"‹":{"ha":481,"x_min":60,"x_max":421,"o":"m 421 69 l 301 0 l 301 139 q 265 215 301 194 q 181 208 228 236 l 181 347 q 240 401 213 365 q 284 478 267 436 q 301 556 301 519 l 301 694 l 421 764 l 421 625 q 398 497 421 565 q 336 368 375 428 q 398 310 375 351 q 421 208 421 269 l 421 69 m 349 361 q 336 367 343 364 l 215 436 q 229 431 222 433 l 349 361 m 421 764 l 301 694 l 181 764 l 301 833 l 421 764 m 264 215 q 301 139 301 194 l 301 0 l 181 69 l 181 208 q 144 285 181 264 l 264 215 m 301 694 l 301 556 q 284 478 301 519 q 240 401 267 436 q 181 347 213 365 l 60 417 q 119 470 92 435 q 164 547 147 506 q 181 625 181 589 l 181 764 l 301 694 m 181 347 l 181 208 l 60 278 l 60 417 l 181 347 z "},"›":{"ha":481,"x_min":60,"x_max":421,"o":"m 181 -69 l 181 69 q 203 199 181 131 q 265 326 226 267 q 203 385 226 343 q 181 486 181 426 l 181 625 l 301 694 l 301 556 q 338 479 301 500 q 421 486 374 458 l 421 347 q 362 294 389 329 q 318 217 335 258 q 301 139 301 176 l 301 0 l 181 -69 m 421 486 q 338 479 374 458 l 217 549 q 301 556 253 528 l 421 486 m 301 694 l 181 625 l 60 694 l 181 764 l 301 694 m 265 326 q 203 199 226 267 q 181 69 181 131 l 181 -69 l 60 0 l 60 139 q 83 268 60 200 q 144 396 107 336 l 265 326 m 181 625 l 181 486 q 200 391 181 431 q 253 332 219 351 l 133 401 q 80 460 100 421 q 60 556 60 500 l 60 694 l 181 625 z "},"h":{"ha":722,"x_min":60,"x_max":661,"o":"m 421 819 l 542 889 q 625 896 589 917 q 661 819 661 875 l 661 208 l 542 139 l 542 750 l 301 611 l 301 0 l 181 -69 l 181 1042 l 301 1111 l 301 611 q 318 690 301 649 q 362 766 335 731 q 421 819 389 801 m 542 750 l 542 139 l 421 208 l 421 819 l 542 750 m 625 896 q 542 889 589 917 l 421 819 q 362 766 389 801 q 318 690 335 731 q 301 611 301 649 l 181 681 q 197 759 181 718 q 242 835 214 800 q 301 889 269 871 l 421 958 q 506 965 469 986 l 625 896 m 301 1111 l 181 1042 l 60 1111 l 181 1181 l 301 1111 m 181 1042 l 181 -69 l 60 0 l 60 1111 l 181 1042 z "},"ħ":{"ha":782,"x_min":0,"x_max":722,"o":"m 121 868 l 240 938 l 240 1076 l 361 1146 l 361 1007 l 481 1076 l 481 938 l 361 868 l 361 35 l 240 -35 l 240 799 l 121 729 l 121 868 m 481 854 l 601 924 q 685 931 649 951 q 722 854 722 910 l 722 243 l 601 174 l 601 785 l 361 646 q 378 724 361 683 q 422 801 394 765 q 481 854 449 836 m 601 785 l 601 174 l 481 243 l 481 854 l 601 785 m 686 931 q 601 924 649 951 l 481 854 q 422 801 449 836 q 378 724 394 765 q 361 646 361 683 l 240 715 q 257 794 240 753 q 301 870 274 835 q 361 924 329 906 l 481 993 q 565 1000 529 1021 l 686 931 m 240 1076 l 240 938 l 121 1007 l 121 1146 l 240 1076 m 240 799 l 240 -35 l 121 35 l 121 868 l 240 799 m 481 1076 l 361 1007 l 240 1076 l 361 1146 l 481 1076 m 361 1146 l 240 1076 l 121 1146 l 240 1215 l 361 1146 m 240 938 l 121 868 l 0 938 l 121 1007 l 240 938 m 121 868 l 121 729 l 0 799 l 0 938 l 121 868 z "},"ĥ":{"ha":722,"x_min":35,"x_max":661,"o":"m 301 1111 l 301 0 l 181 -69 l 181 1042 l 301 1111 m 421 819 l 542 889 q 625 896 589 917 q 661 819 661 875 l 661 208 l 542 139 l 542 750 l 301 611 q 318 690 301 649 q 362 766 335 731 q 421 819 389 801 m 404 1356 l 221 1106 l 156 1178 l 386 1494 l 617 1444 l 560 1319 l 404 1356 m 542 750 l 542 139 l 421 208 l 421 819 l 542 750 m 617 1444 l 386 1494 l 265 1564 l 497 1514 l 617 1444 m 625 896 q 542 889 589 917 l 421 819 q 362 766 389 801 q 318 690 335 731 q 301 611 301 649 l 181 681 q 197 759 181 718 q 242 835 214 800 q 301 889 269 871 l 421 958 q 506 965 469 986 l 625 896 m 301 1111 l 181 1042 l 60 1111 l 181 1181 l 301 1111 m 181 1042 l 181 -69 l 60 0 l 60 1111 l 181 1042 m 386 1494 l 156 1178 l 35 1247 l 265 1564 l 386 1494 m 156 1178 l 221 1106 l 101 1175 l 35 1247 l 156 1178 z "},"˝":{"ha":722,"x_min":39,"x_max":685,"o":"m 158 889 l 313 1179 l 408 1146 l 256 856 l 158 889 m 436 1049 l 589 1339 l 685 1306 l 532 1015 l 436 1049 m 685 1306 l 589 1339 l 469 1408 l 564 1375 l 685 1306 m 589 1339 l 436 1049 l 315 1118 l 469 1408 l 589 1339 m 408 1146 l 313 1179 l 193 1249 l 288 1215 l 408 1146 m 313 1179 l 158 889 l 39 958 l 193 1249 l 313 1179 z "},"-":{"ha":601,"x_min":60,"x_max":542,"o":"m 181 208 l 181 347 l 542 556 l 542 417 l 181 208 m 542 556 l 181 347 l 60 417 l 421 625 l 542 556 m 181 347 l 181 208 l 60 278 l 60 417 l 181 347 z "},"i":{"ha":722,"x_min":60,"x_max":661,"o":"m 361 174 l 361 590 l 181 486 l 181 625 l 661 903 l 661 764 l 481 660 l 481 243 l 661 347 l 661 208 l 181 -69 l 181 69 l 361 174 m 421 889 q 360 882 385 868 q 336 938 336 896 q 360 1021 336 979 q 421 1083 385 1063 q 481 1090 457 1104 q 506 1035 506 1076 q 481 951 506 993 q 421 889 457 910 m 361 174 l 181 69 l 60 139 l 240 243 l 361 174 m 181 69 l 181 -69 l 60 0 l 60 139 l 181 69 m 661 347 l 481 243 l 361 313 l 542 417 l 661 347 m 361 590 l 361 174 l 240 243 l 240 660 l 361 590 m 661 903 l 181 625 l 60 694 l 542 972 l 661 903 m 181 625 l 181 486 l 60 556 l 60 694 l 181 625 m 482 1090 q 421 1083 457 1104 q 360 1021 385 1063 q 336 938 336 979 q 361 882 336 896 l 240 951 q 217 1007 217 965 q 240 1090 217 1049 q 301 1153 264 1132 q 361 1160 338 1174 l 482 1090 z "},"í":{"ha":722,"x_min":60,"x_max":661,"o":"m 361 174 l 361 590 l 181 486 l 181 625 l 661 903 l 661 764 l 481 660 l 481 243 l 661 347 l 661 208 l 181 -69 l 181 69 l 361 174 m 233 929 l 521 1279 l 585 1196 l 297 846 l 233 929 m 361 174 l 181 69 l 60 139 l 240 243 l 361 174 m 181 69 l 181 -69 l 60 0 l 60 139 l 181 69 m 661 347 l 481 243 l 361 313 l 542 417 l 661 347 m 361 590 l 361 174 l 240 243 l 240 660 l 361 590 m 661 903 l 181 625 l 60 694 l 542 972 l 661 903 m 181 625 l 181 486 l 60 556 l 60 694 l 181 625 m 521 1279 l 233 929 l 113 999 l 400 1349 l 521 1279 m 233 929 l 297 846 l 176 915 l 113 999 l 233 929 z "},"î":{"ha":722,"x_min":60,"x_max":661,"o":"m 361 174 l 361 590 l 181 486 l 181 625 l 661 903 l 661 764 l 481 660 l 481 243 l 661 347 l 661 208 l 181 -69 l 181 69 l 361 174 m 440 1072 l 257 822 l 192 894 l 422 1211 l 653 1161 l 596 1036 l 440 1072 m 361 174 l 181 69 l 60 139 l 240 243 l 361 174 m 181 69 l 181 -69 l 60 0 l 60 139 l 181 69 m 661 347 l 481 243 l 361 313 l 542 417 l 661 347 m 653 1161 l 422 1211 l 301 1281 l 533 1231 l 653 1161 m 361 590 l 361 174 l 240 243 l 240 660 l 361 590 m 661 903 l 181 625 l 60 694 l 542 972 l 661 903 m 181 625 l 181 486 l 60 556 l 60 694 l 181 625 m 422 1211 l 192 894 l 71 964 l 301 1281 l 422 1211 m 192 894 l 257 822 l 138 892 l 71 964 l 192 894 z "},"ï":{"ha":722,"x_min":60,"x_max":661,"o":"m 361 174 l 361 590 l 181 486 l 181 625 l 661 903 l 661 764 l 481 660 l 481 243 l 661 347 l 661 208 l 181 -69 l 181 69 l 361 174 m 265 826 q 204 819 228 806 q 181 875 181 833 q 204 958 181 917 q 265 1021 228 1000 q 325 1028 301 1042 q 349 972 349 1014 q 325 889 349 931 q 265 826 301 847 m 578 1007 q 517 1000 540 986 q 493 1056 493 1014 q 517 1139 493 1097 q 578 1201 540 1181 q 638 1208 614 1222 q 661 1153 661 1194 q 638 1069 661 1111 q 578 1007 614 1028 m 361 174 l 181 69 l 60 139 l 240 243 l 361 174 m 181 69 l 181 -69 l 60 0 l 60 139 l 181 69 m 661 347 l 481 243 l 361 313 l 542 417 l 661 347 m 638 1208 q 578 1201 614 1222 q 517 1139 540 1181 q 493 1056 493 1097 q 517 1000 493 1014 l 397 1069 q 372 1125 372 1083 q 397 1208 372 1167 q 457 1271 421 1250 q 518 1278 493 1292 l 638 1208 m 361 590 l 361 174 l 240 243 l 240 660 l 361 590 m 661 903 l 181 625 l 60 694 l 542 972 l 661 903 m 181 625 l 181 486 l 60 556 l 60 694 l 181 625 m 325 1028 q 265 1021 301 1042 q 204 958 228 1000 q 181 875 181 917 q 204 819 181 833 l 83 889 q 60 944 60 903 q 84 1028 60 986 q 144 1090 108 1069 q 204 1097 181 1111 l 325 1028 z "},"ì":{"ha":722,"x_min":60,"x_max":661,"o":"m 361 174 l 361 590 l 181 486 l 181 625 l 661 903 l 661 764 l 481 660 l 481 243 l 661 347 l 661 208 l 181 -69 l 181 69 l 361 174 m 264 1197 l 597 1118 l 529 974 l 194 1051 l 264 1197 m 361 174 l 181 69 l 60 139 l 240 243 l 361 174 m 181 69 l 181 -69 l 60 0 l 60 139 l 181 69 m 661 347 l 481 243 l 361 313 l 542 417 l 661 347 m 597 1118 l 264 1197 l 143 1267 l 478 1188 l 597 1118 m 361 590 l 361 174 l 240 243 l 240 660 l 361 590 m 661 903 l 181 625 l 60 694 l 542 972 l 661 903 m 181 625 l 181 486 l 60 556 l 60 694 l 181 625 m 264 1197 l 194 1051 l 75 1121 l 143 1267 l 264 1197 z "},"ĳ":{"ha":722,"x_min":36,"x_max":686,"o":"m 542 694 l 421 625 l 421 764 l 661 903 l 661 153 q 644 75 661 117 q 601 -2 628 33 q 542 -56 574 -37 l 181 -264 l 181 -125 l 542 83 l 542 694 m 181 625 l 301 694 l 301 139 l 181 69 l 181 625 m 601 1021 q 541 1014 565 1000 q 517 1069 517 1028 q 541 1153 517 1111 q 601 1215 565 1194 q 662 1222 638 1236 q 686 1167 686 1208 q 662 1083 686 1125 q 601 1021 638 1042 m 240 813 q 181 806 204 792 q 157 861 157 819 q 181 944 157 903 q 240 1007 204 986 q 301 1014 278 1028 q 325 958 325 1000 q 301 875 325 917 q 240 813 278 833 m 542 694 l 542 83 l 421 153 l 421 764 l 542 694 m 542 83 l 181 -125 l 60 -56 l 421 153 l 542 83 m 181 -125 l 181 -264 l 60 -194 l 60 -56 l 181 -125 m 661 903 l 421 764 l 301 833 l 542 972 l 661 903 m 663 1222 q 601 1215 638 1236 q 541 1153 565 1194 q 517 1069 517 1111 q 542 1014 517 1028 l 421 1083 q 397 1139 397 1097 q 421 1222 397 1181 q 481 1285 444 1264 q 542 1292 518 1306 l 663 1222 m 421 764 l 421 625 l 301 694 l 301 833 l 421 764 m 301 694 l 181 625 l 60 694 l 181 764 l 301 694 m 181 625 l 181 69 l 60 139 l 60 694 l 181 625 m 301 1014 q 240 1007 278 1028 q 181 944 204 986 q 157 861 157 903 q 181 806 157 819 l 60 875 q 36 931 36 889 q 60 1014 36 972 q 121 1076 83 1056 q 181 1083 157 1097 l 301 1014 z "},"ī":{"ha":722,"x_min":60,"x_max":661,"o":"m 361 174 l 361 590 l 181 486 l 181 625 l 661 903 l 661 764 l 481 660 l 481 243 l 661 347 l 661 208 l 181 -69 l 181 69 l 361 174 m 217 965 l 578 1174 l 578 1035 l 217 826 l 217 965 m 361 174 l 181 69 l 60 139 l 240 243 l 361 174 m 181 69 l 181 -69 l 60 0 l 60 139 l 181 69 m 661 347 l 481 243 l 361 313 l 542 417 l 661 347 m 361 590 l 361 174 l 240 243 l 240 660 l 361 590 m 661 903 l 181 625 l 60 694 l 542 972 l 661 903 m 181 625 l 181 486 l 60 556 l 60 694 l 181 625 m 578 1174 l 217 965 l 96 1035 l 457 1243 l 578 1174 m 217 965 l 217 826 l 96 896 l 96 1035 l 217 965 z "},"į":{"ha":722,"x_min":60,"x_max":661,"o":"m 542 139 l 542 0 l 661 69 l 661 -69 l 542 -139 q 457 -146 493 -167 q 421 -69 421 -125 q 438 8 421 -33 q 482 85 454 50 q 542 139 510 121 l 181 -69 l 181 69 l 361 174 l 361 590 l 181 486 l 181 625 l 661 903 l 661 764 l 481 660 l 481 243 l 661 347 l 661 208 l 542 139 m 421 889 q 360 882 385 868 q 336 938 336 896 q 360 1021 336 979 q 421 1083 385 1063 q 481 1090 457 1104 q 506 1035 506 1076 q 481 951 506 993 q 421 889 457 910 m 661 347 l 481 243 l 361 313 l 542 417 l 661 347 m 661 69 l 542 0 l 421 69 l 542 139 l 661 69 m 542 139 q 482 85 510 121 q 438 8 454 50 q 421 -69 421 -33 q 457 -146 421 -125 l 338 -76 q 301 0 301 -56 q 318 78 301 36 q 362 155 335 119 q 421 208 389 190 l 542 139 m 361 590 l 361 174 l 240 243 l 240 660 l 361 590 m 361 174 l 181 69 l 60 139 l 240 243 l 361 174 m 181 69 l 181 -69 l 60 0 l 60 139 l 181 69 m 661 903 l 181 625 l 60 694 l 542 972 l 661 903 m 181 625 l 181 486 l 60 556 l 60 694 l 181 625 m 482 1090 q 421 1083 457 1104 q 360 1021 385 1063 q 336 938 336 979 q 361 882 336 896 l 240 951 q 217 1007 217 965 q 240 1090 217 1049 q 301 1153 264 1132 q 361 1160 338 1174 l 482 1090 z "},"ĩ":{"ha":722,"x_min":15,"x_max":683,"o":"m 361 174 l 361 590 l 181 486 l 181 625 l 661 903 l 661 764 l 481 660 l 481 243 l 661 347 l 661 208 l 181 -69 l 181 69 l 361 174 m 232 807 l 136 842 l 246 1063 q 316 1147 275 1124 q 404 1154 357 1171 l 499 1122 l 589 1303 l 683 1268 l 575 1047 q 503 964 544 988 q 415 956 463 940 l 321 989 l 232 807 m 361 174 l 181 69 l 60 139 l 240 243 l 361 174 m 181 69 l 181 -69 l 60 0 l 60 139 l 181 69 m 661 347 l 481 243 l 361 313 l 542 417 l 661 347 m 683 1268 l 589 1303 l 468 1372 l 563 1338 l 683 1268 m 589 1303 l 499 1122 l 378 1192 l 468 1372 l 589 1303 m 361 590 l 361 174 l 240 243 l 240 660 l 361 590 m 661 903 l 181 625 l 60 694 l 542 972 l 661 903 m 181 625 l 181 486 l 60 556 l 60 694 l 181 625 m 499 1122 l 404 1154 q 316 1147 357 1171 q 246 1063 275 1124 l 136 842 l 15 911 l 125 1132 q 197 1217 156 1193 q 283 1224 238 1240 l 378 1192 l 499 1122 z "},"j":{"ha":601,"x_min":60,"x_max":565,"o":"m 421 764 q 404 686 421 728 q 360 609 388 644 q 301 556 332 574 l 181 486 l 181 625 l 542 833 l 542 83 q 525 6 542 47 q 481 -72 508 -36 q 421 -125 453 -107 l 181 -264 l 181 -125 l 421 14 l 421 764 m 481 882 q 421 875 444 861 q 397 931 397 889 q 421 1014 397 972 q 481 1076 444 1056 q 542 1083 518 1097 q 565 1028 565 1069 q 542 944 565 986 q 481 882 518 903 m 421 764 l 421 14 l 301 83 l 301 833 l 421 764 m 421 14 l 181 -125 l 60 -56 l 301 83 l 421 14 m 181 -125 l 181 -264 l 60 -194 l 60 -56 l 181 -125 m 542 833 l 181 625 l 60 694 l 421 903 l 542 833 m 181 625 l 181 486 l 60 556 l 60 694 l 181 625 m 542 1083 q 481 1076 518 1097 q 421 1014 444 1056 q 397 931 397 972 q 421 875 397 889 l 300 944 q 276 1000 276 958 q 300 1083 276 1042 q 361 1146 324 1125 q 421 1153 397 1167 l 542 1083 z "},"ĵ":{"ha":601,"x_min":10,"x_max":592,"o":"m 421 764 q 404 686 421 728 q 360 609 388 644 q 301 556 332 574 l 181 486 l 181 625 l 542 833 l 542 83 q 525 6 542 47 q 481 -72 508 -36 q 421 -125 453 -107 l 181 -264 l 181 -125 l 421 14 l 421 764 m 379 1036 l 196 788 l 131 858 l 361 1175 l 592 1125 l 535 1000 l 379 1036 m 421 764 l 421 14 l 301 83 l 301 833 l 421 764 m 421 14 l 181 -125 l 60 -56 l 301 83 l 421 14 m 181 -125 l 181 -264 l 60 -194 l 60 -56 l 181 -125 m 592 1125 l 361 1175 l 240 1244 l 471 1194 l 592 1125 m 542 833 l 181 625 l 60 694 l 421 903 l 542 833 m 181 625 l 181 486 l 60 556 l 60 694 l 181 625 m 361 1175 l 131 858 l 10 928 l 240 1244 l 361 1175 m 131 858 l 196 788 l 76 857 l 10 928 l 131 858 z "},"k":{"ha":722,"x_min":60,"x_max":661,"o":"m 542 139 l 542 417 l 301 278 l 301 0 l 181 -69 l 181 1042 l 301 1111 l 301 417 l 542 556 l 542 833 l 661 903 l 661 764 q 644 686 661 728 q 601 609 628 644 q 542 556 574 574 q 625 563 589 583 q 661 486 661 542 l 661 208 l 542 139 m 625 563 q 542 556 589 583 l 421 625 q 506 632 469 653 l 625 563 m 661 903 l 542 833 l 421 903 l 542 972 l 661 903 m 542 417 l 542 139 l 421 208 l 421 486 l 542 417 m 542 833 l 542 556 l 421 625 l 421 903 l 542 833 m 542 556 l 301 417 l 181 486 l 421 625 l 542 556 m 301 1111 l 181 1042 l 60 1111 l 181 1181 l 301 1111 m 181 1042 l 181 -69 l 60 0 l 60 1111 l 181 1042 z "},"l":{"ha":542,"x_min":60,"x_max":481,"o":"m 301 83 l 481 188 l 481 49 l 301 -56 q 217 -62 253 -83 q 181 14 181 -42 l 181 1042 l 301 1111 l 301 83 m 301 1111 l 181 1042 l 60 1111 l 181 1181 l 301 1111 m 481 188 l 301 83 l 181 153 l 361 257 l 481 188 m 181 1042 l 181 14 q 217 -62 181 -42 l 96 7 q 60 83 60 28 l 60 1111 l 181 1042 z "},"ĺ":{"ha":542,"x_min":6,"x_max":481,"o":"m 301 83 l 481 188 l 481 49 l 301 -56 q 217 -62 253 -83 q 181 14 181 -42 l 181 1042 l 301 1111 l 301 83 m 126 1214 l 414 1564 l 478 1479 l 190 1129 l 126 1214 m 301 1111 l 181 1042 l 60 1111 l 181 1181 l 301 1111 m 481 188 l 301 83 l 181 153 l 361 257 l 481 188 m 414 1564 l 126 1214 l 6 1283 l 293 1633 l 414 1564 m 181 1042 l 181 14 q 217 -62 181 -42 l 96 7 q 60 83 60 28 l 60 1111 l 181 1042 m 126 1214 l 190 1129 l 69 1199 l 6 1283 l 126 1214 z "}}}
